<svg width="12" height="12" viewBox="0 0 12 12" fill="none" xmlns="http://www.w3.org/2000/svg">
<path fill-rule="evenodd" clip-rule="evenodd" d="M11.2866 0.273764C11.2638 0.114068 11.1269 0 10.9672 0H0.336044C0.176348 0 0.0394746 0.114068 0.0166609 0.273764C-0.0974075 1.48289 0.381677 2.71483 1.22578 3.58175C1.43111 3.80988 1.68205 3.99239 1.933 4.15209C2.20677 4.31179 2.50335 4.44867 2.66304 4.72243C2.77711 4.92776 2.68586 5.15589 2.45773 5.22433C2.43491 5.22433 2.41209 5.24715 2.38928 5.24715C2.20677 5.24715 2.06989 5.06464 2.06989 4.90494C2.06989 4.74525 1.933 4.65399 1.81893 4.65399C1.68205 4.65399 1.56799 4.74525 1.56799 4.90494C1.56799 5.26996 1.79613 5.58935 2.13833 5.70342C2.22959 5.74905 2.32084 5.74905 2.4121 5.74905C2.66305 5.74905 2.89118 5.63498 3.05088 5.45247C3.21057 5.26996 3.27901 5.01901 3.23339 4.81369C3.71247 5.17871 4.28282 5.42966 4.87597 5.54373C4.78472 6.27376 4.51095 7.5057 3.73529 7.91635V8.32699H3.30182V8.8289H2.66304V12H5.65164H8.64023V8.8289H8.00145V8.32699H7.56798V7.91635C6.79232 7.5057 6.51856 6.27376 6.4273 5.54373C7.02046 5.42966 7.5908 5.17871 8.06989 4.81369C8.04708 5.04183 8.0927 5.26996 8.2524 5.45247C8.41209 5.63498 8.64023 5.74905 8.89118 5.74905C8.98243 5.74905 9.07369 5.72623 9.16494 5.70342C9.50715 5.56654 9.73528 5.24715 9.73528 4.90494C9.73528 4.74525 9.59841 4.65399 9.48434 4.65399C9.34746 4.65399 9.23338 4.74525 9.23338 4.90494C9.23338 5.06464 9.09651 5.24715 8.914 5.24715C8.89118 5.24715 8.86837 5.24715 8.84556 5.22433C8.61742 5.15589 8.52616 4.92776 8.64023 4.72243C8.79993 4.44867 9.11932 4.31179 9.37027 4.15209C9.62122 3.99239 9.87217 3.80988 10.0775 3.58175C10.9216 2.71483 11.4007 1.48289 11.2866 0.273764ZM0.518565 0.593155C0.518565 0.570342 0.518565 0.547529 0.518565 0.524715H1.70487C1.61361 0.844107 1.56799 1.18631 1.56799 1.55133C1.56799 2.34981 1.79612 3.10266 2.20677 3.74144C1.15734 3.05703 0.518565 1.82509 0.518565 0.593155ZM9.0965 3.71863C9.48434 3.07985 9.73528 2.34981 9.73528 1.52852C9.73528 1.18631 9.68966 0.821292 9.59841 0.5019H10.7847C10.7847 0.524714 10.7847 0.547528 10.7847 0.570342C10.7847 1.82509 10.1459 3.05703 9.0965 3.71863Z" fill="#FDC81A"/>
</svg>
