<svg width="13" height="12" viewBox="0 0 13 12" fill="none" xmlns="http://www.w3.org/2000/svg">
<g clip-path="url(#clip0_4_4493)">
<path d="M4.0003 9.66346C4.0167 9.75 4.10687 9.80769 4.19704 9.78709L4.63971 9.70055C4.72988 9.68407 4.78727 9.59753 4.76677 9.51099L4.55773 8.51374C4.54134 8.4272 4.45117 8.36951 4.36099 8.39011L3.91833 8.47665C3.82815 8.49313 3.77077 8.57967 3.79126 8.66621L4.0003 9.66346Z" fill="#002C51"/>
<path d="M4.47989 8.85165V8.76511C4.52498 8.76923 4.57006 8.77335 4.61515 8.77747L4.7709 9.51099C4.7873 9.59753 4.72992 9.68407 4.64384 9.70055L4.52498 9.72527L4.20117 9.79121C4.111 9.80769 4.02493 9.75412 4.00443 9.66758L3.98804 9.58929C4.27495 9.46154 4.47989 9.18132 4.47989 8.85165Z" fill="#001133"/>
<path d="M1.92651 6.98489C1.92651 6.98489 2.77086 11.3036 3.42667 11.7445C3.42667 11.7445 4.07427 12.239 5.05798 11.8516C5.05798 11.8516 3.98 7.84615 4.01279 7.00549L1.92651 6.98489Z" fill="#8ED8F8"/>
<path d="M4.53733 11.9299C4.37748 11.3365 3.51674 8.05632 3.43066 6.94368L4.01679 6.9478C3.984 7.79258 5.06198 11.794 5.06198 11.794C4.87343 11.8681 4.69719 11.9093 4.53733 11.9299Z" fill="#76B4CF"/>
<path d="M4.67272 6.68819V7.32692C4.67272 7.72665 4.34071 8.0522 3.92674 8.0522H2.34461C1.93473 8.0522 1.59863 7.72665 1.59863 7.32692V6.68819H4.67272Z" fill="#002C51"/>
<path d="M2.20115 7.49588H4.0702C4.30383 7.49588 4.51286 7.40934 4.66862 7.26511V7.33104C4.66862 7.73077 4.33662 8.05632 3.92264 8.05632H2.34461C1.93473 8.05632 1.59863 7.73077 1.59863 7.33104V7.26511C1.75849 7.40522 1.96752 7.49588 2.20115 7.49588Z" fill="#001537"/>
<path d="M1.92643 3.30494V7.20329C0.852545 7.15384 0 6.30082 0 5.25412C0 4.20742 0.852545 3.35439 1.92643 3.30494Z" fill="#002C51"/>
<path d="M3.648 3.30082H1.92651V7.19917H3.648V3.30082Z" fill="#00568B"/>
<path d="M11.4972 0C11.2594 0.593407 11.0873 2.71978 11.0873 5.25412C11.0873 7.78434 11.2635 9.91071 11.4972 10.5041C10.6528 9.52747 7.77957 7.2033 3.6521 7.2033V3.30082C7.77957 3.30082 10.6487 0.976648 11.4972 0Z" fill="#8ED8F8"/>
<path d="M10.9519 5.25C10.9519 8.1511 11.1937 10.5 11.497 10.5C11.7963 10.5 12.0422 8.14698 12.0422 5.25C12.0381 2.35302 11.7963 0 11.497 0C11.4315 0 10.9519 2.35302 10.9519 5.25Z" fill="#002447"/>
<path d="M0.0327148 4.91209C0.0409124 4.86264 0.0532087 4.81731 0.0655051 4.77198C0.0696038 4.75962 0.0696038 4.75137 0.0737026 4.73901C0.0859989 4.6978 0.0982953 4.65247 0.11469 4.61126C0.118789 4.5989 0.122888 4.58654 0.126987 4.57418C0.143382 4.53297 0.159777 4.49176 0.176172 4.45467C0.180271 4.44231 0.188468 4.42995 0.192567 4.41758C0.213061 4.3805 0.229456 4.33929 0.254049 4.3022C0.262246 4.28984 0.266345 4.27747 0.274543 4.26923C0.295037 4.23214 0.319629 4.19506 0.344222 4.15797C0.352419 4.14973 0.356518 4.14148 0.364716 4.13324C0.446691 4.01786 0.545062 3.91071 0.65163 3.81593C0.663926 3.80769 0.672124 3.79533 0.68442 3.78709C0.709013 3.76648 0.737704 3.74588 0.762297 3.72528C0.782791 3.70879 0.803285 3.69231 0.823779 3.67995C0.848371 3.66346 0.872964 3.64698 0.897557 3.6305C0.922149 3.61401 0.946742 3.59753 0.971335 3.58517C0.995927 3.56868 1.02052 3.55632 1.04511 3.54396C1.0738 3.52747 1.1025 3.51511 1.13119 3.50275C1.15578 3.49039 1.18037 3.47802 1.20496 3.46978C1.23776 3.45742 1.26645 3.44506 1.29924 3.43269C1.32383 3.42445 1.34842 3.41621 1.37301 3.40797C1.4058 3.3956 1.44269 3.38736 1.47958 3.37912C1.50418 3.375 1.52467 3.36676 1.54926 3.36264C1.59025 3.3544 1.63124 3.34615 1.67223 3.33791C1.69272 3.33379 1.71321 3.32967 1.73371 3.32555C1.79519 3.31731 1.85667 3.30907 1.92225 3.30907V4.36813H1.4222V4.37225C0.889359 4.39286 0.405704 4.59478 0.0327148 4.91209Z" fill="#00639D"/>
<path d="M3.6521 4.35989C3.54963 4.36401 3.44716 4.36401 3.34469 4.36401H1.92651V3.30082H3.648V4.35989H3.6521Z" fill="#1283C6"/>
<path d="M3.6521 3.30082C3.77096 3.30082 3.88573 3.2967 4.0005 3.2967C4.03738 3.2967 4.07017 3.29258 4.10706 3.29258C4.18904 3.28846 4.27101 3.28434 4.34889 3.28022C4.38578 3.2761 4.42267 3.2761 4.45956 3.27198C4.54973 3.26374 4.63581 3.25962 4.72598 3.24725C4.75057 3.24313 4.77107 3.24313 4.79566 3.23901C4.90633 3.22665 5.01289 3.21429 5.11946 3.1978C5.14815 3.19368 5.17684 3.18956 5.20554 3.18544C5.28751 3.17308 5.36539 3.16071 5.44327 3.14835C5.48015 3.14423 5.51294 3.13599 5.54983 3.13187C5.62771 3.11951 5.70149 3.10302 5.77527 3.09066C5.80396 3.08654 5.83675 3.0783 5.86544 3.07418C5.96791 3.05357 6.06628 3.03297 6.16875 3.00824C6.18514 3.00412 6.20154 3 6.21793 2.99588C6.29991 2.97527 6.38598 2.95467 6.46796 2.93407C6.50075 2.92582 6.53354 2.91758 6.56633 2.90522C6.63191 2.88462 6.70159 2.86813 6.76717 2.84753C6.79996 2.83929 6.83275 2.82692 6.86554 2.81868C6.94342 2.79396 7.02129 2.76923 7.09917 2.74451C7.11557 2.74038 7.13196 2.73214 7.14836 2.72802C7.23853 2.69918 7.3287 2.66621 7.41478 2.63324C7.44757 2.62088 7.47626 2.60852 7.50495 2.60027C7.56233 2.57967 7.62381 2.55494 7.6812 2.53434C7.71399 2.52198 7.74678 2.50962 7.78367 2.49313C7.84105 2.46841 7.89843 2.4478 7.95172 2.42308C7.98041 2.41071 8.0091 2.39835 8.03779 2.38599C8.11567 2.35302 8.19354 2.31593 8.27142 2.28297C8.30011 2.2706 8.3329 2.25412 8.36159 2.24176C8.41078 2.21703 8.45997 2.19643 8.50915 2.1717C8.54604 2.15522 8.57883 2.13462 8.61572 2.11813C8.65671 2.09753 8.69769 2.07692 8.74278 2.0522C8.77967 2.03571 8.81246 2.01511 8.84935 1.99863C8.89443 1.9739 8.93542 1.9533 8.97641 1.92857C9.03789 1.8956 9.09528 1.86264 9.15266 1.82967C9.18545 1.80907 9.22234 1.79258 9.25513 1.77198C9.29612 1.74725 9.333 1.72665 9.37399 1.70192C9.40268 1.68544 9.42728 1.66896 9.45597 1.65247C9.49696 1.62775 9.53384 1.60302 9.57483 1.5783C9.59533 1.56593 9.61582 1.55357 9.63631 1.53709C9.77977 1.44643 9.91503 1.35577 10.0462 1.26099C10.0585 1.25275 10.0667 1.24451 10.079 1.24038C10.1241 1.21154 10.1651 1.17857 10.206 1.14973C10.2142 1.1456 10.2183 1.13736 10.2265 1.13324C10.8127 0.700549 11.243 0.292582 11.4972 0C11.3988 0.251374 11.3086 0.778846 11.2389 1.5C11.1938 1.53709 11.1488 1.57418 11.0996 1.61538C9.65681 2.78571 7.05408 4.27335 3.6521 4.35989V3.30082Z" fill="#B1E3FA"/>
<path d="M11.083 3.89835C11.9765 3.94368 12.6856 4.66072 12.6856 5.53846C12.6856 6.41621 11.9765 7.13324 11.083 7.17857V3.89835Z" fill="#8ED8F8"/>
<path d="M1.69696 7.17857C1.65188 7.17033 1.60679 7.16209 1.5617 7.15385C1.54531 7.14972 1.52891 7.1456 1.51252 7.14148C1.46743 7.12912 1.42235 7.11676 1.37726 7.10439C1.36496 7.10027 1.35267 7.09615 1.34037 7.09203C1.2297 7.05494 1.11904 7.00549 1.02066 6.9478C1.00837 6.93956 0.991974 6.93132 0.979677 6.92308C0.942788 6.90247 0.909998 6.88187 0.873109 6.85714C0.856714 6.84478 0.840319 6.83654 0.828022 6.82417C0.795232 6.79945 0.762442 6.77472 0.733751 6.75C0.721454 6.73764 0.705059 6.72939 0.692763 6.71703C0.651775 6.67994 0.610787 6.64286 0.5698 6.60577C0.557503 6.59341 0.549306 6.58516 0.537009 6.5728C0.508318 6.54395 0.483725 6.51511 0.455034 6.48214C0.438639 6.46566 0.426342 6.44505 0.409947 6.42445C0.389453 6.39972 0.373058 6.375 0.352564 6.35027C0.336169 6.32967 0.323873 6.30906 0.307478 6.28434C0.291083 6.25961 0.274688 6.23077 0.258293 6.20604C0.245996 6.18544 0.2337 6.16071 0.221404 6.14011C0.196811 6.0989 0.176317 6.05357 0.155823 6.00824C0.143527 5.98352 0.135329 5.95879 0.127132 5.93406C0.118934 5.90934 0.110737 5.88461 0.102539 5.86401C0.397651 6 0.729652 6.08654 1.07805 6.10302H1.92649V7.2033C1.86501 7.19917 1.80353 7.19505 1.74205 7.18681C1.72975 7.18269 1.71336 7.17857 1.69696 7.17857Z" fill="#001537"/>
<path d="M3.22992 6.10302C3.37338 6.10714 3.51274 6.10714 3.6521 6.11127V7.2033H1.92651V6.10302H3.22992Z" fill="#00335A"/>
<path d="M11.2061 8.6456C11.2798 9.54808 11.3782 10.2115 11.4971 10.5041C11.0626 10.0014 10.083 9.13599 8.67711 8.41896C8.66891 8.41483 8.66072 8.41071 8.65662 8.40659C8.59513 8.37775 8.53365 8.34478 8.47217 8.31593C8.46397 8.31181 8.45578 8.30769 8.44758 8.30357C8.26723 8.21703 8.07869 8.13049 7.88195 8.0522C7.85736 8.03983 7.83276 8.03159 7.80817 8.01923C7.75489 7.99863 7.7016 7.97802 7.64422 7.9533C7.61143 7.94093 7.57864 7.92857 7.54995 7.91621C7.49666 7.8956 7.44338 7.875 7.39009 7.85852C7.35321 7.84615 7.31632 7.83379 7.28353 7.82143C7.19745 7.79258 7.10728 7.75961 7.01711 7.73077C6.97202 7.71429 6.92693 7.70192 6.88185 7.68956C6.83266 7.67308 6.78757 7.66071 6.73839 7.64835C6.6892 7.63599 6.64002 7.61951 6.59493 7.60714C6.54985 7.59478 6.50066 7.58242 6.45557 7.57005C6.39819 7.55357 6.34081 7.54121 6.27933 7.52472C6.23834 7.51236 6.19325 7.50412 6.15226 7.49176C6.06209 7.47115 5.97192 7.45055 5.88174 7.42994C5.84076 7.4217 5.79977 7.41346 5.75878 7.40522C5.6973 7.39286 5.63172 7.38049 5.57024 7.36813C5.52925 7.35989 5.48416 7.35165 5.43908 7.34753C5.3694 7.33516 5.30382 7.32692 5.23414 7.31456C5.19725 7.31044 5.16036 7.3022 5.12347 7.29808C5.021 7.28571 4.91443 7.27335 4.80787 7.26099C4.77917 7.25687 4.74638 7.25687 4.71769 7.25275C4.63572 7.2445 4.55374 7.23626 4.47177 7.23214C4.43078 7.22802 4.39389 7.22802 4.3529 7.2239C4.27502 7.21978 4.19715 7.21566 4.11927 7.21154C4.08238 7.21154 4.04549 7.20742 4.0086 7.20742C3.89794 7.2033 3.78317 7.2033 3.66841 7.2033H3.66431V6.11126C6.91874 6.21016 9.52146 7.46703 11.2061 8.6456Z" fill="#7EC0DC"/>
<path d="M11.4969 0C11.2592 0.593407 11.0871 2.71978 11.0871 5.25412C11.0871 7.78434 11.2633 9.91071 11.4969 10.5041C11.3043 10.2816 11.0051 9.98901 10.6116 9.6717C10.2837 8.25 10.1157 6.79945 10.1075 5.3489C10.0993 3.83654 10.2673 2.32005 10.6116 0.836538C11.0051 0.51511 11.3043 0.222527 11.4969 0Z" fill="#00568B"/>
<path d="M10.6117 0.836538C11.0052 0.519231 11.3044 0.222527 11.4971 0C11.3987 0.251374 11.3085 0.778846 11.2389 1.5C11.1938 1.53709 11.1487 1.57418 11.0995 1.61538C10.8782 1.7967 10.6281 1.98214 10.3535 2.1717C10.4232 1.72253 10.5093 1.27747 10.6117 0.836538Z" fill="#1283C6"/>
<path d="M11.497 10.5041C11.3044 10.2816 11.0052 9.98901 10.6117 9.6717C10.4887 9.14011 10.3904 8.60851 10.3125 8.06868C10.6363 8.25824 10.9355 8.45604 11.2101 8.6456C11.2798 9.54808 11.3782 10.2115 11.497 10.5041Z" fill="#003D67"/>
<path d="M11.6282 5.47665C11.6282 5.9011 11.829 6.24313 12.079 6.24313C12.3291 6.24313 12.5299 5.9011 12.5299 5.47665C12.5299 5.0522 12.3291 4.71017 12.079 4.71017C11.829 4.71017 11.6282 5.0522 11.6282 5.47665Z" fill="#B9E5FB"/>
</g>
<defs>
<clipPath id="clip0_4_4493">
<rect width="12.6857" height="12" fill="white"/>
</clipPath>
</defs>
</svg>
