<svg width="9" height="12" viewBox="0 0 9 12" fill="none" xmlns="http://www.w3.org/2000/svg">
<path d="M4.40847 0C4.69998 0 4.97327 0.185187 5.21012 0.500002C5.44697 0.814817 5.64739 1.25926 5.81136 1.83334C5.8478 1.92593 5.86602 2.03704 5.88424 2.11111C5.90246 2.16667 5.90247 2.2037 5.92068 2.24074C5.95712 2.22222 5.99356 2.18519 6.03 2.16667C6.12109 2.11111 6.2122 2.05556 6.28507 2.01852C6.79522 1.74074 7.2507 1.57408 7.63331 1.51852C8.03414 1.46296 8.34387 1.53704 8.54428 1.74074C8.7447 1.94445 8.81758 2.27778 8.76292 2.66667C8.70826 3.05556 8.54428 3.53704 8.27099 4.05556C8.10702 4.37037 7.90661 4.68519 7.68798 5.03704C7.46934 5.35185 7.2507 5.66667 6.97741 6C7.23248 6.31482 7.46934 6.64815 7.68798 6.96296C7.92483 7.31481 8.12523 7.62963 8.27099 7.94445C8.54428 8.46297 8.70826 8.92593 8.76292 9.31482C8.81758 9.72222 8.7447 10.037 8.54428 10.2407C8.34387 10.4444 8.01592 10.5185 7.63331 10.463C7.2507 10.4074 6.79522 10.2407 6.28507 9.96296C6.2122 9.92593 6.12109 9.87037 6.03 9.81481C5.99356 9.77777 5.95712 9.75926 5.92068 9.74074C5.90247 9.7963 5.90246 9.83333 5.88424 9.87037C5.86602 9.96296 5.82958 10.0556 5.81136 10.1667C5.62917 10.7222 5.42875 11.1852 5.21012 11.5C4.97327 11.8148 4.69998 12 4.40847 12C4.11696 12 3.84366 11.8148 3.60681 11.5C3.36996 11.1852 3.16954 10.7222 3.00557 10.1667C2.96913 10.0741 2.9509 9.98148 2.93269 9.87037C2.91447 9.83333 2.91446 9.77778 2.89624 9.74074C2.85981 9.77778 2.82337 9.79629 2.76872 9.81481C2.67762 9.87037 2.58652 9.92593 2.51364 9.96296C2.00349 10.2407 1.54801 10.4074 1.14718 10.463C0.74635 10.5185 0.436619 10.4444 0.236204 10.2407C0.0357902 10.037 -0.0370899 9.7037 0.0175685 9.31482C0.072227 8.92593 0.236205 8.46297 0.509497 7.94445C0.673472 7.62963 0.873884 7.31481 1.11074 6.96296C1.31115 6.64815 1.54801 6.33334 1.8213 6C1.56623 5.66667 1.32937 5.35185 1.11074 5.03704C0.873884 4.68519 0.673472 4.37037 0.509497 4.05556C0.236205 3.53704 0.072227 3.07408 0.0175685 2.66667C-0.0370899 2.25926 0.0357902 1.94445 0.236204 1.74074C0.436619 1.53704 0.764569 1.46296 1.14718 1.51852C1.52979 1.57408 2.00349 1.75926 2.51364 2.01852C2.58652 2.05556 2.67762 2.11111 2.76872 2.16667C2.80516 2.18519 2.84159 2.22222 2.89624 2.24074C2.91446 2.2037 2.91447 2.14815 2.93269 2.11111C2.9509 2.01852 2.98735 1.92593 3.00557 1.83334C3.16954 1.25926 3.38817 0.814817 3.60681 0.500002C3.84366 0.166669 4.11696 0 4.40847 0ZM6.01178 2.61111C6.08466 2.98148 6.15753 3.38889 6.21219 3.81481C6.26685 4.24074 6.3033 4.7037 6.32152 5.18518C6.41261 5.29629 6.50371 5.38889 6.59481 5.48148C6.66769 5.55556 6.72234 5.62963 6.79522 5.70371C7.03207 5.40741 7.2507 5.11111 7.4329 4.81481C7.65153 4.5 7.85194 4.16667 7.9977 3.87037C8.25277 3.38889 8.39853 2.98148 8.45319 2.62963C8.50784 2.33333 8.47141 2.11111 8.34387 1.98148C8.21634 1.85185 7.9977 1.81482 7.70619 1.87037C7.37824 1.92593 6.95919 2.09259 6.48548 2.33333C6.39439 2.38889 6.3033 2.42593 6.23042 2.48149C6.15754 2.53704 6.08466 2.57407 6.01178 2.61111ZM2.80515 9.37037C2.73227 9 2.6594 8.59259 2.60474 8.16667C2.55008 7.74074 2.51364 7.27778 2.49542 6.7963C2.40433 6.7037 2.31323 6.59259 2.22213 6.5C2.14925 6.42593 2.09459 6.35185 2.02171 6.27778C1.78486 6.57408 1.56623 6.87037 1.36581 7.16667C1.14718 7.5 0.964979 7.81482 0.801004 8.11111C0.545931 8.59259 0.400175 9 0.345517 9.35185C0.290858 9.64815 0.327304 9.87037 0.454841 10C0.582377 10.1296 0.801011 10.1667 1.09252 10.1111C1.42047 10.0556 1.83952 9.88889 2.31323 9.64815C2.40433 9.59259 2.49542 9.55556 2.5683 9.5C2.67761 9.46296 2.73227 9.42592 2.80515 9.37037ZM6.79522 6.27778C6.72234 6.35185 6.66769 6.42593 6.59481 6.5C6.52193 6.59259 6.43083 6.68519 6.32152 6.7963C6.3033 7.27778 6.26685 7.74074 6.21219 8.16667C6.15753 8.59259 6.10288 9 6.01178 9.37037C6.08466 9.40741 6.13931 9.44444 6.21219 9.48148C6.30329 9.53704 6.39439 9.59259 6.46727 9.62963C6.92276 9.88889 7.34181 10.037 7.68798 10.0926C7.97949 10.1481 8.19812 10.1111 8.32566 9.98148C8.45319 9.85185 8.48963 9.62963 8.43497 9.33333C8.38031 9 8.21634 8.57407 7.97948 8.09259C7.83373 7.7963 7.63332 7.48148 7.41468 7.14815C7.25071 6.87037 7.01385 6.57408 6.79522 6.27778ZM5.95713 7.20371C5.88425 7.27778 5.82959 7.33334 5.77493 7.38889C5.57452 7.5926 5.39231 7.77778 5.17368 7.96296C5.0097 8.11111 4.84574 8.25926 4.68176 8.40741C4.86396 8.55556 5.04615 8.68519 5.22835 8.83333C5.39232 8.94444 5.55629 9.07407 5.70205 9.18518C5.75671 8.87037 5.81137 8.53704 5.86603 8.18519C5.90247 7.85185 5.93891 7.53704 5.95713 7.20371ZM4.40847 8.64815C4.20806 8.81481 3.98942 8.98148 3.789 9.12963C3.58859 9.27778 3.38818 9.42592 3.18776 9.55555C3.20598 9.62963 3.2242 9.7037 3.24242 9.77778C3.27886 9.87037 3.29708 9.98148 3.33352 10.0741C3.47927 10.5926 3.66147 11 3.86189 11.2778C4.04408 11.5185 4.22627 11.6481 4.40847 11.6481C4.59066 11.6481 4.77286 11.5185 4.95505 11.2778C5.15547 11 5.33766 10.5926 5.48341 10.0741C5.51985 9.98148 5.53807 9.88889 5.57451 9.77778C5.59273 9.7037 5.61095 9.62963 5.62917 9.55555C5.42875 9.42592 5.22834 9.2963 5.02793 9.12963C4.82751 8.98148 4.6271 8.81481 4.40847 8.64815ZM2.03994 5.72223C2.11282 5.64815 2.16747 5.57407 2.24035 5.5C2.31323 5.40741 2.40432 5.31481 2.51364 5.2037C2.53186 4.72222 2.56829 4.25926 2.62295 3.83333C2.67761 3.40741 2.73228 3.01852 2.82337 2.62963C2.75049 2.59259 2.69583 2.55556 2.62295 2.51852C2.53185 2.46296 2.44076 2.40741 2.36789 2.37037C1.89418 2.11111 1.49335 1.96297 1.14718 1.90741C0.855667 1.85185 0.637033 1.88889 0.509497 2.01852C0.38196 2.14815 0.345526 2.37037 0.400184 2.66667C0.454843 3 0.618818 3.42593 0.855671 3.90741C1.00143 4.2037 1.20184 4.51852 1.42047 4.85185C1.58445 5.12963 1.80308 5.42593 2.03994 5.72223ZM2.87803 4.7963C2.93269 4.72223 3.00557 4.66667 3.06022 4.61111C3.26064 4.40741 3.46105 4.22222 3.66146 4.03704C3.82544 3.88889 3.98942 3.74074 4.15339 3.5926C3.9712 3.44445 3.789 3.31482 3.62502 3.16667C3.46105 3.03704 3.29708 2.92593 3.15132 2.81482C3.07844 3.12963 3.042 3.46296 2.98734 3.81481C2.91446 4.12963 2.89625 4.46297 2.87803 4.7963ZM4.40847 3.35185C4.60888 3.18519 4.82751 3.01852 5.02793 2.87037C5.22834 2.72222 5.42875 2.57408 5.62917 2.44445C5.61095 2.37037 5.59273 2.2963 5.57451 2.22222C5.53807 2.12963 5.51985 2.01852 5.48341 1.92593C5.33766 1.40741 5.15547 1 4.95505 0.722227C4.77286 0.481486 4.59066 0.351856 4.40847 0.351856C4.22627 0.351856 4.04408 0.481486 3.86189 0.722227C3.66147 1 3.47927 1.40741 3.33352 1.92593C3.29708 2.01852 3.27886 2.11111 3.24242 2.22222C3.2242 2.2963 3.20598 2.37037 3.18776 2.44445C3.38818 2.57408 3.58859 2.7037 3.789 2.87037C4.00764 3.01852 4.20806 3.18519 4.40847 3.35185ZM5.70205 2.81482C5.55629 2.92593 5.39232 3.03704 5.22835 3.16667C5.04615 3.2963 4.86395 3.44445 4.69998 3.5926C4.86395 3.74074 5.02793 3.88889 5.19191 4.03704C5.39232 4.22222 5.59273 4.42593 5.79315 4.61111C5.8478 4.66667 5.92068 4.74074 5.97534 4.7963C5.95712 4.46297 5.92068 4.14815 5.88424 3.83333C5.82959 3.46296 5.77493 3.12963 5.70205 2.81482ZM4.40847 3.81481C4.22627 3.96296 4.0623 4.11111 3.8801 4.27778C3.67969 4.46296 3.47927 4.64815 3.27886 4.85185C3.20598 4.94445 3.11489 5.01852 3.04201 5.11111C2.96913 5.18518 2.91447 5.25926 2.84159 5.33334C2.84159 5.44445 2.82337 5.53704 2.82337 5.62963C2.82337 5.72223 2.82337 5.85185 2.82337 5.98148C2.82337 6.11111 2.82337 6.24074 2.82337 6.33333C2.82337 6.44445 2.82337 6.53704 2.84159 6.64815C2.91447 6.72222 2.96913 6.7963 3.04201 6.87037C3.11489 6.94444 3.20598 7.03704 3.27886 7.11111C3.47927 7.31482 3.67969 7.5 3.8801 7.68518C4.0623 7.85185 4.22627 8 4.40847 8.14815C4.59066 8 4.75463 7.85185 4.93683 7.68518C5.13724 7.5 5.31944 7.31482 5.51985 7.11111C5.61095 7.01852 5.68383 6.92592 5.7567 6.85185C5.82958 6.77778 5.88425 6.70371 5.95713 6.62963C5.95713 6.51852 5.95712 6.42593 5.97534 6.33333C5.97534 6.24074 5.97534 6.11111 5.97534 5.98148C5.97534 5.85185 5.97534 5.72223 5.97534 5.62963C5.97534 5.53704 5.97535 5.42593 5.95713 5.33334C5.88425 5.25926 5.81136 5.18518 5.7567 5.11111C5.68383 5.03704 5.61095 4.96296 5.51985 4.85185C5.31944 4.64815 5.11902 4.44444 4.93683 4.27778C4.75463 4.12963 4.59066 3.96296 4.40847 3.81481ZM2.4772 5.74074L2.44076 5.77778C2.3861 5.85185 2.31322 5.92593 2.25856 6C2.31322 6.07408 2.36788 6.14815 2.44076 6.22222L2.4772 6.25926C2.4772 6.14815 2.4772 6.07408 2.4772 6C2.4772 5.92593 2.4772 5.83333 2.4772 5.74074ZM3.11488 9.16666C3.26064 9.05555 3.42462 8.94444 3.58859 8.81481C3.77079 8.68518 3.95298 8.53704 4.11695 8.38889C3.95298 8.24074 3.789 8.0926 3.62502 7.94445C3.42461 7.75926 3.2242 7.57408 3.02378 7.37037C2.96912 7.31482 2.91447 7.25926 2.84159 7.18519C2.85981 7.51852 2.89625 7.83333 2.93269 8.14815C3.00556 8.51852 3.06022 8.85185 3.11488 9.16666ZM6.33973 6.25926L6.37617 6.22222C6.43083 6.14815 6.50371 6.07408 6.55837 6C6.50371 5.92593 6.44905 5.85185 6.37617 5.77778L6.33973 5.74074C6.33973 5.83333 6.33973 5.92593 6.33973 6C6.33973 6.0926 6.33973 6.16667 6.33973 6.25926Z" fill="#A1ABB7"/>
<path fill-rule="evenodd" clip-rule="evenodd" d="M4.3905 5.26834C4.8783 5.26834 5.26855 5.59354 5.26855 6.00005C5.26855 6.40655 4.8783 6.73176 4.3905 6.73176C3.9027 6.73176 3.51245 6.40655 3.51245 6.00005C3.51245 5.59354 3.9027 5.26834 4.3905 5.26834Z" fill="#DB4C2A"/>
</svg>
