<svg width="16" height="12" viewBox="0 0 16 12" fill="none" xmlns="http://www.w3.org/2000/svg">
<path d="M12.3389 2.48218H10.9282V2.92122H12.3389V2.48218Z" fill="#3DBFCD"/>
<path d="M12.1743 2.3064H11.0898C11.0736 2.42886 11.0065 2.78241 10.8909 2.88177C10.9001 4.04175 12.3917 4.03713 12.3755 2.88177C12.2599 2.78241 12.1928 2.42886 12.1743 2.3064Z" fill="#F39C56"/>
<path d="M11.6332 0.273041L10.6711 0.866901L10.8608 2.21868C10.8608 2.21868 11.1822 2.66695 11.6332 2.66695C12.0841 2.66695 12.4056 2.21868 12.4056 2.21868L12.5952 0.866901L11.6332 0.273041Z" fill="#FAB67A"/>
<path d="M10.785 1.40748C10.607 1.25497 10.4798 1.44214 10.6856 1.75871C10.6856 1.75871 10.6694 1.86269 10.8174 1.86269L10.785 1.40748Z" fill="#FAB67A"/>
<path d="M12.4826 1.40748C12.6583 1.25497 12.7878 1.44214 12.582 1.75871C12.582 1.75871 12.5982 1.86269 12.4502 1.86269L12.4826 1.40748Z" fill="#FAB67A"/>
<path d="M12.5631 2.82874L11.6335 2.87957L10.7038 2.82874L10.2043 3.14068C10.3732 3.65366 11.3814 4.437 11.6358 4.67731C11.8902 4.437 12.8985 3.65366 13.0673 3.13837L12.5631 2.82874Z" fill="#3DBFCD"/>
<path d="M13.6338 4.27294C13.1204 4.77899 12.4127 5.09093 11.6334 5.09093C10.8564 5.09093 10.1488 4.77898 9.63306 4.27063L9.71168 3.54044C9.899 2.99511 10.7015 2.82874 10.7015 2.82874L11.6311 4.67963L12.5607 2.82874C12.5607 2.82874 13.3655 2.99742 13.5528 3.54044L13.6338 4.27294Z" fill="#30302F"/>
<path d="M10.9285 2.48215L11.6338 2.8819L11.1759 3.38102L10.644 2.80103L10.9285 2.48215Z" fill="#BEDFE1"/>
<path d="M12.3389 2.48206L11.6335 2.88181L12.0891 3.38093L12.6233 2.80094L12.3389 2.48206Z" fill="#BEDFE1"/>
<path d="M11.6334 0.18985C10.3176 0.273036 10.5604 1.46999 10.5604 1.46999L12.1283 1.14418L12.7087 1.46999C12.7087 1.46768 12.9492 0.273036 11.6334 0.18985Z" fill="#2B2A29"/>
<path d="M12.2552 0.358675C12.2552 0.358675 11.8968 -0.186659 10.8145 0.0675211L11.0064 0.189991C11.0064 0.189991 10.5578 0.229271 10.4121 0.534286C10.4121 0.534286 10.796 0.70297 10.8885 0.83006L12.2552 0.358675Z" fill="#2B2A29"/>
<path d="M14.5532 4.69604H8.71167V9.1465H14.5532V4.69604Z" fill="#8D3A1E"/>
<path d="M15.0317 4.3078H8.23047V5.53248H15.0317V4.3078Z" fill="#A44124"/>
<path d="M8.22169 3.91006H6.81104V4.3491H8.22169V3.91006Z" fill="#3DBFCD"/>
<path d="M8.05715 3.73221H6.97256C6.95638 3.85468 6.88931 4.20822 6.77368 4.30758C6.78293 5.46756 8.27453 5.46294 8.25834 4.30758C8.14272 4.21053 8.07565 3.85468 8.05715 3.73221Z" fill="#F39C56"/>
<path d="M7.51598 1.69876L6.55396 2.29262L6.74359 3.64439C6.74359 3.64439 7.06503 4.09267 7.51598 4.09267C7.96693 4.09267 8.28837 3.64439 8.28837 3.64439L8.478 2.29262L7.51598 1.69876Z" fill="#FAB67A"/>
<path d="M6.66759 2.83564C6.48953 2.68313 6.36234 2.8703 6.56815 3.18687C6.56815 3.18687 6.55196 3.29085 6.69997 3.29085L6.66759 2.83564Z" fill="#FAB67A"/>
<path d="M8.36514 2.83561C8.54089 2.6831 8.67039 2.87027 8.46458 3.18684C8.46458 3.18684 8.48077 3.29082 8.33276 3.29082L8.36514 2.83561Z" fill="#FAB67A"/>
<path d="M8.44571 4.25671L7.51607 4.30755L6.58643 4.25671L6.08691 4.56866C6.25573 5.08164 7.26401 5.86497 7.51839 6.10529C7.77277 5.86497 8.78104 5.08164 8.94985 4.56635L8.44571 4.25671Z" fill="#3DBFCD"/>
<path d="M9.51658 5.70091C9.00319 6.20696 8.29555 6.51892 7.51622 6.51892C6.73921 6.51892 6.03157 6.20697 5.51587 5.69861L5.59449 4.96842C5.78181 4.42309 6.58427 4.25671 6.58427 4.25671L7.51391 6.1076L8.44356 4.25671C8.44356 4.25671 9.24832 4.42309 9.43564 4.96842L9.51658 5.70091Z" fill="#30302F"/>
<path d="M6.81106 3.91016L7.51638 4.3076L7.0585 4.80903L6.52661 4.22672L6.81106 3.91016Z" fill="#BEDFE1"/>
<path d="M8.22144 3.91025L7.51611 4.30769L7.974 4.80912L8.50589 4.22913L8.22144 3.91025Z" fill="#BEDFE1"/>
<path d="M7.5162 1.61557C6.20036 1.69876 6.44318 2.89571 6.44318 2.89571L8.01109 2.5699L8.59154 2.89571C8.59154 2.89571 8.83205 1.69876 7.5162 1.61557Z" fill="#2B2A29"/>
<path d="M8.14071 1.78443C8.14071 1.78443 7.78226 1.23909 6.69999 1.49327L6.89193 1.61574C6.89193 1.61574 6.4433 1.65502 6.29761 1.96004C6.29761 1.96004 6.68149 2.12872 6.77399 2.25581L8.14071 1.78443Z" fill="#2B2A29"/>
<path d="M10.4372 6.12396H4.5957V10.5744H10.4372V6.12396Z" fill="#67200F"/>
<path d="M10.9182 5.73355H4.11694V6.95823H10.9182V5.73355Z" fill="#A44124"/>
<path d="M4.10499 5.33618H2.69434V5.77522H4.10499V5.33618Z" fill="#3DBFCD"/>
<path d="M3.94313 5.16049H2.85855C2.84236 5.28296 2.7753 5.6365 2.65967 5.73586C2.66892 6.89584 4.16051 6.89122 4.14432 5.73586C4.02638 5.6365 3.95932 5.28296 3.94313 5.16049Z" fill="#F39C56"/>
<path d="M3.39928 3.12704L2.43726 3.72091L2.62689 5.07268C2.62689 5.07268 2.94833 5.52096 3.39928 5.52096C3.85023 5.52096 4.17167 5.07268 4.17167 5.07268L4.3613 3.72091L3.39928 3.12704Z" fill="#FAB67A"/>
<path d="M2.55089 4.26148C2.37283 4.10897 2.24564 4.29614 2.45145 4.61271C2.45145 4.61271 2.43526 4.71669 2.58327 4.71669L2.55089 4.26148Z" fill="#FAB67A"/>
<path d="M4.24868 4.26145C4.42444 4.10894 4.55394 4.29611 4.34812 4.61268C4.34812 4.61268 4.36431 4.71666 4.21631 4.71666L4.24868 4.26145Z" fill="#FAB67A"/>
<path d="M4.33121 5.68274L3.40157 5.73358L2.47192 5.68274L1.97241 5.99469C2.14123 6.50767 3.1495 7.291 3.40388 7.53132C3.65826 7.291 4.66653 6.50767 4.83535 5.99237L4.33121 5.68274Z" fill="#3DBFCD"/>
<path d="M5.39988 7.12694C4.8865 7.63299 4.17885 7.94494 3.39953 7.94494C2.62251 7.94494 1.91487 7.63299 1.39917 7.12463L1.47779 6.39444C1.66511 5.84911 2.46757 5.68274 2.46757 5.68274L3.39721 7.53363L4.32686 5.68274C4.32686 5.68274 5.13163 5.84911 5.31894 6.39444L5.39988 7.12694Z" fill="#30302F"/>
<path d="M2.69411 5.33627L3.39944 5.73602L2.94387 6.23514L2.40967 5.65515L2.69411 5.33627Z" fill="#BEDFE1"/>
<path d="M4.10474 5.3363L3.39941 5.73605L3.8573 6.23517L4.38919 5.65518L4.10474 5.3363Z" fill="#BEDFE1"/>
<path d="M3.39951 3.04385C2.08366 3.12704 2.32648 4.32399 2.32648 4.32399L3.89439 3.99818L4.47484 4.32399C4.47484 4.32168 4.71535 3.12704 3.39951 3.04385Z" fill="#2B2A29"/>
<path d="M4.02376 3.2125C4.02376 3.2125 3.66532 2.66716 2.58305 2.92134L2.77499 3.04381C2.77499 3.04381 2.32635 3.08309 2.18066 3.38811C2.18066 3.38811 2.56454 3.55679 2.65705 3.68388L4.02376 3.2125Z" fill="#2B2A29"/>
<path d="M6.32026 7.54956H0.47876V12H6.32026V7.54956Z" fill="#8D3A1E"/>
<path d="M6.80121 7.1615H0V8.38618H6.80121V7.1615Z" fill="#A44124"/>
</svg>
