<svg width="20" height="12" viewBox="0 0 20 12" fill="none" xmlns="http://www.w3.org/2000/svg">
<path d="M15.6277 0.739319H14.304V1.18631H15.6277V0.739319Z" fill="#1C1C1C"/>
<path d="M3.59295 9.98867C3.59295 9.36976 4.09151 8.8712 4.71042 8.8712V7.97723C3.59295 7.97723 2.69897 8.88839 2.69897 9.98867C2.69897 11.1061 3.61014 12.0001 4.71042 12.0001V11.1061C4.09151 11.1061 3.59295 10.6076 3.59295 9.98867Z" fill="#595858"/>
<path d="M6.72189 9.98842C6.72189 8.87096 5.81073 7.97699 4.71045 7.97699V8.87096C4.74483 8.87096 4.77922 8.87096 4.83079 8.87096C5.39812 8.92253 5.84511 9.4039 5.84511 9.98842C5.84511 10.5729 5.39812 11.0543 4.83079 11.1059C4.79641 11.1059 4.76202 11.1059 4.71045 11.1059V11.9999C5.82792 11.9999 6.72189 11.1059 6.72189 9.98842Z" fill="#1C1C1C"/>
<path d="M3.59302 9.98833C3.59302 10.6072 4.09158 11.1058 4.71049 11.1058V10.2978C4.53857 10.2978 4.38384 10.1603 4.38384 9.97114C4.38384 9.79922 4.52138 9.64449 4.71049 9.64449V8.83649C4.09158 8.87087 3.59302 9.36942 3.59302 9.98833Z" fill="#FFDF5A"/>
<path d="M4.71045 9.66191C4.88237 9.66191 5.03709 9.79943 5.03709 9.98854C5.03709 10.1605 4.89956 10.3152 4.71045 10.3152V11.1232C4.74483 11.1232 4.77922 11.1232 4.83079 11.1232C5.39812 11.0716 5.84511 10.5903 5.84511 10.0057C5.84511 9.42122 5.39812 8.93985 4.83079 8.88828C4.79641 8.88828 4.76202 8.88828 4.71045 8.88828V9.66191Z" fill="#EAB828"/>
<path d="M4.38306 9.98856C4.38306 10.1605 4.52059 10.3152 4.7097 10.3152V9.6791C4.53778 9.66191 4.38306 9.81664 4.38306 9.98856Z" fill="#E54B42"/>
<path d="M5.03709 9.98853C5.03709 9.81662 4.89956 9.6619 4.71045 9.6619V10.298C4.89956 10.3152 5.03709 10.1605 5.03709 9.98853Z" fill="#B7281D"/>
<path d="M13.3239 9.98867C13.3239 9.36976 13.8225 8.8712 14.4414 8.8712V7.97723C13.3239 7.97723 12.4299 8.88839 12.4299 9.98867C12.4299 11.1061 13.3411 12.0001 14.4414 12.0001V11.1061C13.8225 11.1061 13.3239 10.6076 13.3239 9.98867Z" fill="#595858"/>
<path d="M16.4697 9.98867C16.4697 8.8712 15.5585 7.97723 14.4583 7.97723V8.8712C14.4926 8.8712 14.527 8.8712 14.5786 8.8712C15.1459 8.92278 15.5929 9.40415 15.5929 9.98867C15.5929 10.5732 15.1459 11.0546 14.5786 11.1061C14.5442 11.1061 14.5098 11.1061 14.4583 11.1061V12.0001C15.5585 12.0001 16.4697 11.1061 16.4697 9.98867Z" fill="#1C1C1C"/>
<path d="M13.324 9.98833C13.324 10.6072 13.8225 11.1058 14.4414 11.1058V10.2978C14.2695 10.2978 14.1148 10.1603 14.1148 9.97114C14.1148 9.79922 14.2523 9.64449 14.4414 9.64449V8.83649C13.8225 8.87087 13.324 9.36942 13.324 9.98833Z" fill="#FFDF5A"/>
<path d="M14.4583 9.66191C14.6302 9.66191 14.7849 9.79943 14.7849 9.98854C14.7849 10.1605 14.6474 10.3152 14.4583 10.3152V11.1232C14.4926 11.1232 14.527 11.1232 14.5786 11.1232C15.1459 11.0716 15.5929 10.5903 15.5929 10.0057C15.5929 9.42122 15.1459 8.93985 14.5786 8.88828C14.5442 8.88828 14.5098 8.88828 14.4583 8.88828V9.66191Z" fill="#EAB828"/>
<path d="M14.1318 9.98834C14.1318 10.1603 14.2694 10.315 14.4585 10.315V9.67889C14.2694 9.6617 14.1318 9.81642 14.1318 9.98834Z" fill="#E54B42"/>
<path d="M14.7678 9.98853C14.7678 9.81662 14.6303 9.6619 14.4412 9.6619V10.298C14.6303 10.3152 14.7678 10.1605 14.7678 9.98853Z" fill="#B7281D"/>
<path d="M2.56147 9.98843C2.56147 9.40391 2.80216 8.87097 3.18038 8.47556H0.223389L0.670375 9.98843H2.56147Z" fill="#EAB828"/>
<path d="M16.6069 9.98843H18.9794L19.2373 8.47556H15.988C16.3663 8.87097 16.6069 9.40391 16.6069 9.98843Z" fill="#EAB828"/>
<path d="M6.85977 9.98843H12.2924C12.2924 9.40391 12.5331 8.87097 12.9113 8.47556H6.25806C6.63628 8.87097 6.85977 9.40391 6.85977 9.98843Z" fill="#EAB828"/>
<path d="M15.2835 4.12603L15.2148 3.7822H14.4411L13.7534 0.412608H14.5271L14.4411 0H0L0.206302 8.47556H3.1461C3.54151 8.08015 4.07446 7.82227 4.67617 7.82227C5.27789 7.82227 5.82802 8.06296 6.20624 8.47556H12.8595C13.2549 8.08015 13.7878 7.82227 14.3895 7.82227C14.9913 7.82227 15.5414 8.06296 15.9196 8.47556H19.1689V4.98562L15.2835 4.12603Z" fill="#FFDF5A"/>
<path d="M14.441 3.78204H15.2146L14.8364 1.95972H14.0627L14.441 3.78204Z" fill="#1C1C1C"/>
<path d="M13.1516 1.95972H9.57568V3.78204H13.1516V1.95972Z" fill="#1C1C1C"/>
<path d="M8.93893 1.95996H5.36304V3.78229H8.93893V1.95996Z" fill="#1C1C1C"/>
<path d="M4.72726 1.95996H1.15137V3.78229H4.72726V1.95996Z" fill="#1C1C1C"/>
<path d="M13.7527 0.412689L14.0621 1.95995H14.8358L14.5263 0.412689H13.7527Z" fill="#595858"/>
<path d="M13.1516 0.412476H9.57568V1.95974H13.1516V0.412476Z" fill="#595858"/>
<path d="M8.93893 0.412689H5.36304V1.95995H8.93893V0.412689Z" fill="#595858"/>
<path d="M4.72726 0.412689H1.15137V1.95995H4.72726V0.412689Z" fill="#595858"/>
<path d="M0.155029 5.34677H17.6391V6.87685L0.189413 6.91123L0.155029 5.34677Z" fill="#EAB828"/>
<path d="M16.0741 2.61314C16.0741 2.80225 15.9194 2.95697 15.7303 2.95697C15.5412 2.95697 15.3865 2.80225 15.3865 2.61314V0.670466C15.3865 0.481356 15.5412 0.32663 15.7303 0.32663C15.9194 0.32663 16.0741 0.481356 16.0741 0.670466V2.61314Z" fill="#1C1C1C"/>
</svg>
