<svg width="14" height="14" viewBox="0 0 14 14" fill="none" xmlns="http://www.w3.org/2000/svg">
<g id="circum:view-list">
<path id="Vector" d="M10.7543 12.2136H3.24447C2.85769 12.2136 2.48676 12.06 2.21327 11.7865C1.93978 11.513 1.78613 11.142 1.78613 10.7553V3.24544C1.78613 2.85867 1.93978 2.48774 2.21327 2.21425C2.48676 1.94075 2.85769 1.78711 3.24447 1.78711H10.7543C11.1411 1.78711 11.512 1.94075 11.7855 2.21425C12.059 2.48774 12.2126 2.85867 12.2126 3.24544V10.7553C12.2126 11.142 12.059 11.513 11.7855 11.7865C11.512 12.06 11.1411 12.2136 10.7543 12.2136ZM3.24447 2.37044C3.0124 2.37044 2.78984 2.46263 2.62575 2.62672C2.46165 2.79082 2.36947 3.01338 2.36947 3.24544V10.7553C2.36947 10.9873 2.46165 11.2099 2.62575 11.374C2.78984 11.5381 3.0124 11.6303 3.24447 11.6303H10.7543C10.9864 11.6303 11.2089 11.5381 11.373 11.374C11.5371 11.2099 11.6293 10.9873 11.6293 10.7553V3.24544C11.6293 3.01338 11.5371 2.79082 11.373 2.62672C11.2089 2.46263 10.9864 2.37044 10.7543 2.37044H3.24447Z" fill="black"/>
<path id="Vector_2" d="M3.81736 4.83157C3.74031 4.83024 3.66667 4.79957 3.61144 4.74582C3.55677 4.69112 3.52605 4.61695 3.52605 4.53961C3.52605 4.46227 3.55677 4.3881 3.61144 4.3334C3.66653 4.27951 3.74031 4.249 3.81736 4.24824H4.4042C4.4812 4.24924 4.5549 4.27972 4.61011 4.3334C4.63728 4.36049 4.65885 4.39268 4.67356 4.42811C4.68827 4.46354 4.69585 4.50153 4.69586 4.5399C4.69586 4.61726 4.66513 4.69145 4.61043 4.74614C4.55574 4.80084 4.48155 4.83157 4.4042 4.83157H3.81736ZM3.81736 7.29149C3.74044 7.29008 3.66689 7.25966 3.61144 7.20632C3.58428 7.17923 3.56273 7.14704 3.54803 7.11161C3.53333 7.07617 3.52576 7.03818 3.52576 6.99982C3.52576 6.96146 3.53333 6.92347 3.54803 6.88803C3.56273 6.8526 3.58428 6.82041 3.61144 6.79332C3.66666 6.73963 3.74036 6.70915 3.81736 6.70815H4.4042C4.48114 6.70945 4.55473 6.73988 4.61011 6.79332C4.63727 6.82041 4.65882 6.8526 4.67353 6.88803C4.68823 6.92347 4.6958 6.96146 4.6958 6.99982C4.6958 7.03818 4.68823 7.07617 4.67353 7.11161C4.65882 7.14704 4.63727 7.17923 4.61011 7.20632C4.5549 7.26001 4.4812 7.29049 4.4042 7.29149H3.81736ZM3.81736 9.75315C3.74031 9.75182 3.66667 9.72115 3.61144 9.6674C3.55677 9.61271 3.52605 9.53854 3.52605 9.4612C3.52605 9.38386 3.55677 9.30968 3.61144 9.25499C3.66666 9.2013 3.74036 9.17082 3.81736 9.16982H4.4042C4.4812 9.17082 4.5549 9.2013 4.61011 9.25499C4.63728 9.28208 4.65885 9.31426 4.67356 9.34969C4.68827 9.38513 4.69585 9.42312 4.69586 9.46149C4.69586 9.53884 4.66513 9.61303 4.61043 9.66773C4.55574 9.72242 4.48155 9.75315 4.4042 9.75315H3.81736ZM6.15653 4.8304C6.07917 4.8304 6.00499 4.79967 5.95029 4.74498C5.89559 4.69028 5.86486 4.61609 5.86486 4.53874C5.86486 4.46138 5.89559 4.3872 5.95029 4.3325C6.00499 4.2778 6.07917 4.24707 6.15653 4.24707H10.1815C10.2589 4.24707 10.3331 4.2778 10.3878 4.3325C10.4425 4.3872 10.4732 4.46138 10.4732 4.53874C10.4732 4.61609 10.4425 4.69028 10.3878 4.74498C10.3331 4.79967 10.2589 4.8304 10.1815 4.8304H6.15653ZM6.15653 7.29149C6.07917 7.29149 6.00499 7.26076 5.95029 7.20606C5.89559 7.15136 5.86486 7.07718 5.86486 6.99982C5.86486 6.92247 5.89559 6.84828 5.95029 6.79358C6.00499 6.73888 6.07917 6.70815 6.15653 6.70815H10.1815C10.2589 6.70815 10.3331 6.73888 10.3878 6.79358C10.4425 6.84828 10.4732 6.92247 10.4732 6.99982C10.4732 7.07718 10.4425 7.15136 10.3878 7.20606C10.3331 7.26076 10.2589 7.29149 10.1815 7.29149H6.15653ZM6.15653 9.75199C6.07917 9.75199 6.00499 9.72126 5.95029 9.66656C5.89559 9.61186 5.86486 9.53768 5.86486 9.46032C5.86486 9.38297 5.89559 9.30878 5.95029 9.25408C6.00499 9.19938 6.07917 9.16865 6.15653 9.16865H10.1815C10.2589 9.16865 10.3331 9.19938 10.3878 9.25408C10.4425 9.30878 10.4732 9.38297 10.4732 9.46032C10.4732 9.53768 10.4425 9.61186 10.3878 9.66656C10.3331 9.72126 10.2589 9.75199 10.1815 9.75199H6.15653Z" fill="black"/>
</g>
</svg>
