<svg width="24" height="24" viewBox="0 0 24 24" fill="none" xmlns="http://www.w3.org/2000/svg">
<g id="material-symbols:arrow-drop-up-rounded">
<path id="Vector" d="M12 13.8301L14.8105 16.6405C15.0501 16.8802 15.3551 17 15.7255 17C16.0959 17 16.4009 16.8802 16.6405 16.6405C16.8802 16.4009 17 16.0959 17 15.7255C17 15.3551 16.8802 15.0501 16.6405 14.8105L13.8301 12L16.6405 9.18954C16.8802 8.94989 17 8.64488 17 8.27451C17 7.90414 16.8802 7.59913 16.6405 7.35948C16.4009 7.11983 16.0959 7 15.7255 7C15.3551 7 15.0501 7.11983 14.8105 7.35948L12 10.1699L9.18954 7.35948C8.94989 7.11983 8.64488 7 8.27451 7C7.90414 7 7.59913 7.11983 7.35948 7.35948C7.11983 7.59913 7 7.90414 7 8.27451C7 8.64488 7.11983 8.94989 7.35948 9.18954L10.1699 12L7.35948 14.8105C7.11983 15.0501 7 15.3551 7 15.7255C7 16.0959 7.11983 16.4009 7.35948 16.6405C7.59913 16.8802 7.90414 17 8.27451 17C8.64488 17 8.94989 16.8802 9.18954 16.6405L12 13.8301Z" fill="url(#paint0_linear_234_19022)"/>
</g>
<defs>
<linearGradient id="paint0_linear_234_19022" x1="12" y1="7" x2="12" y2="17" gradientUnits="userSpaceOnUse">
<stop stop-color="#FF6B00"/>
<stop offset="1" stop-color="#FFC700"/>
</linearGradient>
</defs>
</svg>
