<svg width="14" height="13" viewBox="0 0 14 13" fill="none" xmlns="http://www.w3.org/2000/svg">
<path d="M1.33374 5.75161V9.77684C1.33374 9.99424 1.51039 10.1707 1.72797 10.1707H5.75637V8.72855C5.88778 8.80389 6.03858 8.84909 6.20015 8.84909C6.67623 8.84909 7.07908 8.45734 7.08985 7.98163C7.10277 7.48224 6.69993 7.0711 6.2023 7.0711C6.04073 7.0711 5.88778 7.11631 5.75637 7.19165V5.74945H1.33374V5.75161Z" fill="#EC3894"/>
<path d="M5.75638 1.33276H1.72797C1.51039 1.33276 1.33374 1.50927 1.33374 1.72668V5.75191H2.77707C2.70168 5.88321 2.65644 6.03388 2.65644 6.19747C2.65644 6.67318 3.04851 7.07571 3.5246 7.08648C4.02438 7.09939 4.43583 6.69686 4.43583 6.19963C4.43583 6.03819 4.3906 5.88537 4.3152 5.75406H5.75853V1.33276H5.75638Z" fill="#973192"/>
<path d="M10.1796 5.7518H8.73628C8.81168 5.6205 8.85692 5.46982 8.85692 5.30623C8.85692 4.83052 8.46484 4.428 7.99091 4.41724C7.49113 4.40647 7.07968 4.80684 7.07968 5.30623C7.07968 5.46767 7.12491 5.6205 7.20031 5.7518H5.75698V4.30961C5.62557 4.3871 5.47477 4.43015 5.31105 4.43015C4.81342 4.43015 4.41058 4.02117 4.42135 3.51963C4.43428 3.04392 4.83497 2.65216 5.31105 2.65216C5.47262 2.65216 5.62342 2.69736 5.75483 2.7727V1.33051H9.78323C10.0008 1.33051 10.1775 1.50701 10.1775 1.72442V5.7518H10.1796Z" fill="#55B6E7"/>
<path d="M10.1782 4.30956C10.3096 4.38706 10.4604 4.4301 10.622 4.4301C11.098 4.4301 11.5009 4.03834 11.5116 3.56263C11.5224 3.06325 11.1196 2.65427 10.622 2.65427C10.4604 2.65427 10.3074 2.69947 10.176 2.77481V4.30956H10.1782Z" fill="#55B6E7"/>
<path d="M1.33368 2.77481C1.20227 2.69732 1.05148 2.65427 0.889909 2.65427C0.413824 2.65427 0.0109822 3.04603 0.000211083 3.52174C-0.0105601 4.02112 0.392282 4.43226 0.889909 4.43226C1.05148 4.43226 1.20443 4.38705 1.33583 4.31171V2.77481H1.33368Z" fill="#973192"/>
<path d="M1.33368 7.194C1.20227 7.11651 1.05148 7.07346 0.889909 7.07346C0.413824 7.07346 0.0109822 7.46521 0.000211083 7.94092C-0.0105601 8.44031 0.392282 8.85145 0.889909 8.85145C1.05148 8.85145 1.20443 8.80624 1.33583 8.7309V7.194H1.33368Z" fill="#EC3894"/>
<path d="M8.73542 1.33263C8.81297 1.20133 8.85606 1.05065 8.85606 0.889207C8.85606 0.413498 8.46399 0.0109736 7.9879 0.000210916C7.48812 -0.0105517 7.07666 0.391972 7.07666 0.889207C7.07666 1.05065 7.1219 1.20347 7.1973 1.33478H8.73542V1.33263Z" fill="#55B6E7"/>
<path d="M4.31232 1.33263C4.38987 1.20133 4.43296 1.05065 4.43296 0.889207C4.43296 0.413498 4.04089 0.0109736 3.5648 0.000210916C3.06502 -0.0105517 2.65356 0.391972 2.65356 0.889207C2.65356 1.05065 2.69881 1.20347 2.7742 1.33478H4.31232V1.33263Z" fill="#973192"/>
<path d="M2.77713 10.1688C2.69958 10.3001 2.65649 10.4508 2.65649 10.6122C2.65649 11.0879 3.04857 11.4905 3.52465 11.5012C4.02443 11.512 4.43588 11.1095 4.43588 10.6122C4.43588 10.4508 4.39065 10.298 4.31525 10.1667H2.77713V10.1688Z" fill="#EC3894"/>
<path d="M4.41712 7.54064C4.41712 7.65257 4.32664 7.74513 4.21246 7.74513C4.10044 7.74513 4.00781 7.65473 4.00781 7.54064C4.00781 7.42871 4.09829 7.33615 4.21246 7.33615C4.32664 7.33615 4.41712 7.42871 4.41712 7.54064Z" fill="#CB1D56"/>
<path d="M5.15808 7.54064C5.15808 7.65257 5.06761 7.74513 4.95343 7.74513C4.84141 7.74513 4.74878 7.65473 4.74878 7.54064C4.74878 7.42871 4.83926 7.33615 4.95343 7.33615C5.06545 7.33615 5.15808 7.42871 5.15808 7.54064Z" fill="#CB1D56"/>
<path d="M4.41712 8.3995C4.41712 8.51143 4.32664 8.60399 4.21246 8.60399C4.10044 8.60399 4.00781 8.51358 4.00781 8.3995C4.00781 8.28757 4.09829 8.19501 4.21246 8.19501C4.32664 8.19501 4.41712 8.28541 4.41712 8.3995Z" fill="#CB1D56"/>
<path d="M5.15808 8.3995C5.15808 8.51143 5.06761 8.60399 4.95343 8.60399C4.84141 8.60399 4.74878 8.51358 4.74878 8.3995C4.74878 8.28757 4.83926 8.19501 4.95343 8.19501C5.06545 8.19501 5.15808 8.28541 5.15808 8.3995Z" fill="#CB1D56"/>
<path d="M4.41712 9.25832C4.41712 9.37025 4.32664 9.46281 4.21246 9.46281C4.10044 9.46281 4.00781 9.37241 4.00781 9.25832C4.00781 9.14639 4.09829 9.05383 4.21246 9.05383C4.32664 9.05383 4.41712 9.14424 4.41712 9.25832Z" fill="#CB1D56"/>
<path d="M5.15808 9.25832C5.15808 9.37025 5.06761 9.46281 4.95343 9.46281C4.84141 9.46281 4.74878 9.37241 4.74878 9.25832C4.74878 9.14639 4.83926 9.05383 4.95343 9.05383C5.06545 9.05383 5.15808 9.14424 5.15808 9.25832Z" fill="#CB1D56"/>
<path d="M4.78717 1.88792C4.67515 1.88792 4.58252 1.79752 4.58252 1.68343C4.58252 1.5715 4.673 1.47894 4.78717 1.47894C4.89919 1.47894 4.99182 1.56935 4.99182 1.68343C4.99182 1.79752 4.89919 1.88792 4.78717 1.88792Z" fill="#65246B"/>
<path d="M4.78717 2.62855C4.67515 2.62855 4.58252 2.53815 4.58252 2.42406C4.58252 2.31213 4.673 2.21957 4.78717 2.21957C4.89919 2.21957 4.99182 2.30998 4.99182 2.42406C4.99182 2.536 4.89919 2.62855 4.78717 2.62855Z" fill="#65246B"/>
<path d="M3.92828 1.88792C3.81626 1.88792 3.72363 1.79752 3.72363 1.68343C3.72363 1.5715 3.81411 1.47894 3.92828 1.47894C4.0403 1.47894 4.13294 1.56935 4.13294 1.68343C4.13294 1.79752 4.04246 1.88792 3.92828 1.88792Z" fill="#65246B"/>
<path d="M3.92828 2.62855C3.81626 2.62855 3.72363 2.53815 3.72363 2.42406C3.72363 2.31213 3.81411 2.21957 3.92828 2.21957C4.0403 2.21957 4.13294 2.30998 4.13294 2.42406C4.13294 2.536 4.04246 2.62855 3.92828 2.62855Z" fill="#65246B"/>
<path d="M3.07013 1.88795C2.95811 1.88795 2.86548 1.79755 2.86548 1.68346C2.86548 1.57153 2.95596 1.47897 3.07013 1.47897C3.18215 1.47897 3.27478 1.56938 3.27478 1.68346C3.27263 1.79755 3.18215 1.88795 3.07013 1.88795Z" fill="#65246B"/>
<path d="M3.07037 2.62855C2.95835 2.62855 2.86572 2.53815 2.86572 2.42406C2.86572 2.31213 2.9562 2.21957 3.07037 2.21957C3.18239 2.21957 3.27503 2.30998 3.27503 2.42406C3.27287 2.536 3.18239 2.62855 3.07037 2.62855Z" fill="#65246B"/>
<path d="M6.55969 2.25829C6.55969 2.37022 6.46922 2.46278 6.35504 2.46278C6.24302 2.46278 6.15039 2.37238 6.15039 2.25829C6.15039 2.14636 6.24087 2.0538 6.35504 2.0538C6.46922 2.0538 6.55969 2.14636 6.55969 2.25829Z" fill="#3F71B7"/>
<path d="M7.30066 2.25829C7.30066 2.37022 7.21018 2.46278 7.09601 2.46278C6.98399 2.46278 6.89136 2.37238 6.89136 2.25829C6.89136 2.14636 6.98184 2.0538 7.09601 2.0538C7.20803 2.0538 7.30066 2.14636 7.30066 2.25829Z" fill="#3F71B7"/>
<path d="M6.55969 3.11715C6.55969 3.22908 6.46922 3.32164 6.35504 3.32164C6.24302 3.32164 6.15039 3.23123 6.15039 3.11715C6.15039 3.00522 6.24087 2.91266 6.35504 2.91266C6.46922 2.91266 6.55969 3.00306 6.55969 3.11715Z" fill="#3F71B7"/>
<path d="M7.30066 3.11715C7.30066 3.22908 7.21018 3.32164 7.09601 3.32164C6.98399 3.32164 6.89136 3.23123 6.89136 3.11715C6.89136 3.00522 6.98184 2.91266 7.09601 2.91266C7.20803 2.91266 7.30066 3.00306 7.30066 3.11715Z" fill="#3F71B7"/>
<path d="M6.55969 3.97372C6.55969 4.08565 6.46922 4.17821 6.35504 4.17821C6.24302 4.17821 6.15039 4.0878 6.15039 3.97372C6.15039 3.86178 6.24087 3.76923 6.35504 3.76923C6.46922 3.77138 6.55969 3.86178 6.55969 3.97372Z" fill="#3F71B7"/>
<path d="M7.30066 3.97372C7.30066 4.08565 7.21018 4.17821 7.09601 4.17821C6.98399 4.17821 6.89136 4.0878 6.89136 3.97372C6.89136 3.86178 6.98184 3.76923 7.09601 3.76923C7.20803 3.77138 7.30066 3.86178 7.30066 3.97372Z" fill="#3F71B7"/>
<path d="M3.6922 8.25952C3.6922 8.86223 3.20319 9.35085 2.60001 9.35085C1.99682 9.35085 1.50781 8.86223 1.50781 8.25952C1.50781 7.65681 1.99682 7.16818 2.60001 7.16818C3.20319 7.16818 3.6922 7.65681 3.6922 8.25952Z" fill="#E4E4E4"/>
<path d="M2.98176 8.19701C3.08086 8.12167 3.13902 8.01189 3.13902 7.88919C3.13902 7.76004 3.08948 7.65457 2.99469 7.58354C2.89344 7.50174 2.75988 7.46515 2.55954 7.46515C2.43459 7.46515 2.29887 7.47806 2.2084 7.49528L2.15454 7.50604V9.02573L2.2127 9.03434C2.2601 9.0408 2.36134 9.05156 2.50783 9.05156C2.76419 9.05156 2.93437 9.0042 3.0507 8.89873C3.14549 8.80832 3.19288 8.69424 3.19288 8.56294C3.19288 8.38643 3.09594 8.26589 2.98176 8.19701ZM2.57462 8.08076H2.47552V7.74712C2.50352 7.74497 2.53369 7.74282 2.57031 7.74282C2.81589 7.74282 2.81589 7.86336 2.81589 7.90856C2.81589 8.01404 2.72326 8.08076 2.57462 8.08076ZM2.86113 8.56294C2.86113 8.73729 2.69956 8.77173 2.56169 8.77173C2.52722 8.77173 2.49922 8.77173 2.47552 8.76957V8.35414H2.55954C2.67156 8.35629 2.86113 8.38213 2.86113 8.56294Z" fill="#3B3F39"/>
<path d="M3.80011 4.09878C3.80011 4.70149 3.3111 5.19011 2.70792 5.19011C2.10473 5.19011 1.61572 4.70149 1.61572 4.09878C1.61572 3.49607 2.10473 3.00745 2.70792 3.00745C3.31325 3.0096 3.80011 3.49822 3.80011 4.09878Z" fill="#E4E4E4"/>
<path d="M9.83698 2.77477C9.83698 3.37748 9.34797 3.8661 8.74478 3.8661C8.1416 3.8661 7.65259 3.37748 7.65259 2.77477C7.65259 2.17206 8.1416 1.68344 8.74478 1.68344C9.34797 1.68344 9.83698 2.17206 9.83698 2.77477Z" fill="#E4E4E4"/>
<path d="M2.86967 3.2439H2.5487L2.0166 4.80878H2.35266L2.5013 4.3589H2.91061L3.06355 4.80878H3.40392L2.86967 3.2439ZM2.7038 3.72391C2.70811 3.73467 2.82444 4.07907 2.82444 4.07907H2.58316C2.58316 4.07907 2.70164 3.73467 2.7038 3.72391Z" fill="#3B3F39"/>
<path d="M9.10389 3.23549C9.03711 3.26778 8.93155 3.28715 8.83245 3.28715C8.53086 3.28715 8.35206 3.09773 8.35206 2.78131C8.35206 2.45412 8.53517 2.26039 8.84107 2.26039C8.97248 2.26039 9.05865 2.29268 9.09958 2.31206L9.17282 2.34649L9.25684 2.06452L9.20729 2.03869C9.16636 2.01716 9.04788 1.96765 8.83676 1.96765C8.35637 1.96765 8.02246 2.30345 8.02246 2.78561C8.02246 3.26563 8.32621 3.57559 8.79798 3.57559C8.98756 3.57559 9.13405 3.53684 9.20514 3.50025L9.25468 3.47657L9.18144 3.19674L9.10389 3.23549Z" fill="#3B3F39"/>
<path d="M12.4702 10.2117C12.5736 10.3215 12.7072 10.4076 12.8623 10.4528C13.319 10.5862 13.8145 10.3215 13.9588 9.86728C14.1096 9.38942 13.836 8.88574 13.3599 8.74582C13.2048 8.70062 13.0454 8.70061 12.8989 8.7372L12.4702 10.2117Z" fill="#5BB947"/>
<path d="M10.6466 11.1847C10.6833 11.3311 10.6833 11.4904 10.6402 11.6454C10.5066 12.1017 10.0198 12.3794 9.55875 12.2567C9.07405 12.1275 8.79399 11.6281 8.93186 11.1503C8.9771 10.9953 9.06112 10.8619 9.17314 10.7564L10.6466 11.1847Z" fill="#5BB947"/>
<path d="M10.4061 6.51361C10.3695 6.36724 10.3695 6.20795 10.4147 6.05297C10.5483 5.59664 11.0351 5.31896 11.4962 5.44165C11.9809 5.5708 12.2609 6.07019 12.123 6.54805C12.0778 6.70304 11.9938 6.83649 11.8818 6.94196L10.4061 6.51361Z" fill="#5BB947"/>
<path d="M9.05541 6.1217L8.65257 7.50579C8.79906 7.46919 8.95848 7.46919 9.11358 7.51439C9.57028 7.6457 9.84817 8.13433 9.72538 8.59497C9.59613 9.07929 9.09635 9.35911 8.61811 9.22135C8.46301 9.17614 8.32944 9.0922 8.22388 8.98242L7.82104 10.3665L11.69 11.488C11.899 11.5482 12.1166 11.4277 12.179 11.2189L13.3014 7.35296L9.05541 6.1217Z" fill="#5BB947"/>
<path d="M11.6302 10.0932C11.4622 10.6722 10.8568 11.0037 10.2773 10.8358C9.69785 10.6679 9.3661 10.0631 9.53413 9.48405C9.70216 8.90502 10.3075 8.57353 10.887 8.74143C11.4643 8.90933 11.7982 9.51418 11.6302 10.0932Z" fill="#E4E4E4"/>
<path d="M12.2333 7.9194C12.1256 7.88711 12.0631 7.77518 12.0933 7.66541C12.1256 7.55778 12.2376 7.49536 12.3475 7.52549C12.4552 7.55778 12.5177 7.66971 12.4875 7.77948C12.4552 7.88711 12.341 7.94953 12.2333 7.9194Z" fill="#2C9B47"/>
<path d="M12.0253 8.62976C11.9176 8.59747 11.8551 8.48554 11.8853 8.37576C11.9176 8.26814 12.0296 8.20571 12.1395 8.23585C12.2472 8.26814 12.3097 8.38006 12.2795 8.48984C12.2472 8.59747 12.133 8.65989 12.0253 8.62976Z" fill="#2C9B47"/>
<path d="M11.4074 7.68046C11.2997 7.64817 11.2372 7.53623 11.2673 7.42645C11.2997 7.31883 11.4117 7.2564 11.5215 7.28654C11.6293 7.31883 11.6917 7.43076 11.6616 7.54054C11.6293 7.64817 11.5151 7.71059 11.4074 7.68046Z" fill="#2C9B47"/>
<path d="M11.2006 8.38859C11.0929 8.3563 11.0304 8.24436 11.0606 8.13458C11.0929 8.02696 11.2049 7.96453 11.3148 7.99467C11.4225 8.02696 11.4849 8.13889 11.4548 8.24867C11.4225 8.35845 11.3083 8.42088 11.2006 8.38859Z" fill="#2C9B47"/>
<path d="M10.5827 7.43924C10.475 7.40695 10.4125 7.29502 10.4426 7.18524C10.475 7.07762 10.587 7.01519 10.6968 7.04533C10.8046 7.07762 10.867 7.18954 10.8369 7.29932C10.8046 7.4091 10.6904 7.47152 10.5827 7.43924Z" fill="#2C9B47"/>
<path d="M10.3756 8.14959C10.2679 8.11731 10.2055 8.00538 10.2356 7.8956C10.2679 7.78797 10.3799 7.72555 10.4898 7.75568C10.5975 7.78797 10.66 7.8999 10.6298 8.00968C10.5975 8.11946 10.4833 8.18188 10.3756 8.14959Z" fill="#2C9B47"/>
<path d="M10.2985 8.96973L9.9043 10.3258H9.9086L9.94953 10.3624C10.0099 10.4184 10.137 10.4959 10.3201 10.5475C10.7725 10.6788 11.1516 10.4657 11.2852 10.0029C11.4187 9.54015 11.1925 9.12255 10.7315 8.9891C10.529 8.93098 10.4019 8.94604 10.3545 8.95465L10.2985 8.96973ZM10.3631 10.2612C10.3308 10.2526 10.2985 10.2397 10.2662 10.2268L10.5484 9.25171C10.5764 9.25601 10.6066 9.26247 10.6389 9.27108C10.934 9.35718 11.0547 9.59396 10.9642 9.90823C10.878 10.2139 10.6518 10.3452 10.3631 10.2612Z" fill="#3B3F39"/>
</svg>
