<svg width="24" height="24" viewBox="0 0 24 24" fill="none" xmlns="http://www.w3.org/2000/svg">
<g id="material-symbols:edit-square-outline-rounded">
<path id="Vector" d="M7.16931 18.0002C6.84775 18.0002 6.57238 17.8858 6.34319 17.6571C6.11401 17.4283 5.99961 17.1529 6 16.8309V8.6458C6 8.32424 6.11459 8.04887 6.34378 7.81968C6.57296 7.5905 6.84814 7.4761 7.16931 7.47649H12.3873L11.218 8.6458H7.16931V16.8309H15.3544V12.7676L16.5238 11.5983V16.8309C16.5238 17.1525 16.4092 17.4279 16.18 17.6571C15.9508 17.8862 15.6756 18.0006 15.3544 18.0002H7.16931ZM13.7028 7.81267L14.5359 8.63118L10.6772 12.4899V13.323H11.4957L15.3691 9.4497L16.2022 10.2682L12.3289 14.1415C12.2217 14.2487 12.0973 14.3341 11.9559 14.3976C11.8144 14.4611 11.6659 14.4927 11.5104 14.4923H10.0926C9.92692 14.4923 9.78797 14.4362 9.67571 14.3239C9.56346 14.2117 9.50753 14.0729 9.50792 13.9077V12.4899C9.50792 12.334 9.53715 12.1853 9.59562 12.0438C9.65408 11.9023 9.73691 11.7782 9.84409 11.6714L13.7028 7.81267ZM16.2022 10.2682L13.7028 7.81267L15.1644 6.35104C15.3983 6.11717 15.6785 6.00024 16.0052 6.00024C16.3318 6.00024 16.607 6.11717 16.8307 6.35104L17.6492 7.18417C17.8733 7.40828 17.9854 7.68112 17.9854 8.00268C17.9854 8.32424 17.8733 8.59708 17.6492 8.82119L16.2022 10.2682Z" fill="url(#paint0_linear_234_19020)"/>
</g>
<defs>
<linearGradient id="paint0_linear_234_19020" x1="11.9927" y1="6.00024" x2="11.9927" y2="18.0002" gradientUnits="userSpaceOnUse">
<stop stop-color="#FF6B00"/>
<stop offset="1" stop-color="#FFC700"/>
</linearGradient>
</defs>
</svg>
