<svg width="12" height="12" viewBox="0 0 12 12" fill="none" xmlns="http://www.w3.org/2000/svg">
<path d="M10 10.25H2C1.45 10.25 1 9.8 1 9.25V4.025C1 3.7 1.15 3.4 1.425 3.2L6 0L10.575 3.2C10.85 3.375 11 3.7 11 4.025V9.25C11 9.8 10.55 10.25 10 10.25Z" fill="#78909C"/>
<path d="M3.5 0.25H8.5V8H3.5V0.25Z" fill="#AED581"/>
<path d="M3.25 0V8.25H8.75V0H3.25ZM8.25 7.75H3.75V0.5H8.25V7.75Z" fill="#558B2F"/>
<path d="M8.5 0.75C8.5 1.175 8.425 1.5 8 1.5C7.575 1.5 7.25 1.175 7.25 0.75C7.25 0.325 7.575 0.25 8 0.25C8.425 0.25 8.5 0.325 8.5 0.75ZM4 0.25C4.425 0.25 4.75 0.325 4.75 0.75C4.75 1.175 4.425 1.5 4 1.5C3.575 1.5 3.5 1.175 3.5 0.75C3.5 0.325 3.575 0.25 4 0.25Z" fill="#558B2F"/>
<path d="M6 2.5C6.27614 2.5 6.5 2.27614 6.5 2C6.5 1.72386 6.27614 1.5 6 1.5C5.72386 1.5 5.5 1.72386 5.5 2C5.5 2.27614 5.72386 2.5 6 2.5Z" fill="#558B2F"/>
<path d="M6 6.5C6.82843 6.5 7.5 5.82843 7.5 5C7.5 4.17157 6.82843 3.5 6 3.5C5.17157 3.5 4.5 4.17157 4.5 5C4.5 5.82843 5.17157 6.5 6 6.5Z" fill="#558B2F"/>
<path d="M10 10.25H2C1.45 10.25 1 9.8 1 9.25V4.25L6 7.5L11 4.25V9.25C11 9.8 10.55 10.25 10 10.25Z" fill="#CFD8DC"/>
</svg>
