<svg width="78" height="60" viewBox="0 0 78 60" fill="none" xmlns="http://www.w3.org/2000/svg">
<g id="Frame" clip-path="url(#clip0_234_20538)">
<g id="Group">
<g id="Group_2">
<g id="Group_3">
<path id="Vector" d="M55.5519 0C46.1058 0 38.5714 6.64207 38.5714 12.952C38.5714 6.75277 30.9246 0 21.591 0C12.145 0 4.6106 7.52768 4.6106 16.8266C4.6106 41.7343 38.6839 60 38.6839 60C38.6839 60 72.7572 41.7343 72.7572 16.8266C72.6448 7.52768 64.9979 0 55.5519 0Z" fill="#F75F3C"/>
<path id="Vector_2" d="M55.552 0C46.1059 0 38.5715 6.64207 38.5715 12.952H47.0055L38.5715 19.262V60C38.5715 60 72.6448 41.7343 72.6448 16.8266C72.6448 7.52768 64.998 0 55.552 0Z" fill="#C93218"/>
<path id="Vector_3" d="M21.5914 0C13.4948 0 6.86004 5.53505 5.06079 12.952H38.5718C38.5718 6.75277 30.925 0 21.5914 0Z" fill="#FF9A9A"/>
<path id="Vector_4" d="M38.5718 55.1289C31.5997 50.9223 8.77173 35.6455 8.77173 16.8263C8.77173 9.85216 14.5068 4.0957 21.5914 4.0957C29.0133 4.0957 34.411 9.29866 34.411 12.8411H42.845C42.845 8.85585 48.5801 4.0957 55.6647 4.0957C62.7492 4.0957 68.4844 9.74146 68.4844 16.8263C68.3719 35.7562 45.5439 50.9223 38.5718 55.1289Z" fill="#F75F3C"/>
</g>
<path id="Vector_5" d="M72.6448 16.8266C72.6448 7.52768 64.998 0 55.552 0C46.1059 0 38.5715 6.64207 38.5715 12.952V60C38.5715 60 72.6448 41.7343 72.6448 16.8266Z" fill="#FF9A9A"/>
</g>
<g id="Group_4">
<path id="Vector_6" d="M41.945 46.3837L35.7601 35.3136L30.2499 46.0516L24.065 31.7711L19.0046 43.5055H0V39.963H16.5306L24.065 22.583L30.5873 37.4169L35.6476 27.4538L41.0454 37.0848L49.5918 10.0737L57.0137 39.963H77.1429V43.5055H54.09L49.142 23.5793L41.945 46.3837Z" fill="#FFD8B8"/>
<path id="Vector_7" d="M19.0046 43.5054L24.065 31.7711L30.2499 46.0515L35.7601 35.3135L41.945 46.3836L49.142 23.5792L54.09 43.5054H77.1429V41.7342H55.5519L49.3669 16.8264L41.4952 41.7342L35.6476 31.3283L30.3624 41.7342L24.065 27.2323L17.7676 41.7342H0V43.5054H19.0046Z" fill="#3C43E8"/>
</g>
</g>
</g>
<defs>
<clipPath id="clip0_234_20538">
<rect width="77.1429" height="60" fill="white"/>
</clipPath>
</defs>
</svg>
