<svg width="16" height="12" viewBox="0 0 16 12" fill="none" xmlns="http://www.w3.org/2000/svg">
<g clip-path="url(#clip0_4_4520)">
<path d="M11.1104 0C9.22116 0 7.71429 1.32841 7.71429 2.59041C7.71429 1.35055 6.18493 0 4.3182 0C2.42899 0 0.922119 1.50554 0.922119 3.36531C0.922119 8.34686 7.73678 12 7.73678 12C7.73678 12 14.5514 8.34686 14.5514 3.36531C14.5289 1.50554 12.9996 0 11.1104 0Z" fill="#F75F3C"/>
<path d="M11.1104 0C9.22123 0 7.71436 1.32841 7.71436 2.59041H9.40115L7.71436 3.8524V12C7.71436 12 14.529 8.34686 14.529 3.36531C14.529 1.50554 12.9997 0 11.1104 0Z" fill="#C93218"/>
<path d="M4.31809 0C2.69876 0 1.37181 1.10701 1.01196 2.59041H7.71417C7.71417 1.35055 6.18481 0 4.31809 0Z" fill="#FF9A9A"/>
<path d="M7.71441 11.0258C6.31999 10.1845 1.75439 7.12915 1.75439 3.36532C1.75439 1.97048 2.90142 0.819191 4.31833 0.819191C5.80271 0.819191 6.88226 1.85978 6.88226 2.56827H8.56906C8.56906 1.77122 9.71608 0.819191 11.133 0.819191C12.5499 0.819191 13.6969 1.94834 13.6969 3.36532C13.6744 7.15129 9.10883 10.1845 7.71441 11.0258Z" fill="#F75F3C"/>
<path d="M14.529 3.36531C14.529 1.50554 12.9997 0 11.1104 0C9.22123 0 7.71436 1.32841 7.71436 2.59041V12C7.71436 12 14.529 8.34686 14.529 3.36531Z" fill="#FF9A9A"/>
<path d="M8.389 9.27676L7.15202 7.06273L6.04998 9.21033L4.81299 6.35425L3.80092 8.70111H0V7.99262H3.30612L4.81299 4.51661L6.11745 7.4834L7.12953 5.49078L8.20908 7.41698L9.91837 2.01476L11.4027 7.99262H15.4286V8.70111H10.818L9.82841 4.71587L8.389 9.27676Z" fill="#FFD8B8"/>
<path d="M3.80092 8.70111L4.81299 6.35425L6.04998 9.21034L7.15202 7.06274L8.389 9.27676L9.82841 4.71587L10.818 8.70111H15.4286V8.34687H11.1104L9.87339 3.36532L8.29904 8.34687L7.12953 6.26569L6.07247 8.34687L4.81299 5.4465L3.55352 8.34687H0V8.70111H3.80092Z" fill="#3C43E8"/>
</g>
<defs>
<clipPath id="clip0_4_4520">
<rect width="15.4286" height="12" fill="white"/>
</clipPath>
</defs>
</svg>
