<svg width="12" height="12" viewBox="0 0 12 12" fill="none" xmlns="http://www.w3.org/2000/svg">
<path d="M8.43873 10.3484H1.1355V10.5806H8.43873V10.3484Z" fill="#C7C3C2"/>
<path d="M8.43873 10.6838H1.1355V10.9419H8.43873V10.6838Z" fill="#C7C3C2"/>
<path d="M8.43873 10.9935H1.1355V11.2258H8.43873V10.9935Z" fill="#C7C3C2"/>
<path d="M8.43873 10.0386H1.1355V10.2709H8.43873V10.0386Z" fill="#C7C3C2"/>
<path fill-rule="evenodd" clip-rule="evenodd" d="M9.08387 10.3225C8.92904 10.3225 8.77419 10.4516 8.77419 10.6064V11.4064H1.41935C0.980645 11.4064 0.61936 11.0451 0.593553 10.6064V10.5806C0.593553 10.5548 0.593553 10.5548 0.593553 10.529C0.61936 10.0903 0.980645 9.75479 1.41935 9.75479H9.00645C9.03226 9.75479 9.05807 9.75479 9.08387 9.75479C9.23871 9.75479 9.36775 9.62575 9.36775 9.47091V6.96769V4.69672L7.84516 6.96769L5.85807 8.43866L6.27097 6.06446L9.36775 1.4451V1.18704C9.36775 1.0322 9.23871 0.903168 9.08387 0.903168H9.00645H4.8H3.84516H1.41935C0.645161 0.903168 0 1.52252 0 2.32252C0 2.34833 0 2.34833 0 2.34833C0 2.39994 0 2.47736 0 2.58059C0 3.38059 0 5.59994 0 7.50962C0 7.66446 0 7.8193 0 7.97414C0 9.21285 0 10.2451 0 10.5548C0 10.5806 0 10.5806 0 10.6064C0 10.7354 0.0258096 10.8645 0.0516161 10.9677C0.206455 11.5354 0.722582 11.9741 1.31613 11.9999C1.34194 11.9999 1.34194 11.9999 1.36775 11.9999H9.08387C9.23871 11.9999 9.36775 11.8709 9.36775 11.7161V10.6064C9.36775 10.4516 9.23871 10.3225 9.08387 10.3225Z" fill="#47BEE8"/>
<path fill-rule="evenodd" clip-rule="evenodd" d="M1.13548 9.80639V0.903168C0.490321 1.0322 0 1.59995 0 2.29672C0 2.32253 0 2.32252 0 2.32252V2.55479C0 3.35479 0 5.57414 0 7.48381V7.94833C0 9.18704 0 10.2193 0 10.529C0 10.5548 0 10.5548 0 10.5806C0 10.7096 0.0258096 10.8387 0.0516161 10.9419C0.180648 11.458 0.619353 11.8451 1.13548 11.9483V11.3548C0.825805 11.2516 0.593553 10.9419 0.593553 10.6064V10.5806C0.593553 10.5548 0.593553 10.5548 0.593553 10.529C0.61936 10.2193 0.825805 9.90962 1.13548 9.80639Z" fill="#3699DD"/>
<path fill-rule="evenodd" clip-rule="evenodd" d="M8.77413 11.4323H1.41929C1.31607 11.4323 1.18704 11.4065 1.10962 11.3807V11.9742C1.16123 12 1.26445 12 1.31607 12C1.34187 12 1.34188 12 1.36768 12H9.08381C9.23865 12 9.36768 11.871 9.36768 11.7162V10.6065C9.36768 10.4516 9.23865 10.3226 9.08381 10.3226C8.92897 10.3226 8.77413 10.4516 8.77413 10.6065V11.4323Z" fill="#47BEE8"/>
<path fill-rule="evenodd" clip-rule="evenodd" d="M10.7616 0.0774241L6.63257 6.21936L6.91644 6.3742L11.0455 0.232264C11.0713 0.206458 11.0713 0.180647 11.0971 0.15484L10.839 0C10.8132 0.0258065 10.7874 0.0516176 10.7616 0.0774241Z" fill="#FFC01C"/>
<path fill-rule="evenodd" clip-rule="evenodd" d="M11.6647 0.593659L7.53564 6.7614L7.74209 6.86462L11.6647 1.03236C11.7937 0.851719 11.7937 0.645268 11.7163 0.516235C11.6905 0.542042 11.6905 0.567853 11.6647 0.593659Z" fill="#E6AD19"/>
<path fill-rule="evenodd" clip-rule="evenodd" d="M6.63191 6.24509L10.7609 0.103162C10.7868 0.077355 10.8126 0.0515439 10.8384 0.0257374H10.8126C10.6577 -0.0258755 10.4513 0.0773488 10.3222 0.257994L6.39966 6.11606L6.63191 6.24509Z" fill="#FDE34F"/>
<path fill-rule="evenodd" clip-rule="evenodd" d="M11.4066 0.438744L7.27759 6.60648L7.56146 6.76132L11.6905 0.593585C11.7163 0.567778 11.7163 0.541967 11.7163 0.516161L11.4582 0.361328C11.4324 0.387135 11.4066 0.412938 11.4066 0.438744Z" fill="#E6AD19"/>
<path fill-rule="evenodd" clip-rule="evenodd" d="M7.2773 6.60652L11.4063 0.43878C11.4321 0.412973 11.4321 0.38717 11.4579 0.361364L11.0967 0.154907C11.0967 0.180714 11.0709 0.206525 11.045 0.232331L6.91602 6.37426L7.2773 6.60652Z" fill="#FFC01C"/>
<path fill-rule="evenodd" clip-rule="evenodd" d="M6.1937 7.43215L6.78725 6.52893L6.29692 6.24506L6.14209 7.40635L6.1937 7.43215Z" fill="#EFBB86"/>
<path fill-rule="evenodd" clip-rule="evenodd" d="M7.25192 6.78717L6.63257 7.6904H6.68418L7.66483 6.99362L7.25192 6.78717Z" fill="#EFBB86"/>
<path fill-rule="evenodd" clip-rule="evenodd" d="M6.78691 6.52905L6.19336 7.43228L6.63207 7.69034L7.25143 6.78712L6.78691 6.52905Z" fill="#F2C89D"/>
<path fill-rule="evenodd" clip-rule="evenodd" d="M6.4773 7.58713L6.21924 8.02583L6.68375 7.69035H6.63214L6.4773 7.58713Z" fill="#1A1A1A"/>
<path fill-rule="evenodd" clip-rule="evenodd" d="M6.21922 8.0258L6.47729 7.5871L6.34825 7.50967L6.06438 7.94839L6.03857 8.12903L6.21922 8.0258Z" fill="#2B2B2B"/>
<path fill-rule="evenodd" clip-rule="evenodd" d="M6.11621 7.50957L6.19363 7.43215L6.14202 7.40634L6.11621 7.50957Z" fill="#1A1A1A"/>
<path fill-rule="evenodd" clip-rule="evenodd" d="M6.06445 7.94835L6.34833 7.50964L6.19349 7.43222L6.11607 7.50964L6.06445 7.94835Z" fill="#1A1A1A"/>
</svg>
