<svg width="24" height="24" viewBox="0 0 24 24" fill="none" xmlns="http://www.w3.org/2000/svg">
<g id="ic:round-upload">
<path id="Vector" d="M10 15.9997H14C14.55 15.9997 15 15.5497 15 14.9997V9.99967H16.59C17.48 9.99967 17.93 8.91967 17.3 8.28967L12.71 3.69967C12.6175 3.60697 12.5076 3.53342 12.3866 3.48324C12.2657 3.43306 12.136 3.40723 12.005 3.40723C11.874 3.40723 11.7443 3.43306 11.6234 3.48324C11.5024 3.53342 11.3925 3.60697 11.3 3.69967L6.71 8.28967C6.08 8.91967 6.52 9.99967 7.41 9.99967H9V14.9997C9 15.5497 9.45 15.9997 10 15.9997ZM6 17.9997H18C18.55 17.9997 19 18.4497 19 18.9997C19 19.5497 18.55 19.9997 18 19.9997H6C5.45 19.9997 5 19.5497 5 18.9997C5 18.4497 5.45 17.9997 6 17.9997Z" fill="#FF9648"/>
</g>
</svg>
