<svg width="17" height="12" viewBox="0 0 17 12" fill="none" xmlns="http://www.w3.org/2000/svg">
<path d="M12.552 6.95508H11.7943V7.25693H12.2475V9.98848H11.8562C11.7621 9.07054 10.9846 8.35302 10.0412 8.35302C9.07546 8.35302 8.28556 9.10518 8.22366 10.0528H7.24309C7.17871 9.10271 6.39129 8.35302 5.42557 8.35302C4.4772 8.35302 3.6972 9.07797 3.61053 10.0033H3.24158V7.27178H3.69472V6.96992H2.93701V10.3077H3.60805C3.67491 11.2528 4.46234 12 5.42557 12C6.37148 12 7.15147 11.28 7.24061 10.3571H8.22613C8.31775 11.28 9.09527 12 10.0412 12C11.0094 12 11.7993 11.2454 11.8612 10.2928H12.552V6.95508Z" fill="#8B5E3C"/>
<path d="M0 0.47998V2.06596H2.88475V6.19792H12.5963V2.06596H15.2904V0.47998H0Z" fill="#2B3990"/>
<path d="M0 0.47998V2.06596H2.88475V6.19792H7.79007V0.47998H0Z" fill="#262262"/>
<path d="M14.882 5.44082H16.0953L15.7734 4.61938C15.9517 4.43629 15.9245 4.13443 15.7115 3.98845V0H7.74316V0.48H15.2658V3.97361C15.0281 4.11464 14.9934 4.43381 15.1841 4.62433H15.1816L14.882 5.44082Z" fill="#FBB040"/>
<path d="M7.00531 10.1765C7.00531 11.0474 6.29712 11.755 5.42551 11.755C4.55389 11.755 3.8457 11.0474 3.8457 10.1765C3.8457 9.30553 4.55389 8.5979 5.42551 8.5979C6.29712 8.5979 7.00531 9.30305 7.00531 10.1765Z" fill="#88CBE2"/>
<path d="M11.6205 10.1765C11.6205 11.0474 10.9124 11.755 10.0407 11.755C9.16913 11.755 8.46094 11.0474 8.46094 10.1765C8.46094 9.30553 9.16913 8.5979 10.0407 8.5979C10.9124 8.5979 11.6205 9.30305 11.6205 10.1765Z" fill="#88CBE2"/>
</svg>
