<svg width="36" height="36" viewBox="0 0 36 36" fill="none" xmlns="http://www.w3.org/2000/svg">
<g id="material-symbols:arrow-drop-up-rounded">
<path id="Vector" d="M18 20.7451L22.2157 24.9608C22.5752 25.3203 23.0327 25.5 23.5882 25.5C24.1438 25.5 24.6013 25.3203 24.9608 24.9608C25.3203 24.6013 25.5 24.1438 25.5 23.5882C25.5 23.0327 25.3203 22.5752 24.9608 22.2157L20.7451 18L24.9608 13.7843C25.3203 13.4248 25.5 12.9673 25.5 12.4118C25.5 11.8562 25.3203 11.3987 24.9608 11.0392C24.6013 10.6797 24.1438 10.5 23.5882 10.5C23.0327 10.5 22.5752 10.6797 22.2157 11.0392L18 15.2549L13.7843 11.0392C13.4248 10.6797 12.9673 10.5 12.4118 10.5C11.8562 10.5 11.3987 10.6797 11.0392 11.0392C10.6797 11.3987 10.5 11.8562 10.5 12.4118C10.5 12.9673 10.6797 13.4248 11.0392 13.7843L15.2549 18L11.0392 22.2157C10.6797 22.5752 10.5 23.0327 10.5 23.5882C10.5 24.1438 10.6797 24.6013 11.0392 24.9608C11.3987 25.3203 11.8562 25.5 12.4118 25.5C12.9673 25.5 13.4248 25.3203 13.7843 24.9608L18 20.7451Z" fill="url(#paint0_linear_264_504)"/>
</g>
<defs>
<linearGradient id="paint0_linear_264_504" x1="18" y1="10.5" x2="18" y2="25.5" gradientUnits="userSpaceOnUse">
<stop stop-color="#FF6B00"/>
<stop offset="1" stop-color="#FFC700"/>
</linearGradient>
</defs>
</svg>
