<svg width="11" height="12" viewBox="0 0 11 12" fill="none" xmlns="http://www.w3.org/2000/svg">
<path fill-rule="evenodd" clip-rule="evenodd" d="M4.97354 4.81373C4.72259 5.04187 4.35757 5.17876 3.96974 5.17876C3.44502 5.17876 2.98874 4.9278 2.73779 4.53996C2.89749 5.63502 3.99255 6.251 5.31575 6.27382C6.68457 6.27382 7.82526 5.61222 7.91652 4.44872C7.68838 4.88218 7.20929 5.17876 6.63894 5.17876C6.25111 5.17876 5.9089 5.04188 5.65795 4.83655L5.31575 5.29283L5.01917 4.85936L4.97354 4.81373Z" fill="white"/>
<path fill-rule="evenodd" clip-rule="evenodd" d="M5.61242 4.63124L5.29302 5.22439L4.97363 4.63124C4.97363 4.63124 5.01926 4.33465 5.29302 4.35747C5.56679 4.38028 5.61242 4.63124 5.61242 4.63124Z" fill="white"/>
<path fill-rule="evenodd" clip-rule="evenodd" d="M6.59355 4.88229C5.93195 4.88229 5.40723 4.4032 5.40723 3.83286C5.40723 3.26252 5.95476 2.78343 6.59355 2.78343C7.25514 2.78343 7.77986 3.26252 7.77986 3.83286C7.77986 4.42602 7.25514 4.88229 6.59355 4.88229Z" fill="white"/>
<path fill-rule="evenodd" clip-rule="evenodd" d="M3.08024 2.71478C2.94336 2.55509 2.94336 2.23569 2.94336 2.03037C2.96617 2.09881 3.0118 2.16726 3.08024 2.21289C3.19431 2.30415 3.35401 2.37258 3.5137 2.37258C3.65059 2.37258 3.76466 2.32695 3.87873 2.25851C4.31219 2.00756 4.79127 1.89349 5.29317 1.89349C5.79508 1.89349 6.27417 2.03037 6.70763 2.25851C6.8217 2.32695 6.95858 2.37258 7.07265 2.37258C7.23235 2.37258 7.36923 2.30415 7.50611 2.21289C7.57455 2.14445 7.62018 2.09881 7.643 2.03037C7.66581 2.23569 7.66581 2.55509 7.50611 2.71478L7.41486 2.80604C7.18672 2.66916 6.91296 2.57791 6.61638 2.57791C6.00041 2.57791 5.47568 2.92011 5.27036 3.37639C5.06504 2.8973 4.54032 2.57791 3.94716 2.57791C3.65058 2.57791 3.39963 2.64635 3.1715 2.78324L3.08024 2.71478Z" fill="white"/>
<path fill-rule="evenodd" clip-rule="evenodd" d="M3.92411 4.88229C3.26251 4.88229 2.73779 4.4032 2.73779 3.83286C2.73779 3.26252 3.26251 2.78343 3.92411 2.78343C4.5857 2.78343 5.11042 3.26252 5.11042 3.83286C5.11042 4.42602 4.5857 4.88229 3.92411 4.88229Z" fill="white"/>
<path fill-rule="evenodd" clip-rule="evenodd" d="M4.31172 7.9392C4.24328 7.1179 3.53605 6.22816 3.19385 5.77189C3.62731 6.11409 4.63111 6.47911 5.29271 6.41067C6.06838 6.47911 7.095 6.1141 7.57409 5.63501C7.23188 6.1141 6.63873 6.9582 6.61591 7.82513C6.5931 8.64642 6.7756 9.33083 6.98093 9.83274C6.82123 9.67304 6.54747 9.55897 6.27371 9.55897C5.97713 9.55897 5.72617 9.67305 5.54366 9.85556C5.52085 9.87837 5.47522 9.92399 5.45241 9.94681C5.4296 9.90118 5.38397 9.87837 5.33834 9.85556C5.17864 9.74149 4.97332 9.67304 4.74518 9.67304C4.51704 9.67304 4.2889 9.74149 4.12921 9.85556C4.10639 9.87837 4.08358 9.87836 4.08358 9.90118C4.08358 9.87836 4.08358 9.87837 4.1064 9.85556C4.2661 9.35366 4.38016 8.71486 4.31172 7.9392Z" fill="white"/>
<path fill-rule="evenodd" clip-rule="evenodd" d="M3.30791 3.58174C3.28509 3.60455 3.23946 3.60454 3.21664 3.55892C3.19383 3.5361 3.19383 3.49048 3.23946 3.46767C3.44478 3.30797 3.65011 3.23953 3.85543 3.23953C4.06076 3.23953 4.24327 3.33079 4.42578 3.46767C4.44859 3.49048 4.47141 3.5361 4.44859 3.55892C4.42578 3.60454 4.38015 3.60455 4.35733 3.58174C4.19764 3.46767 4.01513 3.39922 3.85543 3.37641C3.65011 3.37641 3.49042 3.42204 3.30791 3.58174Z" fill="black"/>
<path fill-rule="evenodd" clip-rule="evenodd" d="M6.137 3.58174C6.11419 3.60455 6.06856 3.60454 6.04575 3.55892C6.02294 3.5361 6.02293 3.49048 6.06856 3.46767C6.27388 3.30797 6.47921 3.23953 6.68453 3.23953C6.88986 3.23953 7.07237 3.33079 7.25488 3.46767C7.27769 3.49048 7.30051 3.5361 7.27769 3.55892C7.25488 3.60454 7.20925 3.60455 7.18644 3.58174C7.02674 3.46767 6.84423 3.39922 6.68453 3.37641C6.47921 3.37641 6.31951 3.42204 6.137 3.58174Z" fill="black"/>
<path fill-rule="evenodd" clip-rule="evenodd" d="M6.63878 3.83272C6.70722 3.83272 6.75285 3.85553 6.79848 3.90116C6.84411 3.94678 6.86692 3.99241 6.86692 4.06086C6.86692 4.1293 6.84411 4.17493 6.79848 4.22055C6.75285 4.26618 6.70722 4.28899 6.63878 4.28899C6.57034 4.28899 6.52472 4.26618 6.47909 4.22055C6.43346 4.17493 6.41064 4.1293 6.41064 4.06086C6.41064 3.99241 6.43346 3.94678 6.47909 3.90116C6.52472 3.85553 6.59315 3.83272 6.63878 3.83272Z" fill="black"/>
<path fill-rule="evenodd" clip-rule="evenodd" d="M3.80968 3.83272C3.87812 3.83272 3.92375 3.85553 3.96938 3.90116C4.01501 3.94678 4.03782 3.99241 4.03782 4.06086C4.03782 4.1293 4.01501 4.17493 3.96938 4.22055C3.92375 4.26618 3.87812 4.28899 3.80968 4.28899C3.74124 4.28899 3.69562 4.26618 3.64999 4.22055C3.60436 4.17493 3.58154 4.1293 3.58154 4.06086C3.58154 3.99241 3.60436 3.94678 3.64999 3.90116C3.69562 3.85553 3.76405 3.83272 3.80968 3.83272Z" fill="black"/>
<path fill-rule="evenodd" clip-rule="evenodd" d="M4.01514 10.7456C4.01514 10.7227 4.08358 10.6543 4.15202 10.4946C4.17483 10.5859 4.19765 10.6771 4.24327 10.7456H4.01514Z" fill="black"/>
<path fill-rule="evenodd" clip-rule="evenodd" d="M10.0612 10.5859L2.19043 10.4946V10.8825L10.0612 10.9737V10.5859Z" fill="#FFC01C"/>
<path fill-rule="evenodd" clip-rule="evenodd" d="M10.0612 11.7491L2.19043 11.635V11.886L9.99274 12C10.0156 12 10.0384 12 10.0612 12V11.7491Z" fill="#E6AD19"/>
<path fill-rule="evenodd" clip-rule="evenodd" d="M2.19043 10.5171L10.0612 10.6312V10.3118C10.0156 10.289 9.96993 10.289 9.92431 10.289L2.19043 10.1977V10.5171Z" fill="#FDE34F"/>
<path fill-rule="evenodd" clip-rule="evenodd" d="M10.0612 11.3839L2.19043 11.2927V11.6349L10.0612 11.749V11.3839Z" fill="#E6AD19"/>
<path fill-rule="evenodd" clip-rule="evenodd" d="M2.19043 11.2927L10.0612 11.3839V10.9505L2.19043 10.8364V11.2927Z" fill="#FFC01C"/>
<path fill-rule="evenodd" clip-rule="evenodd" d="M0.75293 10.7909L1.96206 10.8137V10.1977L0.75293 10.7224V10.7909Z" fill="#EFBB86"/>
<path fill-rule="evenodd" clip-rule="evenodd" d="M1.96219 11.3841L0.775879 11.3613V11.4069L1.96219 11.886V11.3841Z" fill="#EFBB86"/>
<path fill-rule="evenodd" clip-rule="evenodd" d="M1.96206 10.8139L0.75293 10.7911L0.775745 11.3614L1.96206 11.3842V10.8139Z" fill="#F2C89D"/>
<path fill-rule="evenodd" clip-rule="evenodd" d="M0.776155 11.156L0.205811 11.1788L0.776155 11.4069V11.3613V11.156Z" fill="#1A1A1A"/>
<path fill-rule="evenodd" clip-rule="evenodd" d="M0.205323 11.1788L0.775667 11.156L0.752852 10.9963H0.182507L0 11.0876L0.205323 11.1788Z" fill="#2B2B2B"/>
<path fill-rule="evenodd" clip-rule="evenodd" d="M0.638672 10.7908H0.752741V10.7224L0.638672 10.7908Z" fill="#1A1A1A"/>
<path fill-rule="evenodd" clip-rule="evenodd" d="M0.182617 10.9963H0.752962V10.791H0.638893L0.182617 10.9963Z" fill="#1A1A1A"/>
<path fill-rule="evenodd" clip-rule="evenodd" d="M3.92427 2.57791C4.54024 2.57791 5.06496 2.92011 5.24747 3.37639C5.4528 2.8973 5.97751 2.57791 6.59348 2.57791C6.89006 2.57791 7.16383 2.66916 7.39197 2.80604L7.48322 2.71478C7.6201 2.55509 7.6201 2.23569 7.6201 2.03037C7.59729 2.09881 7.52885 2.16726 7.48322 2.21289C7.36915 2.30415 7.20946 2.37258 7.04976 2.37258C6.91288 2.37258 6.79881 2.32695 6.68474 2.25851C6.25128 2.00756 5.77219 1.89349 5.27028 1.89349C4.76838 1.89349 4.28929 2.03037 3.85583 2.25851C3.74176 2.32695 3.60488 2.37258 3.49081 2.37258C3.33111 2.37258 3.19423 2.30415 3.05735 2.21289C2.98891 2.14445 2.94328 2.09881 2.92047 2.03037C2.89765 2.23569 2.89765 2.55509 3.05735 2.71478L3.12579 2.80604C3.37674 2.64635 3.65051 2.57791 3.92427 2.57791Z" fill="#999999"/>
<path fill-rule="evenodd" clip-rule="evenodd" d="M5.11042 3.83286C5.11042 3.26252 4.5857 2.78343 3.92411 2.78343C3.26251 2.78343 2.73779 3.26252 2.73779 3.83286C2.73779 4.4032 3.26251 4.88229 3.92411 4.88229C4.5857 4.88229 5.11042 4.42602 5.11042 3.83286ZM3.30814 3.58191C3.28532 3.60473 3.23969 3.60472 3.21688 3.55909C3.19406 3.53628 3.19406 3.49066 3.23969 3.46785C3.44502 3.30815 3.65034 3.23971 3.85567 3.23971C4.06099 3.23971 4.2435 3.33096 4.42601 3.46785C4.44882 3.49066 4.47164 3.53628 4.44883 3.55909C4.42601 3.60472 4.38038 3.60473 4.35757 3.58191C4.19787 3.46785 4.01536 3.3994 3.85567 3.37658C3.65034 3.37658 3.49065 3.42222 3.30814 3.58191ZM3.81004 3.83286C3.87848 3.83286 3.92411 3.85567 3.96974 3.9013C4.01536 3.94693 4.03817 3.99256 4.03817 4.061C4.03817 4.12944 4.01536 4.17507 3.96974 4.2207C3.92411 4.26632 3.87848 4.28914 3.81004 4.28914C3.74159 4.28914 3.69597 4.26632 3.65034 4.2207C3.60472 4.17507 3.5819 4.12944 3.5819 4.061C3.5819 3.99256 3.60472 3.94693 3.65034 3.9013C3.69597 3.85567 3.76441 3.83286 3.81004 3.83286Z" fill="#FDE34F"/>
<path fill-rule="evenodd" clip-rule="evenodd" d="M6.59355 2.78343C5.93195 2.78343 5.40723 3.26252 5.40723 3.83286C5.40723 4.4032 5.95476 4.88229 6.59355 4.88229C7.25514 4.88229 7.77986 4.4032 7.77986 3.83286C7.77986 3.26252 7.25514 2.78343 6.59355 2.78343ZM6.63917 4.28914C6.57073 4.28914 6.5251 4.26632 6.47948 4.2207C6.43385 4.17507 6.41103 4.12944 6.41103 4.061C6.41103 3.99256 6.43385 3.94693 6.47948 3.9013C6.5251 3.85567 6.57073 3.83286 6.63917 3.83286C6.70761 3.83286 6.75324 3.85567 6.79887 3.9013C6.8445 3.94693 6.86731 3.99256 6.86731 4.061C6.86731 4.12944 6.8445 4.17507 6.79887 4.2207C6.75324 4.26632 6.70761 4.28914 6.63917 4.28914ZM6.13727 3.58191C6.11446 3.60473 6.06883 3.60472 6.04602 3.55909C6.0232 3.53628 6.0232 3.49066 6.06882 3.46785C6.27415 3.30815 6.47948 3.23971 6.6848 3.23971C6.89012 3.23971 7.07263 3.33096 7.25514 3.46785C7.27796 3.49066 7.30077 3.53628 7.27796 3.55909C7.25514 3.60472 7.20952 3.60473 7.1867 3.58191C7.02701 3.46785 6.8445 3.3994 6.6848 3.37658C6.47948 3.37658 6.31978 3.42222 6.13727 3.58191Z" fill="#FDE34F"/>
<path fill-rule="evenodd" clip-rule="evenodd" d="M6.6386 5.17867C6.25076 5.17867 5.90856 5.04179 5.65761 4.83646L5.3154 5.29274L5.01882 4.85927L4.99601 4.83646C4.74506 5.0646 4.38004 5.20148 3.9922 5.20148C3.46749 5.20148 3.01121 4.95053 2.76025 4.5627C2.91995 5.65776 4.01502 6.27372 5.33821 6.29654C6.70704 6.29654 7.84773 5.63494 7.93898 4.47144C7.68803 4.85927 7.18613 5.17867 6.6386 5.17867Z" fill="#999999"/>
<path fill-rule="evenodd" clip-rule="evenodd" d="M7.57409 5.63501C7.07219 6.1141 6.04557 6.47911 5.29271 6.41067C4.63111 6.47911 3.62731 6.11409 3.19385 5.77189C3.53605 6.22816 4.26609 7.1179 4.31172 7.9392C4.38016 8.71486 4.24328 9.37647 4.1064 9.85556L4.08358 9.90118L4.12921 9.85556C4.2889 9.74149 4.49423 9.67304 4.74518 9.67304C4.97332 9.67304 5.20146 9.74149 5.33834 9.85556C5.38397 9.87837 5.4296 9.92399 5.45241 9.94681C5.47522 9.90118 5.49804 9.87837 5.54366 9.85556C5.70336 9.67305 5.97713 9.55897 6.27371 9.55897C6.54747 9.55897 6.79842 9.67304 6.98093 9.83274C6.79842 9.35365 6.61591 8.66924 6.61591 7.82513C6.63873 6.9582 7.23188 6.09129 7.57409 5.63501Z" fill="#999999"/>
<path fill-rule="evenodd" clip-rule="evenodd" d="M3.96938 4.22055C4.01501 4.17493 4.03782 4.1293 4.03782 4.06086C4.03782 3.99241 4.01501 3.94678 3.96938 3.90116C3.92375 3.85553 3.87812 3.83272 3.80968 3.83272C3.74124 3.83272 3.69562 3.85553 3.64999 3.90116C3.60436 3.94678 3.58154 3.99241 3.58154 4.06086C3.58154 4.1293 3.60436 4.17493 3.64999 4.22055C3.69562 4.26618 3.74124 4.28899 3.80968 4.28899C3.87812 4.28899 3.94657 4.26618 3.96938 4.22055Z" fill="black"/>
<path fill-rule="evenodd" clip-rule="evenodd" d="M3.8328 3.37641C3.9925 3.37641 4.17501 3.46767 4.33471 3.58174C4.38034 3.60455 4.40315 3.60454 4.42596 3.55892C4.44878 3.5361 4.44878 3.49048 4.40315 3.46767C4.22064 3.33079 4.01531 3.23953 3.8328 3.23953C3.62748 3.23953 3.42215 3.30797 3.21683 3.46767C3.19402 3.49048 3.17121 3.5361 3.19402 3.55892C3.21684 3.58173 3.26246 3.60455 3.28527 3.58174C3.4906 3.42204 3.65029 3.37641 3.8328 3.37641Z" fill="black"/>
<path fill-rule="evenodd" clip-rule="evenodd" d="M5.31549 4.35747C5.04172 4.33465 4.99609 4.63124 4.99609 4.63124L5.31549 5.22439L5.63488 4.63124C5.61206 4.63124 5.56644 4.38028 5.31549 4.35747Z" fill="#FFC01C"/>
<path fill-rule="evenodd" clip-rule="evenodd" d="M6.43359 4.06086C6.43359 4.1293 6.45641 4.17493 6.50204 4.22055C6.54767 4.26618 6.59329 4.28899 6.66173 4.28899C6.73017 4.28899 6.7758 4.26618 6.82143 4.22055C6.86706 4.17493 6.88987 4.1293 6.88987 4.06086C6.88987 3.99241 6.86706 3.94678 6.82143 3.90116C6.7758 3.85553 6.73017 3.83272 6.66173 3.83272C6.59329 3.83272 6.54767 3.85553 6.50204 3.90116C6.45641 3.94678 6.43359 4.01523 6.43359 4.06086Z" fill="black"/>
<path fill-rule="evenodd" clip-rule="evenodd" d="M6.6619 3.37641C6.8216 3.37641 7.00411 3.46767 7.16381 3.58174C7.18662 3.60455 7.23225 3.60454 7.25506 3.55892C7.27788 3.5361 7.27788 3.49048 7.23225 3.46767C7.04974 3.33079 6.84441 3.23953 6.6619 3.23953C6.45658 3.23953 6.25126 3.30797 6.04594 3.46767C6.02312 3.49048 6.00031 3.5361 6.02312 3.55892C6.04594 3.58173 6.09156 3.60455 6.11438 3.58174C6.3197 3.42204 6.47939 3.37641 6.6619 3.37641Z" fill="black"/>
<path fill-rule="evenodd" clip-rule="evenodd" d="M4.10619 9.85547C4.26588 9.35357 4.37995 8.71478 4.31151 7.93911C4.24307 7.11781 3.53584 6.22808 3.19364 5.7718C3.6271 6.11401 4.6309 6.47903 5.2925 6.41058C6.06817 6.47903 7.09479 6.11401 7.57388 5.63492C7.23167 6.11401 6.63852 6.95812 6.6157 7.82504C6.59289 8.64634 6.77539 9.33075 6.98072 9.83265C6.82102 9.67295 6.54726 9.55888 6.2735 9.55888C5.97692 9.55888 5.72596 9.67296 5.54345 9.85547C5.52064 9.87829 5.47501 9.92391 5.4522 9.94672C5.42938 9.90109 5.38376 9.87829 5.33813 9.85547C5.17843 9.7414 4.97311 9.67295 4.74497 9.67295C4.51683 9.67295 4.28869 9.7414 4.129 9.85547L4.08337 9.90109L4.10619 9.85547ZM7.84764 10.3117C7.98453 10.1749 8.14422 10.0152 8.30392 9.83265C8.71457 9.30793 9.17084 8.55508 9.39898 7.50564C9.83244 5.31552 7.98453 5.1102 7.98453 5.1102C7.98453 5.1102 7.96171 5.13302 7.91608 5.17865C8.07578 4.90488 8.16704 4.58549 8.16704 4.22047C8.16704 3.67294 8.05297 3.2851 7.71076 2.85164C8.00734 2.53225 7.87046 1.84783 7.87046 1.84783C7.87046 1.84783 7.75639 1.71095 7.64232 1.71095C7.57388 1.71095 7.50544 1.75658 7.45981 1.89346C7.45981 2.03034 7.30011 2.19004 7.09479 2.19004C7.02634 2.19004 6.93509 2.16723 6.86665 2.1216C6.41037 1.87065 5.88566 1.71095 5.31531 1.71095C4.74497 1.71095 4.22026 1.87065 3.76398 2.1216C3.67273 2.16723 3.60428 2.19004 3.53584 2.19004C3.33052 2.19004 3.17082 2.03034 3.17082 1.89346C3.12519 1.75658 3.05675 1.71095 2.98831 1.71095C2.87424 1.71095 2.76017 1.84783 2.76017 1.84783C2.76017 1.84783 2.62329 2.53225 2.91987 2.85164C2.57766 3.26229 2.46359 3.65012 2.46359 4.22047C2.46359 4.6083 2.55485 4.9505 2.73736 5.2699L2.69173 5.33833C2.28108 5.4524 1.09477 5.97712 1.55104 7.77941C1.80199 8.71478 2.23545 9.422 2.6461 9.90109C2.73736 10.038 2.85143 10.1749 2.9655 10.2889L7.84764 10.3117ZM5.31531 6.27371C3.99212 6.27371 2.89706 5.65773 2.73736 4.53985C2.98831 4.90487 3.44459 5.17865 3.9693 5.17865C4.35714 5.17865 4.72216 5.04176 4.97311 4.81362L4.99592 4.83644L5.2925 5.2699L5.63471 4.81362C5.88566 5.04176 6.22787 5.15583 6.6157 5.15583C7.18605 5.15583 7.66513 4.85925 7.89327 4.42578C7.80201 5.6121 6.68414 6.25089 5.31531 6.27371ZM5.10999 3.83263C5.10999 4.40298 4.58527 4.88206 3.92367 4.88206C3.26207 4.88206 2.73736 4.40298 2.73736 3.83263C2.73736 3.26229 3.26207 2.7832 3.92367 2.7832C4.58527 2.7832 5.10999 3.26229 5.10999 3.83263ZM5.40657 3.83263C5.40657 3.26229 5.9541 2.7832 6.59289 2.7832C7.25449 2.7832 7.7792 3.26229 7.7792 3.83263C7.7792 4.40298 7.25449 4.88206 6.59289 4.88206C5.93129 4.88206 5.40657 4.42579 5.40657 3.83263ZM3.07957 2.71475C2.94268 2.55505 2.94268 2.23566 2.94268 2.03034C2.9655 2.09878 3.01113 2.16723 3.07957 2.21286C3.19364 2.30411 3.35333 2.37254 3.51303 2.37254C3.64991 2.37254 3.76398 2.32692 3.87805 2.25848C4.31151 2.00752 4.7906 1.89346 5.2925 1.89346C5.7944 1.89346 6.27349 2.03034 6.70696 2.25848C6.82102 2.32692 6.95791 2.37254 7.07198 2.37254C7.23167 2.37254 7.36856 2.30411 7.50544 2.21286C7.57388 2.14442 7.61951 2.09878 7.64232 2.03034C7.66514 2.23566 7.66513 2.55505 7.50544 2.71475L7.41418 2.80601C7.18605 2.66913 6.91228 2.57787 6.6157 2.57787C5.99973 2.57787 5.47501 2.92008 5.26968 3.37636C5.06436 2.89727 4.53965 2.57787 3.94649 2.57787C3.64991 2.57787 3.39896 2.64632 3.17082 2.7832L3.07957 2.71475ZM5.2925 5.24709L4.97311 4.63111C4.97311 4.63111 5.01873 4.33453 5.2925 4.35735C5.56626 4.38016 5.58908 4.63111 5.58908 4.63111L5.2925 5.24709Z" fill="#353F49"/>
<path fill-rule="evenodd" clip-rule="evenodd" d="M3.65015 3.99244C3.65015 4.01526 3.67295 4.03807 3.67295 4.06088C3.69577 4.0837 3.71859 4.08369 3.7414 4.08369C3.76421 4.08369 3.78702 4.06088 3.80984 4.06088C3.83265 4.03807 3.83265 4.01526 3.83265 3.99244C3.83265 3.96963 3.80984 3.94682 3.80984 3.92401C3.78702 3.90119 3.76421 3.90118 3.7414 3.90118C3.71859 3.90118 3.69577 3.92401 3.67295 3.92401C3.65014 3.94682 3.65015 3.96963 3.65015 3.99244Z" fill="white"/>
<path fill-rule="evenodd" clip-rule="evenodd" d="M6.66211 3.96941C6.66211 3.99222 6.66211 4.01504 6.68492 4.03786C6.70774 4.06067 6.73055 4.06067 6.75336 4.06067C6.77618 4.06067 6.79899 4.06067 6.82181 4.03786C6.84462 4.01504 6.84462 3.99222 6.84462 3.96941C6.84462 3.94659 6.84462 3.92378 6.82181 3.90097C6.79899 3.87815 6.77618 3.87816 6.75336 3.87816C6.73055 3.87816 6.70774 3.87815 6.68492 3.90097C6.66211 3.94659 6.66211 3.94659 6.66211 3.96941Z" fill="white"/>
<path d="M8.14461 0.205246H8.07617V0.889659H8.14461V0.205246Z" fill="#F28205"/>
<path fill-rule="evenodd" clip-rule="evenodd" d="M8.12153 0.9584C8.16715 0.9584 8.21279 0.912767 8.21279 0.86714C8.21279 0.821512 8.16715 0.775879 8.12153 0.775879C8.0759 0.775879 8.03027 0.821512 8.03027 0.86714C8.03027 0.935581 8.0759 0.9584 8.12153 0.9584Z" fill="#F28205"/>
<path fill-rule="evenodd" clip-rule="evenodd" d="M2.39589 0.365015C2.28182 0.365015 2.21338 0.273763 2.21338 0.182507C2.21338 0.0684385 2.30464 0 2.39589 0H8.28185C8.39591 0 8.46435 0.0912523 8.46435 0.182507C8.46435 0.296576 8.3731 0.365015 8.28185 0.365015H8.23621H8.00808H7.73432H7.18679V1.4829C7.18679 1.57415 7.09553 1.6654 7.00427 1.6654H3.67346C3.5822 1.6654 3.49095 1.57415 3.49095 1.4829V0.365015H2.39589Z" fill="white"/>
<path fill-rule="evenodd" clip-rule="evenodd" d="M8.03046 0.958252H8.21298L8.28142 1.96205H7.93921L8.03046 0.958252Z" fill="#CB8D2A"/>
</svg>
