<svg width='24' height='24'  xmlns='http://www.w3.org/2000/svg' xmlns:xlink='http://www.w3.org/1999/xlink'><rect width='24' height='24' stroke='none' fill='#000000' opacity='0'/>


    <g transform="matrix(0.42 0 0 0.42 12 12)" >
        <g style="" >
            <g transform="matrix(1 0 0 1 0 0)" >
                <path style="stroke: none; stroke-width: 1; stroke-dasharray: none; stroke-linecap: butt; stroke-dashoffset: 0; stroke-linejoin: miter; stroke-miterlimit: 4; fill: rgb(144,202,249); fill-rule: nonzero; opacity: 1;" transform=" translate(-24, -24)" d="M 40 45 L 8 45 L 8 3 L 30 3 L 40 13 L 40 45 z" stroke-linecap="round" />
            </g>
            <g transform="matrix(1 0 0 1 9.75 -14.75)" >
                <path style="stroke: none; stroke-width: 1; stroke-dasharray: none; stroke-linecap: butt; stroke-dashoffset: 0; stroke-linejoin: miter; stroke-miterlimit: 4; fill: rgb(225,245,254); fill-rule: nonzero; opacity: 1;" transform=" translate(-33.75, -9.25)" d="M 38.5 14 L 29 14 L 29 4.5 L 38.5 14 z" stroke-linecap="round" />
            </g>
            <g transform="matrix(1 0 0 1 -0.5 -1)" >
                <rect style="stroke: none; stroke-width: 1; stroke-dasharray: none; stroke-linecap: butt; stroke-dashoffset: 0; stroke-linejoin: miter; stroke-miterlimit: 4; fill: rgb(25,118,210); fill-rule: nonzero; opacity: 1;" x="-8.5" y="-1" rx="0" ry="0" width="17" height="2" />
            </g>
            <g transform="matrix(1 0 0 1 -2.5 3)" >
                <rect style="stroke: none; stroke-width: 1; stroke-dasharray: none; stroke-linecap: butt; stroke-dashoffset: 0; stroke-linejoin: miter; stroke-miterlimit: 4; fill: rgb(25,118,210); fill-rule: nonzero; opacity: 1;" x="-6.5" y="-1" rx="0" ry="0" width="13" height="2" />
            </g>
            <g transform="matrix(1 0 0 1 -3.5 7)" >
                <rect style="stroke: none; stroke-width: 1; stroke-dasharray: none; stroke-linecap: butt; stroke-dashoffset: 0; stroke-linejoin: miter; stroke-miterlimit: 4; fill: rgb(25,118,210); fill-rule: nonzero; opacity: 1;" x="-5.5" y="-1" rx="0" ry="0" width="11" height="2" />
            </g>
            <g transform="matrix(1 0 0 1 -2.5 11)" >
                <rect style="stroke: none; stroke-width: 1; stroke-dasharray: none; stroke-linecap: butt; stroke-dashoffset: 0; stroke-linejoin: miter; stroke-miterlimit: 4; fill: rgb(25,118,210); fill-rule: nonzero; opacity: 1;" x="-6.5" y="-1" rx="0" ry="0" width="13" height="2" />
            </g>
            <g transform="matrix(1 0 0 1 11 13.05)" >
                <path style="stroke: none; stroke-width: 1; stroke-dasharray: none; stroke-linecap: butt; stroke-dashoffset: 0; stroke-linejoin: miter; stroke-miterlimit: 4; fill: rgb(251,140,0); fill-rule: nonzero; opacity: 1;" transform=" translate(-35, -37.05)" d="M 39 27.3 L 39 46.8 C 31.9 42.8 31.1 33.8 31 30.9 C 34.4 30.6 37.6 28.4 39 27.3 z" stroke-linecap="round" />
            </g>
            <g transform="matrix(1 0 0 1 19 13.05)" >
                <path style="stroke: none; stroke-width: 1; stroke-dasharray: none; stroke-linecap: butt; stroke-dashoffset: 0; stroke-linejoin: miter; stroke-miterlimit: 4; fill: rgb(239,108,0); fill-rule: nonzero; opacity: 1;" transform=" translate(-43, -37.05)" d="M 47 30.9 C 46.9 33.8 46 42.8 39 46.8 L 39 27.3 C 40.3 28.4 43.3 30.6 47 30.9 z" stroke-linecap="round" />
            </g>
            <g transform="matrix(1 0 0 1 19.5 13)" >
                <path style="stroke: none; stroke-width: 1; stroke-dasharray: none; stroke-linecap: butt; stroke-dashoffset: 0; stroke-linejoin: miter; stroke-miterlimit: 4; fill: rgb(249,168,37); fill-rule: nonzero; opacity: 1;" transform=" translate(-43.5, -37)" d="M 48 30 C 42.9 30 39 26 39 26 L 39 28.64 C 40.45 29.75 42.92 31.310000000000002 45.95 31.82 C 45.71 35.09 44.540000000000006 42.120000000000005 39 45.68 L 39 48 C 48.5 43 48 30 48 30 z" stroke-linecap="round" />
            </g>
            <g transform="matrix(1 0 0 1 10.5 13)" >
                <path style="stroke: none; stroke-width: 1; stroke-dasharray: none; stroke-linecap: butt; stroke-dashoffset: 0; stroke-linejoin: miter; stroke-miterlimit: 4; fill: rgb(251,192,45); fill-rule: nonzero; opacity: 1;" transform=" translate(-34.5, -37)" d="M 30.005 30 C 35.102 30 39 26 39 26 L 39 28.64 C 37.551 29.75 35.082 31.310000000000002 32.054 31.82 C 32.293 35.09 33.463 42.120000000000005 39 45.68 L 39 48 C 29.505 43 30.005 30 30.005 30 z" stroke-linecap="round" />
            </g>
        </g>
    </g>
</svg>