<svg width="17" height="16" viewBox="0 0 17 16" fill="none" xmlns="http://www.w3.org/2000/svg">
<path d="M12.0095 12C14.2204 9.79086 14.2204 6.20914 12.0095 4C9.7986 1.79086 6.21404 1.79086 4.00316 4C1.79228 6.20914 1.79228 9.79086 4.00316 12C6.21404 14.2091 9.7986 14.2091 12.0095 12Z" fill="#86B7B7"/>
<path d="M2.16358 6.16106C2.18713 6.2226 2.23242 6.30223 2.23423 6.30766C2.23785 6.31671 2.6164 6.70401 2.63089 6.70401C2.64538 6.70582 2.59104 6.39453 2.54757 6.32033C2.5041 6.24612 2.36463 6.06152 2.33565 6.04342C2.30486 6.02713 2.1509 6.12849 2.16358 6.16106Z" fill="#C4894E"/>
<path d="M10.1284 6.66985L9.20293 6.5305C8.92221 6.43278 8.66324 6.136 8.66324 5.95504C8.66324 5.94961 8.66142 5.45377 8.66142 5.45377C8.30464 5.62569 8.0022 5.71074 8.0022 5.71074C8.0022 5.71074 7.74321 5.63293 7.41541 5.45739C7.41541 5.45739 7.4136 5.94418 7.4136 5.95142C7.4136 6.13419 7.10753 6.43821 6.8087 6.53231L5.88506 6.67166C5.49749 6.67166 5.18237 7.05892 5.18237 7.53485C5.18237 8.01259 5.49749 8.39804 5.88506 8.39804H10.1302C10.5178 8.39804 10.8329 8.01078 10.8329 7.53485C10.8311 7.05711 10.5159 6.66985 10.1284 6.66985Z" fill="#EDBB7E"/>
<path d="M10.1284 6.66981L9.20293 6.53047C9.16127 6.51599 9.11962 6.49608 9.07978 6.47437L8.56363 7.32851L8.03117 6.75667L7.49872 7.32851L6.988 6.45084C6.93005 6.48523 6.86847 6.51237 6.8087 6.53047L5.88506 6.66981C5.49749 6.66981 5.18237 7.05707 5.18237 7.533C5.18237 8.01075 5.49749 8.3962 5.88506 8.3962H10.1302C10.5178 8.3962 10.8329 8.00894 10.8329 7.533C10.8311 7.05707 10.5159 6.66981 10.1284 6.66981Z" fill="white"/>
<path d="M2.76052 6.26794C2.72973 6.21726 2.70256 6.18649 2.68444 6.17563C2.66633 6.16477 2.4689 5.94759 2.4689 5.94759C2.4689 5.94759 2.36023 5.94578 2.42362 6.13582C2.48702 6.32766 2.51057 6.35481 2.53411 6.36386C2.55766 6.37291 2.52687 6.38015 2.53411 6.39824C2.54136 6.41634 2.61018 6.58466 2.61742 6.63171C2.62286 6.66791 2.46347 6.83622 2.5323 7.05521C2.47615 7.00635 2.36385 6.84346 1.91284 7.00273C1.91465 7.01902 1.92009 7.09141 2.02514 7.1819C2.09216 7.29954 2.43992 7.6597 2.55765 7.66151L2.60475 7.71942L3.0956 7.39184L3.06662 7.31583C3.08111 7.28868 3.09198 7.25611 3.0956 7.22172C3.11191 7.09141 2.98512 6.66791 2.76052 6.26794Z" fill="#EDBB7E"/>
<path d="M8.09426 7.15118C8.09426 7.20005 8.0544 7.23986 8.0055 7.23986C7.95659 7.23986 7.91675 7.20005 7.91675 7.15118C7.91675 7.10232 7.95659 7.0625 8.0055 7.0625C8.0544 7.0625 8.09426 7.10232 8.09426 7.15118Z" fill="#024B68"/>
<path d="M8.09426 7.58542C8.09426 7.63429 8.0544 7.67411 8.0055 7.67411C7.95659 7.67411 7.91675 7.63429 7.91675 7.58542C7.91675 7.53656 7.95659 7.49674 8.0055 7.49674C8.0544 7.49855 8.09426 7.53656 8.09426 7.58542Z" fill="#024B68"/>
<path d="M8.09426 8.03432C8.09426 8.08319 8.0544 8.123 8.0055 8.123C7.95659 8.123 7.91675 8.08319 7.91675 8.03432C7.91675 7.98546 7.95659 7.94564 8.0055 7.94564C8.0544 7.94745 8.09426 7.98546 8.09426 8.03432Z" fill="#024B68"/>
<path d="M8.75616 6.08724L8.02985 6.71345L7.30353 6.08724L6.97388 6.4655L7.49553 7.32879L8.02985 6.75688L8.56236 7.32879L9.084 6.4655L8.75616 6.08724Z" fill="#D3D3D3"/>
<path d="M7.30353 6.08724L8.02985 6.71164L7.49553 7.24373L6.97388 6.43835L7.30353 6.08724Z" fill="white"/>
<path d="M8.75634 6.08724L8.03003 6.71164L8.56254 7.24373L9.08418 6.43835L8.75634 6.08724Z" fill="white"/>
<path d="M7.00332 1.87774C7.0323 1.85965 7.06309 1.84155 7.09388 1.82345L6.55956 1.39633C6.53782 1.38004 6.50704 1.38366 6.49074 1.40357C6.47443 1.42529 6.47805 1.45605 6.49798 1.47234L7.00332 1.87774Z" fill="#DB9F5D"/>
<path d="M7.28337 1.73134L7.21273 1.0979C7.20911 1.07075 7.18557 1.05084 7.1584 1.05446C7.13123 1.05808 7.11131 1.08161 7.11493 1.10876L7.18918 1.77297C7.21997 1.75849 7.25258 1.74401 7.28337 1.73134Z" fill="#DB9F5D"/>
<path d="M9.28487 2.61996C9.10193 3.15929 8.46798 3.43077 7.86845 3.22807C7.26892 3.02536 6.93203 2.42269 7.11497 1.88336C7.29791 1.34403 7.93185 1.07074 8.53138 1.27525C9.13091 1.47795 9.4678 2.08063 9.28487 2.61996Z" fill="#351601"/>
<path d="M9.89309 3.49043C9.89309 4.54726 9.07086 5.41045 8.05848 5.40502C6.76538 5.39779 6.22388 4.54726 6.22388 3.49043C6.22388 2.43361 7.0461 1.57584 8.05848 1.57584C9.07267 1.57765 9.89309 2.43361 9.89309 3.49043Z" fill="black"/>
<path d="M7.41016 5.34701V5.66735C7.63656 5.82299 7.82856 5.92073 7.92818 5.96416C7.97346 5.98407 8.02237 5.98588 8.06403 5.96959C8.1727 5.92435 8.40273 5.823 8.65993 5.66192V5.34701H7.41016Z" fill="#DB9F5D"/>
<path d="M9.49888 3.75797C9.45903 3.74349 9.41557 3.74892 9.3721 3.76883C9.41738 3.33995 9.44274 2.90925 9.37754 2.80611C9.06785 2.32112 8.54083 2.0352 8.00656 2.0153C7.4723 2.0352 6.94529 2.32112 6.6356 2.80611C6.5704 2.90745 6.59575 3.3309 6.63921 3.75616C6.60843 3.74892 6.57764 3.74711 6.54866 3.75797C6.42189 3.79959 6.37842 4.0077 6.44905 4.21943C6.50701 4.39315 6.62653 4.51802 6.73701 4.53249C6.75512 4.65193 6.76599 4.72793 6.76599 4.72793C7.02497 5.41559 7.71136 5.75399 7.93412 5.8481C7.9794 5.86619 8.03011 5.868 8.06995 5.85172C8.28547 5.76123 8.98272 5.42283 9.24533 4.72974C9.24533 4.72974 9.25801 4.65555 9.27431 4.5343C9.39384 4.54335 9.53148 4.41306 9.59668 4.22124C9.66731 4.0077 9.62384 3.79959 9.49888 3.75797Z" fill="#EDBB7E"/>
<path d="M9.89309 3.22605C9.89309 2.31581 9.07086 1.57748 8.05848 1.57748C7.04428 1.57748 6.22388 2.31581 6.22388 3.22605C6.22388 3.53188 6.28545 3.8178 6.41585 4.06391C6.40317 3.91371 6.45207 3.79066 6.54624 3.75808C6.56797 3.75084 6.58971 3.74903 6.61326 3.75265C6.66215 3.94447 6.71468 4.07658 6.71468 3.96981C6.71468 3.84314 6.74003 3.38711 6.76177 3.217C7.21996 3.16814 8.00596 3.07766 8.52574 2.64516C8.65613 2.99442 8.90605 3.23691 9.32622 3.34549C9.34433 3.50835 9.35158 3.85037 9.35158 3.96257C9.35158 4.06753 9.40048 3.94086 9.44575 3.75265C9.46386 3.75265 9.48197 3.75446 9.50008 3.75989C9.59969 3.79428 9.64678 3.92819 9.62867 4.08744C9.79529 3.83409 9.89309 3.54093 9.89309 3.22605Z" fill="#422009"/>
<path d="M8.09126 4.6301H7.91919C7.86123 4.6301 7.81414 4.59028 7.79421 4.53418C7.78878 4.55047 7.78516 4.56857 7.78516 4.58847C7.78516 4.66992 7.88477 4.69707 7.95903 4.69707H8.04959C8.12386 4.69707 8.22348 4.66992 8.22348 4.58847C8.22348 4.57038 8.21986 4.55228 8.21442 4.53418C8.19631 4.59028 8.14741 4.6301 8.09126 4.6301Z" fill="#DB9F5D"/>
<path d="M6.46101 3.91193C6.45919 3.89564 6.49361 3.81782 6.53527 3.83049C6.59866 3.8504 6.64032 3.97528 6.66568 4.09835C6.69284 4.22322 6.68017 4.31372 6.66568 4.27933C6.64575 4.23227 6.62764 4.08206 6.55157 3.94089C6.50085 3.84859 6.47006 4.04586 6.46101 3.91193Z" fill="#DB9F5D"/>
<path d="M9.58515 3.91193C9.58696 3.89564 9.55254 3.81782 9.51089 3.83049C9.44749 3.8504 9.40583 3.97528 9.38047 4.09835C9.3533 4.22322 9.36598 4.31372 9.38047 4.27933C9.40039 4.23227 9.41851 4.08206 9.49459 3.94089C9.5453 3.84859 9.57428 4.04586 9.58515 3.91193Z" fill="#DB9F5D"/>
<path d="M7.50153 4.51259C7.46893 4.61937 7.3023 4.661 7.13204 4.6067C6.96178 4.55241 6.84948 4.42391 6.88389 4.31713C6.91831 4.21035 7.08313 4.16872 7.25339 4.22302C7.42546 4.2755 7.53595 4.40581 7.50153 4.51259Z" fill="#EDAE7A"/>
<path d="M8.49789 4.51259C8.53049 4.61937 8.69713 4.661 8.86739 4.6067C9.03764 4.55241 9.14995 4.42391 9.11553 4.31713C9.08293 4.21035 8.91629 4.16872 8.74604 4.22302C8.57578 4.2755 8.46529 4.40581 8.49789 4.51259Z" fill="#EDAE7A"/>
<path d="M7.58263 4.956C7.53191 4.93429 7.52285 4.94333 7.51742 4.95057C7.50836 4.96143 7.50655 4.95962 7.53916 5.00487C7.55546 5.02659 7.60979 5.09898 7.60979 5.09898C7.60979 5.09898 7.75288 5.36865 8.02276 5.35598C8.29264 5.34331 8.40313 5.12613 8.42305 5.08088C8.43573 5.05554 8.46471 5.01573 8.47196 5.00125C8.49732 4.95419 8.49369 4.95238 8.48645 4.94695C8.46833 4.92705 8.46652 4.9379 8.43211 4.95419C8.41943 4.96143 8.20933 4.99763 7.99379 4.9922C7.78006 4.98858 7.62428 4.97229 7.58263 4.956Z" fill="#C6523C"/>
<path d="M8.25285 5.11539C8.31625 5.09548 8.33617 5.03937 8.35247 4.96698C8.27097 4.97965 8.12063 4.99594 7.96668 4.9887C7.84351 4.98327 7.71853 4.97965 7.63159 4.96517C7.64789 5.04661 7.66238 5.05566 7.7294 5.08824C7.67687 5.09186 7.666 5.14073 7.67325 5.20045C7.75475 5.27284 7.89603 5.338 8.01014 5.33438C8.17859 5.32895 8.28184 5.28008 8.33799 5.20045C8.32531 5.16606 8.29995 5.1172 8.25285 5.11539Z" fill="white"/>
<path d="M7.59497 4.96129C7.59497 4.96129 7.61308 5.03368 7.97171 5.03187C8.32853 5.03006 8.40279 4.96491 8.40279 4.96491C8.40279 4.96491 8.13472 4.93414 7.98801 4.93595C7.85217 4.93776 7.59497 4.96129 7.59497 4.96129Z" fill="#F98667"/>
<path d="M7.56519 5.03566C7.56519 5.03566 7.62495 5.3741 7.98721 5.38677C8.3241 5.39763 8.45271 5.03385 8.45271 5.03385C8.45271 5.03385 8.32411 5.22931 8.01076 5.24017C7.69741 5.24922 7.56519 5.03566 7.56519 5.03566Z" fill="#F98667"/>
<path d="M7.66447 3.92636C7.53406 3.92998 7.49602 3.95351 7.41633 3.96255C7.30041 3.97703 7.20622 3.93903 7.18449 3.91369C7.14464 3.86844 7.24788 3.80691 7.36562 3.79605C7.48154 3.78881 7.64274 3.88292 7.66447 3.92636Z" fill="white"/>
<path d="M7.49905 3.83945C7.50448 3.90279 7.46283 3.95709 7.40487 3.96252C7.34691 3.96795 7.29619 3.92089 7.29075 3.85936C7.28894 3.83945 7.29256 3.82135 7.298 3.80506C7.31249 3.76706 7.47551 3.79058 7.49362 3.8123C7.49543 3.81954 7.49724 3.82859 7.49905 3.83945Z" fill="#351601"/>
<path d="M7.46877 3.8468C7.47239 3.88843 7.44341 3.92643 7.40356 3.93005C7.36371 3.93367 7.32929 3.9011 7.32567 3.85947C7.32386 3.83413 7.33292 3.8106 7.34922 3.79613C7.36009 3.78527 7.37639 3.7907 7.39088 3.78889C7.41442 3.78708 7.43616 3.78527 7.45065 3.80518C7.46152 3.81784 7.46695 3.83232 7.46877 3.8468Z" fill="black"/>
<path d="M7.47913 3.84151C7.48095 3.85418 7.46646 3.86504 7.44653 3.86685C7.42842 3.86866 7.41212 3.85961 7.41031 3.84694C7.4085 3.83427 7.42298 3.82341 7.44291 3.8216C7.46283 3.81979 7.47913 3.82884 7.47913 3.84151Z" fill="white"/>
<path d="M7.06641 3.91191C7.06641 3.91191 7.13886 3.92458 7.18233 3.91191C7.20949 3.88476 7.23847 3.82866 7.3544 3.81237C7.47213 3.79608 7.57537 3.83952 7.66594 3.92096C7.64601 3.87752 7.54458 3.80875 7.47757 3.79246C7.26746 3.74722 7.11893 3.854 7.06641 3.91191Z" fill="black"/>
<path d="M8.41406 3.92627C8.54447 3.92989 8.58251 3.95342 8.66221 3.96247C8.77813 3.97695 8.87231 3.93894 8.89405 3.9136C8.9339 3.86836 8.83065 3.80682 8.71292 3.79597C8.597 3.78873 8.4358 3.88284 8.41406 3.92627Z" fill="white"/>
<path d="M8.5786 3.83936C8.57317 3.90271 8.61483 3.957 8.67279 3.96243C8.73075 3.96786 8.78146 3.92081 8.7869 3.85927C8.78871 3.83936 8.78509 3.82127 8.77965 3.80498C8.76516 3.76697 8.60214 3.7905 8.58403 3.81222C8.58222 3.81946 8.58041 3.82851 8.5786 3.83936Z" fill="#351601"/>
<path d="M8.60968 3.84672C8.60606 3.88834 8.63503 3.92635 8.67488 3.92997C8.71473 3.93359 8.74915 3.90101 8.75277 3.85939C8.75458 3.83405 8.74552 3.81052 8.72922 3.79604C8.71835 3.78518 8.70205 3.79061 8.68756 3.7888C8.66402 3.78699 8.64228 3.78518 8.62779 3.80509C8.61693 3.81776 8.61149 3.83224 8.60968 3.84672Z" fill="black"/>
<path d="M8.69815 3.84315C8.69634 3.85582 8.71083 3.86668 8.73075 3.86849C8.74886 3.8703 8.76516 3.86125 8.76698 3.84858C8.76879 3.83591 8.7543 3.82505 8.73438 3.82324C8.71445 3.82324 8.69815 3.83048 8.69815 3.84315Z" fill="white"/>
<path d="M9.01237 3.91191C9.01237 3.91191 8.93992 3.92458 8.89645 3.91191C8.86928 3.88476 8.8403 3.82866 8.72438 3.81237C8.60665 3.79608 8.50341 3.83952 8.41284 3.92096C8.43277 3.87752 8.5342 3.80875 8.60122 3.79246C8.80952 3.74722 8.95985 3.854 9.01237 3.91191Z" fill="black"/>
<path d="M8.74566 3.41419C9.04814 3.37619 9.13688 3.5065 9.13688 3.5065C9.08074 3.378 8.92135 3.29655 8.74203 3.31646C8.56272 3.33637 8.42506 3.4522 8.3997 3.59156C8.39789 3.58975 8.44861 3.4522 8.74566 3.41419Z" fill="black"/>
<path d="M7.3576 3.41418C7.62567 3.4558 7.70717 3.58611 7.70717 3.58611C7.68 3.44857 7.54054 3.33455 7.36303 3.31464C7.18372 3.29654 7.02433 3.37979 6.96999 3.50829C6.96818 3.5101 7.08048 3.37074 7.3576 3.41418Z" fill="black"/>
<path d="M6.50326 7.43528C6.71153 7.2887 5.34418 6.92858 5.37316 6.94487C4.85157 7.76825 4.60346 8.83051 4.41692 8.84317C4.28653 8.85222 3.48965 7.80083 3.09665 7.37918L2.58594 7.71034C3.00791 8.40162 3.85549 9.86381 4.56542 9.85114C5.30434 9.84209 5.92734 7.88588 6.50326 7.43528Z" fill="white"/>
<path d="M10.1144 8.56275C10.1144 8.56094 10.1144 8.56094 10.1144 8.56275L10.1162 6.66987C10.1162 6.66987 9.18533 6.5251 9.17628 6.52148C9.10021 7.56021 8.59312 8.36188 7.97917 8.36188C7.36703 8.36188 6.86355 7.56745 6.78387 6.53596L5.93086 6.66445V8.53741C5.89282 8.64056 5.87109 8.75276 5.87109 8.87039C5.87109 9.27393 6.11921 9.61776 6.47237 9.76072C6.53032 9.96883 6.5756 10.1878 6.6082 10.4122C6.67159 10.8574 6.70418 11.2881 6.68607 11.688C6.68607 11.688 6.68426 11.688 6.68426 11.6898H9.39361C9.38817 11.6862 9.38274 11.6807 9.37731 11.6771C9.3592 11.2808 9.39179 10.8537 9.45518 10.414C9.48597 10.1932 9.53125 9.97969 9.58739 9.77701C9.9315 9.63043 10.1742 9.28841 10.1742 8.8921C10.1724 8.77448 10.1506 8.66409 10.1144 8.56275Z" fill="#37466D"/>
<path opacity="0.3" d="M7.86216 4.07468C7.86216 4.24842 7.63938 4.38959 7.36407 4.38959C7.08875 4.38959 6.86597 4.24842 6.86597 4.07468C6.86597 3.90093 7.08875 3.75977 7.36407 3.75977C7.63938 3.75977 7.86216 3.90093 7.86216 4.07468Z" fill="white"/>
<path opacity="0.3" d="M9.15264 4.07132C9.15264 4.24868 8.93348 4.39166 8.6636 4.39166C8.39372 4.39166 8.17456 4.24868 8.17456 4.07132C8.17456 3.89395 8.39372 3.75098 8.6636 3.75098C8.93348 3.75098 9.15264 3.89395 9.15264 4.07132Z" fill="white"/>
<path d="M9.54095 3.72196C9.51921 3.70929 9.4848 3.70024 9.45944 3.70205C9.33627 3.70386 9.26926 3.77263 9.1153 3.90475C9.03198 3.79073 8.86353 3.71472 8.66248 3.71472C8.40166 3.71472 8.19517 3.84322 8.16076 4.01515C8.06476 3.99524 7.9742 3.99343 7.87277 4.01334C7.83836 3.84141 7.63006 3.71472 7.37104 3.71472C7.17362 3.71472 7.00698 3.78892 6.92185 3.89932C6.77152 3.77082 6.7045 3.70386 6.58314 3.70205C6.55779 3.70205 6.52518 3.7111 6.50164 3.72196C6.41832 3.7672 6.44006 3.86494 6.44006 3.86494C6.45998 3.81969 6.47809 3.77806 6.52338 3.7654C6.64654 3.7292 6.70088 3.79797 6.88744 3.95543C6.7842 4.17985 7.01423 4.41513 7.37104 4.41513C7.6536 4.41513 7.87458 4.2631 7.8782 4.06945C7.97239 4.04954 8.06839 4.05135 8.15533 4.06945C8.15895 4.2631 8.37993 4.41513 8.66248 4.41513C9.01206 4.41513 9.24571 4.18709 9.1479 3.96086C9.33808 3.79978 9.39423 3.7292 9.5174 3.7654C9.56449 3.77987 9.58079 3.8215 9.60072 3.86494C9.60434 3.86494 9.62427 3.7672 9.54095 3.72196ZM7.37286 4.35902C7.03958 4.35902 6.82042 4.13098 6.96714 3.93552C7.0414 3.83779 7.19354 3.76901 7.37286 3.76901C7.62281 3.76901 7.82386 3.90113 7.82386 4.06402C7.82386 4.2269 7.621 4.35902 7.37286 4.35902ZM8.6643 4.35902C8.41434 4.35902 8.21328 4.2269 8.21328 4.06402C8.21328 3.90113 8.41615 3.76901 8.6643 3.76901C8.91425 3.76901 9.1153 3.90113 9.1153 4.06402C9.1153 4.2269 8.91425 4.35902 8.6643 4.35902Z" fill="black"/>
<path d="M9.37601 11.6768C9.37419 11.6479 9.37419 11.6208 9.37419 11.5918H6.68839C6.68839 11.6244 6.68658 11.6569 6.68477 11.6895C6.41854 11.8904 6.19578 12.1492 6.03097 12.4459C5.9042 12.674 5.81003 12.9345 5.76294 13.1951C6.45114 13.4919 7.20998 13.6566 8.00684 13.6566C8.82725 13.6566 9.60601 13.4829 10.3087 13.168C10.2562 12.902 10.162 12.6541 10.0352 12.4278C9.87405 12.1401 9.64948 11.8795 9.37601 11.6768Z" fill="#333333"/>
<path d="M9.37998 11.5628H6.68481V11.6768H9.37998V11.5628Z" fill="#6D4222"/>
<path d="M8.28714 11.5286H7.7981V11.7169H8.28714V11.5286Z" fill="#232323"/>
<path d="M9.04835 9.53971L7.52344 11.2245L8.87629 12.3736L9.80175 13.1608L11.2198 11.5357L9.04835 9.53971Z" fill="#6FA558"/>
<path d="M9.20272 10.1298L8.23315 11.2008L8.62001 11.5505L9.58957 10.4794L9.20272 10.1298Z" fill="white"/>
<path d="M9.05149 10.5443C9.06054 10.5515 9.06055 10.5642 9.0533 10.5732L8.50086 11.1832C8.49362 11.1922 8.48094 11.1922 8.47188 11.185C8.46283 11.1777 8.46282 11.1651 8.47007 11.156L9.02251 10.5461C9.02975 10.537 9.04243 10.537 9.05149 10.5443Z" fill="#A3A3A3"/>
<path d="M9.12449 10.6091C9.13354 10.6163 9.13354 10.629 9.1263 10.6381L8.57386 11.248C8.56662 11.257 8.55394 11.257 8.54488 11.2498C8.53582 11.2425 8.53582 11.2299 8.54307 11.2208L9.0955 10.6109C9.10275 10.6037 9.11543 10.6019 9.12449 10.6091Z" fill="#A3A3A3"/>
<path d="M9.19602 10.6762C9.20508 10.6834 9.20508 10.6961 9.19783 10.7052L8.6454 11.3151C8.63815 11.3241 8.62547 11.3241 8.61641 11.3169C8.60736 11.3096 8.60736 11.297 8.6146 11.2879L9.16704 10.678C9.17428 10.669 9.18696 10.6672 9.19602 10.6762Z" fill="#A3A3A3"/>
<path d="M9.70851 11.9123C9.65236 11.8978 9.53101 11.8326 9.25207 11.8272C9.17238 11.8254 8.89887 11.762 8.74129 11.61C8.74129 11.61 8.62899 11.6951 8.74129 11.8363C8.85359 11.9774 9.01841 12.0444 9.01841 12.0444C9.01841 12.0444 9.17599 12.0932 9.18505 12.2036C9.1923 12.2887 9.13977 12.3484 8.87351 12.3738L8.7105 12.2308C8.7105 12.2308 8.63443 12.267 8.65073 12.3394C8.66703 12.4136 8.69238 12.5186 8.69238 12.5186C8.69238 12.5186 8.68514 12.6398 8.84091 12.6272C8.8065 12.6453 8.81736 12.6851 8.83004 12.7321C8.84453 12.7864 8.89887 12.8172 8.95321 12.8027C9.20317 12.7357 9.2883 12.714 9.03472 12.7828C8.99125 12.7937 9.00211 12.8299 9.01298 12.8733C9.02385 12.9167 9.06913 12.9421 9.1126 12.9312L9.21765 12.9022C9.23214 12.9656 9.27018 12.9837 9.31003 12.9728L9.62157 12.8896C9.69402 12.8697 10.0219 12.5439 10.1541 12.3249C10.2392 12.1801 9.87695 11.9539 9.70851 11.9123Z" fill="#EDBB7E"/>
<path d="M10.7152 7.06066C10.5377 6.7295 10.3059 6.69873 10.1139 6.66797V8.56084C10.1139 8.56084 10.1139 8.56265 10.1121 8.56265C10.1302 8.5337 10.1483 8.50655 10.1683 8.47941C10.3856 8.84857 10.8148 9.75339 10.8221 10.1805C10.8275 10.47 9.8966 11.5504 9.70825 11.9105L10.1393 12.3412C10.6627 11.8743 11.628 10.8916 11.704 10.1877C11.7855 9.4548 11.0919 7.68679 10.7152 7.06066Z" fill="white"/>
<path d="M9.18339 12.5511L8.84106 12.6271L9.17796 12.5348L9.18339 12.5511Z" fill="#B77641"/>
<path d="M9.33954 12.7101L9.02075 12.7861L9.33591 12.6956L9.33954 12.7101Z" fill="#B77641"/>
<path d="M9.45965 12.8478L9.21875 12.9021L9.45421 12.8333L9.45965 12.8478Z" fill="#B77641"/>
<path d="M8.81641 12.3265C8.82003 12.3555 8.84719 12.3754 8.87617 12.3736L8.81641 12.3229V12.3265Z" fill="#B77641"/>
<path d="M2.12564 7.07865C2.12564 7.07865 2.05137 7.142 2.04956 7.15648C2.04956 7.16915 2.09485 7.1058 2.14375 7.08227C2.16549 7.06961 2.12564 7.07865 2.12564 7.07865Z" fill="#C4894E"/>
<path d="M2.35902 6.40758C2.38257 6.50169 2.48943 6.5216 2.48943 6.5216L1.97321 3.47384C1.97321 3.47384 1.91707 3.18607 1.95692 3.47746C2.08008 4.40047 2.34091 6.33519 2.35902 6.40758Z" fill="#567199"/>
<path d="M1.99735 6.82006C1.97019 6.82368 1.91947 6.8454 1.90498 6.92322C1.88868 7.00104 1.89954 7.04448 1.97562 7.0662C2.05169 7.08792 2.16761 7.11325 2.23463 7.13859C2.30346 7.16393 2.38134 7.19651 2.44293 7.11868C2.50451 7.04086 2.18934 6.90331 2.13682 6.87617C2.0861 6.84902 2.00641 6.81825 1.99735 6.82006Z" fill="#C4894E"/>
<path d="M1.98487 6.81285C1.9577 6.82009 1.9088 6.84361 1.89974 6.92144C1.89069 6.99926 1.90336 7.0427 1.98125 7.05899C2.05913 7.07527 2.17505 7.09156 2.24569 7.11147C2.31633 7.13138 2.39603 7.15853 2.45218 7.07527C2.50652 6.99383 2.18229 6.878 2.12977 6.85628C2.07362 6.83457 1.99211 6.80923 1.98487 6.81285Z" fill="#EDBB7E"/>
<path d="M1.99099 6.68232C1.9928 6.76919 2.12683 6.85787 2.2029 6.9194C2.2826 6.98456 2.43655 7.08772 2.48365 7.10763C2.57059 7.14382 2.64485 7.08591 2.64847 7.0298C2.6521 6.96284 2.61949 6.91578 2.4764 6.81081C2.33331 6.70584 2.19565 6.62078 2.18298 6.60992C2.10328 6.53572 1.98918 6.60449 1.99099 6.68232Z" fill="#C4894E"/>
<path d="M2.17112 5.93131C2.17112 5.93131 2.08417 6.03809 2.17655 6.19917C2.27073 6.36024 2.35043 6.39101 2.35043 6.39101C2.35043 6.39101 2.29609 6.17021 2.29971 6.01095C2.29971 5.97113 2.17112 5.93131 2.17112 5.93131Z" fill="#EDBB7E"/>
<path d="M2.27104 6.28061C2.24931 6.27156 2.21851 6.24804 2.18228 6.28242C2.14606 6.31681 2.09172 6.31138 2.08991 6.35663C2.0881 6.40006 2.1207 6.47788 2.28734 6.65706C2.5228 6.90682 2.56627 6.86881 2.5862 6.86157C2.67857 6.82537 2.64416 6.68602 2.51194 6.54485C2.37971 6.40187 2.27104 6.28061 2.27104 6.28061Z" fill="#C4894E"/>
<path d="M2.09308 6.53761C2.07134 6.54123 1.98259 6.58104 1.9844 6.66792C1.98621 6.75479 2.10395 6.82537 2.18545 6.87967C2.26877 6.93215 2.43904 7.04979 2.48794 7.06608C2.54047 7.08418 2.5948 7.07332 2.60929 7.02264C2.62559 6.97197 2.57488 6.88872 2.43179 6.78375C2.2887 6.67878 2.1764 6.58104 2.16553 6.57019C2.15466 6.55933 2.1293 6.53037 2.09308 6.53761Z" fill="#EDBB7E"/>
<path d="M2.24759 6.27879C2.22766 6.2625 2.19325 6.24802 2.15884 6.27879C2.12442 6.30956 2.08277 6.32765 2.08095 6.36747C2.07914 6.40729 2.09182 6.46158 2.27114 6.61904C2.45045 6.77468 2.49754 6.83079 2.5718 6.7964C2.64606 6.76382 2.60259 6.68057 2.48124 6.53578C2.36169 6.391 2.24759 6.27879 2.24759 6.27879Z" fill="#EDBB7E"/>
<path d="M2.28061 5.73242C2.28061 5.73242 2.17193 5.92064 2.14838 5.97494C2.12484 6.02743 2.15381 6.14868 2.16468 6.16859C2.17374 6.18669 2.29872 6.07086 2.30597 6.04914C2.3277 5.99485 2.38204 5.78672 2.28061 5.73242Z" fill="#EDBB7E"/>
<path d="M2.51831 6.36204C2.51831 6.36204 2.5473 6.38195 2.64148 6.32584C2.60888 6.36385 2.52918 6.36204 2.53281 6.40186L2.51831 6.36204Z" fill="#C4894E"/>
</svg>
