<svg width="11" height="12" viewBox="0 0 11 12" fill="none" xmlns="http://www.w3.org/2000/svg">
<path fill-rule="evenodd" clip-rule="evenodd" d="M1.12571 8.53286C0.787994 8.51034 0.495305 8.24017 0.472791 7.87994V7.85743C0.472791 7.83492 0.472791 7.83492 0.472791 7.8124C0.495305 7.47469 0.76548 7.18201 1.12571 7.18201V6.8443C1.12571 5.29082 1.12571 3.5122 1.12571 2.8593V2.67919C1.12571 2.65667 1.12571 2.65667 1.12571 2.63415C1.12571 1.80113 1.80113 1.12571 2.65666 1.12571H7.56474V0.247657C7.56474 0.112572 7.45217 0 7.31709 0H7.24953H3.84991H3.06191H1.14821C0.517819 0 0 0.517826 0 1.14822C0 1.17074 0 1.17074 0 1.17074C0 1.21576 0 1.28331 0 1.37336C0 2.02627 0 3.80489 0 5.35836C0 5.49345 0 5.60602 0 5.71859C0 6.70921 0 7.56475 0 7.8124C0 7.83492 0 7.83492 0 7.85743C0 7.97 0.0225031 8.06006 0.0450172 8.15011C0.180102 8.62291 0.585364 8.96062 1.08067 9.00565C1.10319 9.00565 1.10319 9.00565 1.12571 9.00565H1.14821C1.1257 8.89308 1.12571 8.73548 1.12571 8.53286Z" fill="#8CCE26"/>
<path d="M9.88381 10.6716H3.98511V10.8742H9.88381V10.6716Z" fill="#C7C3C2"/>
<path d="M9.88381 10.9193H3.98511V11.1219H9.88381V10.9193Z" fill="#C7C3C2"/>
<path d="M9.88381 11.1895H3.98511V11.3921H9.88381V11.1895Z" fill="#C7C3C2"/>
<path d="M9.88381 10.4014H3.98511V10.6041H9.88381V10.4014Z" fill="#C7C3C2"/>
<path d="M3.33194 9.16325H2.34131V9.36587H3.33194V9.16325Z" fill="#C7C3C2"/>
<path d="M3.33194 9.41087H2.34131V9.61349H3.33194V9.41087Z" fill="#C7C3C2"/>
<path d="M3.33194 9.68111H2.34131V9.88375H3.33194V9.68111Z" fill="#C7C3C2"/>
<path d="M3.33194 8.8931H2.34131V9.09573H3.33194V8.8931Z" fill="#C7C3C2"/>
<path fill-rule="evenodd" clip-rule="evenodd" d="M10.334 10.6492C10.1989 10.6492 10.0863 10.7618 10.0863 10.8968V11.5497H4.1426C3.78237 11.5497 3.48969 11.2571 3.46718 10.8968V10.8743C3.46718 10.8518 3.46718 10.8518 3.46718 10.8293C3.48969 10.4916 3.78237 10.1989 4.1426 10.1989H10.2664C10.289 10.1989 10.3115 10.1989 10.3115 10.1764C10.4466 10.1764 10.5591 10.0638 10.5591 9.95124V3.26455C10.5591 3.12946 10.4466 3.0169 10.3115 3.0169H10.2439H6.84429H6.10133H4.1426C3.5122 3.0169 2.99438 3.53472 2.99438 4.16511V4.18763C2.99438 4.23266 2.99438 4.3002 2.99438 4.39025C2.99438 5.04316 2.99438 6.82178 2.99438 8.37526C2.99438 8.48783 2.99438 8.62291 2.99438 8.73548C2.99438 9.7261 2.99438 10.5816 2.99438 10.8293C2.99438 10.8518 2.99438 10.8518 2.99438 10.8743C2.99438 10.9869 3.0169 11.0769 3.03942 11.167C3.15199 11.6398 3.57975 11.9775 4.07506 12C4.09757 12 4.09758 12 4.12009 12H10.334C10.4691 12 10.5816 11.8875 10.5816 11.7524V10.8518C10.5591 10.7618 10.4691 10.6492 10.334 10.6492Z" fill="#F7689D"/>
<path d="M1.9586 7.60983H0.87793V7.78994H1.9586V7.60983Z" fill="#C7C3C2"/>
<path d="M1.9586 7.87999H0.87793V8.0601H1.9586V7.87999Z" fill="#C7C3C2"/>
<path d="M1.9586 8.15014H0.87793V8.33025H1.9586V8.15014Z" fill="#C7C3C2"/>
<path d="M1.9586 7.36212H0.87793V7.54223H1.9586V7.36212Z" fill="#C7C3C2"/>
<path fill-rule="evenodd" clip-rule="evenodd" d="M2.63401 10.0413C2.27378 10.0188 2.00362 9.74862 1.98111 9.38839V9.36587C1.98111 9.34336 1.98111 9.34336 1.98111 9.32085C2.00362 8.98314 2.27378 8.69045 2.63401 8.69045V8.35274C2.63401 6.79927 2.63401 5.02065 2.63401 4.36774V4.21014C2.63401 4.18763 2.63401 4.16511 2.63401 4.16511C2.63401 3.33209 3.30943 2.65667 4.14245 2.65667H9.07305V1.75611C9.07305 1.62102 8.96047 1.50845 8.82539 1.50845H8.75785H5.35822H4.59274H2.65653C2.02613 1.50845 1.5083 2.02628 1.5083 2.65667V2.67919C1.5083 2.72421 1.5083 2.79176 1.5083 2.88181C1.5083 3.53472 1.5083 5.31333 1.5083 6.86681C1.5083 7.00189 1.5083 7.11446 1.5083 7.22703C1.5083 8.21765 1.5083 9.07319 1.5083 9.32085C1.5083 9.34336 1.5083 9.34336 1.5083 9.36587C1.5083 9.47845 1.53082 9.56851 1.55333 9.65856C1.68842 10.1314 2.09368 10.4691 2.58899 10.4916C2.6115 10.4916 2.61149 10.4916 2.63401 10.4916H2.65653C2.63401 10.379 2.63401 10.2214 2.63401 10.0413Z" fill="#FDC81A"/>
<path d="M7.38501 7.97668H6.50879C6.50879 7.84968 6.50879 7.78618 6.50879 7.75443C6.50879 7.48455 6.55747 7.24642 6.65482 7.07179C6.75218 6.89716 6.93067 6.69078 7.22275 6.46852C7.4986 6.24627 7.67709 6.10339 7.72577 6.02402C7.8069 5.91289 7.85558 5.80176 7.85558 5.65888C7.85558 5.46838 7.77444 5.3255 7.62841 5.18262C7.48237 5.05562 7.27143 4.99212 7.02803 4.99212C6.78463 4.99212 6.57369 5.05562 6.41143 5.1985C6.24916 5.34137 6.13558 5.54776 6.07067 5.81764L5.17822 5.70651C5.21068 5.30963 5.37294 4.96037 5.69747 4.69049C6.02199 4.40473 6.44388 4.27773 6.96313 4.27773C7.51482 4.27773 7.95294 4.42061 8.29369 4.70636C8.61822 4.99212 8.78048 5.30963 8.78048 5.69063C8.78048 5.89701 8.71558 6.08752 8.60199 6.27802C8.48841 6.46852 8.22878 6.72253 7.83935 7.04004C7.62841 7.21467 7.51482 7.34167 7.46614 7.43692C7.40124 7.53217 7.38501 7.7068 7.38501 7.97668ZM6.50879 9.23083V8.29419H7.38501V9.23083H6.50879Z" fill="white"/>
</svg>
