<svg width="17" height="12" viewBox="0 0 17 12" fill="none" xmlns="http://www.w3.org/2000/svg">
<path fill-rule="evenodd" clip-rule="evenodd" d="M8.15601 0.0985018H8.26682C8.26682 0.187153 8.68792 0.253642 8.84306 0.0985018C9.06469 -0.123127 9.41929 0.0985018 9.41929 0.0985018V0.741226C9.41929 0.741226 9.13117 0.497434 8.84306 0.741226C8.62143 0.918529 8.37764 0.829877 8.28898 0.763389C8.28898 0.85204 8.28898 1.118 8.28898 1.2953H8.17817C8.15601 0.940692 8.15601 0.54176 8.15601 0.0985018Z" fill="#FFE600"/>
<path fill-rule="evenodd" clip-rule="evenodd" d="M8.28885 1.29534C8.68778 1.33967 9.13104 1.69427 10.3943 2.40349C10.5273 2.46998 10.5938 2.60295 10.5938 2.73593V4.22084H13.0317C13.3198 4.22084 13.5415 4.46464 13.5415 4.73059V10.2713V11.4016L8.9759 11.3795V9.47345H7.46882V11.3795H2.90327L2.8811 10.7367L2.90327 10.1605V4.73059C2.90327 4.44247 3.14706 4.22084 3.41301 4.22084H5.85093V2.73593C5.85093 2.60295 5.91742 2.46998 6.0504 2.40349C7.29152 1.71644 7.73478 1.33967 8.13371 1.29534C8.17804 1.29534 8.24453 1.29534 8.28885 1.29534Z" fill="#808080"/>
<path fill-rule="evenodd" clip-rule="evenodd" d="M0.0443258 5.63922H2.88118C2.90334 5.63922 2.90334 5.66138 2.90334 5.66138V11.3794H0V5.68354C0 5.66138 0.0221629 5.63922 0.0443258 5.63922Z" fill="#363632"/>
<path d="M1.10822 6.88034H0.33252V7.5009H1.10822V6.88034Z" fill="white"/>
<path d="M2.48224 6.88044H1.70654V7.501H2.48224V6.88044Z" fill="white"/>
<path d="M1.15217 8.18803H0.376465V8.80859H1.15217V8.18803Z" fill="white"/>
<path d="M2.52668 8.18803H1.75098V8.80859H2.52668V8.18803Z" fill="white"/>
<path d="M1.19684 9.51778H0.421143V10.1383H1.19684V9.51778Z" fill="white"/>
<path d="M2.54865 9.51778H1.77295V10.1383H2.54865V9.51778Z" fill="white"/>
<path fill-rule="evenodd" clip-rule="evenodd" d="M13.5637 5.63922H16.4005C16.4227 5.63922 16.4448 5.66138 16.4448 5.68354V11.3794H13.5415V5.66138C13.5415 5.63922 13.5415 5.63922 13.5637 5.63922Z" fill="#363632"/>
<path d="M14.6497 6.88034H13.874V7.5009H14.6497V6.88034Z" fill="white"/>
<path d="M16.0237 6.88034H15.248V7.5009H16.0237V6.88034Z" fill="white"/>
<path d="M14.6939 8.18803H13.9182V8.80859H14.6939V8.18803Z" fill="white"/>
<path d="M16.0682 8.18803H15.2925V8.80859H16.0682V8.18803Z" fill="white"/>
<path d="M14.7164 9.51768H13.9407V10.1382H14.7164V9.51768Z" fill="white"/>
<path d="M16.0902 9.51778H15.3145V10.1383H16.0902V9.51778Z" fill="white"/>
<path d="M8.97607 9.47337H7.46899V11.3794H8.97607V9.47337Z" fill="#CCAC73"/>
<path fill-rule="evenodd" clip-rule="evenodd" d="M10.0841 11.6453C10.0841 11.6675 10.0619 11.6897 10.0398 11.6897H6.36073C6.33857 11.6897 6.31641 11.6675 6.31641 11.6453V11.5345C6.31641 11.5124 6.33857 11.4902 6.36073 11.4902H10.0398C10.0619 11.4902 10.0841 11.5124 10.0841 11.5345V11.6453Z" fill="black"/>
<path fill-rule="evenodd" clip-rule="evenodd" d="M10.3721 11.9557C10.3721 11.9778 10.3499 12 10.3278 12H6.11684C6.09467 12 6.07251 11.9778 6.07251 11.9557V11.8227C6.07251 11.8005 6.09467 11.7783 6.11684 11.7783H10.3278C10.3499 11.7783 10.3721 11.8005 10.3721 11.8227V11.9557Z" fill="black"/>
<path fill-rule="evenodd" clip-rule="evenodd" d="M8.2224 2.42567C7.71265 2.42567 7.31372 2.84677 7.31372 3.33435C7.31372 3.8441 7.71265 4.24303 8.2224 4.24303C8.73215 4.24303 9.13108 3.82194 9.13108 3.33435C9.13108 2.84677 8.73215 2.42567 8.2224 2.42567Z" fill="#E99F00"/>
<path fill-rule="evenodd" clip-rule="evenodd" d="M8.22234 4.08784C7.82341 4.08784 7.49097 3.7554 7.49097 3.35647C7.49097 2.95754 7.82341 2.62509 8.22234 2.62509C8.62127 2.62509 8.95372 2.95754 8.95372 3.35647C8.95372 3.7554 8.62127 4.08784 8.22234 4.08784Z" fill="#FFE600"/>
<path fill-rule="evenodd" clip-rule="evenodd" d="M7.77938 2.84677L7.91236 2.97974L7.86803 3.04623L7.71289 2.91326L7.77938 2.84677Z" fill="#4D4D4F"/>
<path fill-rule="evenodd" clip-rule="evenodd" d="M8.17798 2.66941H8.26663V2.86887H8.17798V2.66941Z" fill="#4D4D4F"/>
<path fill-rule="evenodd" clip-rule="evenodd" d="M8.26663 4.02137H8.17798V3.8219H8.26663V4.02137Z" fill="#4D4D4F"/>
<path fill-rule="evenodd" clip-rule="evenodd" d="M7.77938 3.86616L7.71289 3.79967L7.86803 3.66669L7.91236 3.71102L7.77938 3.86616Z" fill="#4D4D4F"/>
<path fill-rule="evenodd" clip-rule="evenodd" d="M8.53261 3.11264C8.53261 3.09047 8.51045 3.09047 8.51045 3.11264L8.26665 3.28994C8.24449 3.28994 8.24449 3.28994 8.24449 3.28994C8.24449 3.28994 8.24449 3.28994 8.22233 3.28994L8.04502 3.1348C8.02286 3.11264 8.02286 3.11264 8.0007 3.1348L7.97854 3.15696C7.95637 3.17913 7.95637 3.17913 7.97854 3.20129L8.15584 3.35643C8.15584 3.37859 8.178 3.40075 8.20017 3.42292V3.75536H8.22233V3.40075C8.24449 3.40075 8.26665 3.37859 8.26665 3.33427L8.51045 3.15696C8.55477 3.15696 8.55477 3.1348 8.53261 3.11264Z" fill="#3F1C00"/>
<path d="M7.75708 3.31218H7.55762V3.40083H7.75708V3.31218Z" fill="#4D4D4F"/>
<path fill-rule="evenodd" clip-rule="evenodd" d="M8.88751 3.31218V3.40083H8.71021V3.31218H8.88751Z" fill="#4D4D4F"/>
<path fill-rule="evenodd" clip-rule="evenodd" d="M8.59896 3.66669L8.73194 3.79967L8.66545 3.86616L8.53247 3.71102L8.59896 3.66669Z" fill="#4D4D4F"/>
<path fill-rule="evenodd" clip-rule="evenodd" d="M8.66545 2.84677L8.73194 2.91326L8.59896 3.04623L8.53247 2.97974L8.66545 2.84677Z" fill="#4D4D4F"/>
<path d="M12.6106 6.10462H11.3916V7.07979H12.6106V6.10462Z" fill="white"/>
<path d="M10.9707 7.50095H9.75171V8.47611H10.9707V7.50095Z" fill="white"/>
<path d="M12.6106 7.50085H11.3916V8.47601H12.6106V7.50085Z" fill="white"/>
<path d="M10.9707 6.10462H9.75171V7.07979H10.9707V6.10462Z" fill="white"/>
<path d="M10.9707 8.91933H9.75171V9.8945H10.9707V8.91933Z" fill="white"/>
<path d="M12.6106 8.91933H11.3916V9.8945H12.6106V8.91933Z" fill="white"/>
<path d="M6.69308 6.10462H5.47412V7.07979H6.69308V6.10462Z" fill="white"/>
<path d="M5.05343 7.50085H3.83447V8.47601H5.05343V7.50085Z" fill="white"/>
<path d="M6.69308 7.50095H5.47412V8.47611H6.69308V7.50095Z" fill="white"/>
<path d="M5.05343 6.10462H3.83447V7.07979H5.05343V6.10462Z" fill="white"/>
<path d="M5.05343 8.91933H3.83447V9.8945H5.05343V8.91933Z" fill="white"/>
<path d="M6.69308 8.91933H5.47412V9.8945H6.69308V8.91933Z" fill="white"/>
</svg>
