<svg width="239" height="178" viewBox="0 0 239 178" fill="none" xmlns="http://www.w3.org/2000/svg">
<path d="M146.857 7.33936H66.2937C63.7672 7.33936 61.6979 9.40859 61.6979 11.9351V173.038C61.6979 175.565 63.7672 177.634 66.2937 177.634H146.857C149.383 177.634 151.452 175.565 151.452 173.038V11.9351C151.441 9.40859 149.383 7.33936 146.857 7.33936Z" fill="#CA5F00"/>
<path d="M155.557 7.33936H74.9937C72.4672 7.33936 70.3979 9.40859 70.3979 11.9351V173.038C70.3979 175.565 72.4672 177.634 74.9937 177.634H155.557C158.083 177.634 160.152 175.565 160.152 173.038V11.9351C160.141 9.40859 158.083 7.33936 155.557 7.33936Z" fill="#E69D43"/>
<path opacity="0.4" d="M128.428 13.7874H105.095C104.592 13.7874 104.192 14.1989 104.192 14.6905C104.192 15.1935 104.603 15.5936 105.095 15.5936H128.428C128.931 15.5936 129.331 15.1821 129.331 14.6905C129.331 14.1989 128.92 13.7874 128.428 13.7874Z" fill="#CA5F00"/>
<path opacity="0.4" d="M100.956 13.7874C100.453 13.7874 100.053 14.1989 100.053 14.6905C100.053 15.1935 100.465 15.5936 100.956 15.5936C101.46 15.5936 101.86 15.1821 101.86 14.6905C101.86 14.1989 101.448 13.7874 100.956 13.7874Z" fill="#CA5F00"/>
<path opacity="0.4" d="M116.379 162.372C113.144 162.372 110.526 164.99 110.526 168.225C110.526 171.46 113.144 174.078 116.379 174.078C119.614 174.078 122.232 171.46 122.232 168.225C122.244 164.99 119.614 162.372 116.379 162.372Z" fill="#CA5F00"/>
<path d="M152.481 20.8408H77.8626V158.576H152.481V20.8408Z" fill="#D5E7F7"/>
<path d="M30.6593 172.055C30.6593 172.055 30.0191 177.279 31.0366 177.519C31.4367 177.611 43.2462 177.497 43.2462 177.497C43.2462 177.497 43.2462 176.079 41.3141 175.77C39.3821 175.462 35.9753 174.307 35.4037 171.746C34.832 169.185 30.6593 172.055 30.6593 172.055Z" fill="#233862"/>
<path d="M42.3546 145.006C42.3546 149.465 37.1987 173.004 37.1987 173.004C37.1987 173.004 32.0085 173.941 29.7563 171.701C29.7563 171.701 30.2479 149.865 31.0253 145.224C31.1853 144.286 30.9338 142.891 30.4423 141.211C28.5216 134.569 22.9198 123.297 24.2003 116.609C25.8122 108.229 37.1873 117.26 37.1873 117.26C37.1873 117.26 37.6903 119.513 38.3648 122.748C39.9081 129.916 42.3546 141.943 42.3546 145.006Z" fill="#2B478B"/>
<path d="M38.3878 122.748L30.4538 141.222C28.5332 134.58 22.9314 123.308 24.2118 116.62C25.8237 108.24 37.1988 117.272 37.1988 117.272C37.1988 117.272 37.7018 119.512 38.3878 122.748Z" fill="#233862"/>
<path d="M56.1649 108.617C56.1649 108.617 58.7257 104.582 59.7774 104.525C60.8178 104.479 63.4243 103.496 63.7559 104.022C64.0874 104.548 62.1553 105.828 61.3094 106.491C60.4748 107.154 59.9261 108.858 58.5085 108.915C57.1023 108.995 56.1649 108.617 56.1649 108.617Z" fill="#E49963"/>
<path d="M38.216 79.5112C38.216 79.5112 43.6806 95.4935 46.1957 98.523C48.7108 101.553 57.5136 106.034 57.5936 106.434C57.7765 107.383 57.0449 108.869 56.2218 108.881C53.2951 108.892 47.3503 106.674 44.6066 104.033C41.6914 101.244 37.0956 85.3074 37.0956 85.3074L38.216 79.5112Z" fill="#5F9AA8"/>
<path d="M63.596 98.4887C63.596 98.4887 66.717 98.4429 68.4204 97.3683C70.1238 96.3051 73.5649 96.3508 74.2737 96.8767C74.971 97.414 74.8567 97.7341 73.9993 98.2143C73.1419 98.6944 70.2724 100.981 67.9173 100.752C65.5623 100.535 62.7614 101.267 62.7614 101.267L63.596 98.4887Z" fill="#E49963"/>
<path d="M1.78166 167.379C1.78166 167.379 -0.367603 169.369 0.0553894 170.775C0.478382 172.192 2.41043 173.13 2.67337 174.856C2.93631 176.582 3.97664 177.52 4.92552 177.52C5.86296 177.52 9.41838 177.52 9.41838 177.52C9.41838 177.52 10.1158 176.308 8.43521 175.942C6.76611 175.576 6.1259 173.553 6.24022 171.666C6.34311 169.78 6.08017 167.276 6.08017 167.276L2.52475 166.442L1.78166 167.379Z" fill="#233862"/>
<path d="M37.4158 112.253C37.4158 112.253 23.9143 138.284 16.3805 151.785C8.84667 165.287 6.49163 169.048 6.49163 169.048C6.49163 169.048 2.17025 167.322 1.78156 166.144C1.78156 166.144 5.65708 143.817 11.9105 135.929C14.7571 132.339 14.6314 122.21 15.4774 116.551C16.0375 112.824 18.5755 106.24 18.5755 106.24L37.4158 112.253Z" fill="#2B478B"/>
<path d="M42.7546 73.7836C44.1607 75.4642 44.6637 77.179 44.6637 77.179C39.9765 76.8589 34.1689 70.4797 34.1689 70.4797C34.1689 70.4797 37.5643 69.5423 39.9651 65.7811C40.0908 65.5867 40.2052 65.3924 40.3195 65.198C40.6853 64.5578 41.0169 63.8376 41.3027 63.0374L42.686 65.4724L44.9953 69.5194C44.9953 69.5194 44.5151 70.7198 43.3948 72.6862C43.2004 73.0291 42.9832 73.395 42.7546 73.7836Z" fill="#E49963"/>
<path d="M46.0928 83.9239C45.9442 86.1989 45.2583 89.6515 44.3323 93.4698C43.9664 94.956 43.5663 96.4879 43.1548 98.0427C42.4803 100.558 41.7715 103.084 41.0398 105.462L41.0169 105.542C40.9598 105.782 40.8797 106.045 40.8111 106.274C40.1824 108.377 39.5765 110.321 39.0392 111.967C38.0331 115.122 38.0217 116.883 37.21 117.237C35.5866 117.958 29.2074 117.18 25.3776 115.523C22.1423 114.151 17.215 110.001 17.2493 107.909C17.2836 105.485 20.5304 98.1913 22.6796 89.6858C25.3319 79.2824 31.2309 70.9826 36.1468 69.2678C36.5126 69.1535 36.9013 69.9194 38.3304 71.2913C39.6451 72.5489 41.3027 73.3377 42.8804 73.5092L43.8178 75.0754C45.0754 77.3275 46.3215 80.2199 46.0928 83.9239Z" fill="#80BDCC"/>
<path d="M44.3328 93.4813C43.9669 94.9675 43.5668 96.4994 43.1552 98.0542C42.4807 100.569 41.7719 103.096 41.0403 105.474L41.0174 105.554C40.9603 105.794 40.8802 106.057 40.8116 106.285C40.1829 108.389 39.577 110.332 39.0396 111.979C28.8192 98.9916 34.6154 83.4324 34.6154 83.4324L44.3328 93.4813Z" fill="#5F9AA8"/>
<path d="M31.4139 80.0254C31.4139 80.0254 41.0741 102.444 47.076 103.05C50.037 103.347 62.521 102.444 66.0878 101.724C66.0878 101.724 66.7509 100.798 65.7677 98.0197C65.7677 98.0197 52.1062 96.8536 49.6711 94.8644C46.0357 91.892 47.1789 79.3509 42.9376 76.7901C38.7076 74.2064 32.7514 74.2407 31.4139 80.0254Z" fill="#80BDCC"/>
<path d="M44.9954 69.5078C44.9954 69.5078 44.5152 70.7082 43.3948 72.6745C40.5254 70.5595 40.0338 67.1756 39.9537 65.7809C39.9309 65.3922 39.9423 65.1521 39.9423 65.1521C39.9423 65.1521 40.0795 65.1635 40.3081 65.1978C40.7883 65.255 41.7029 65.3579 42.6746 65.4722L44.9954 69.5078Z" fill="#D68D5D"/>
<path d="M46.299 69.9195C46.299 69.9195 38.971 68.3647 40.0113 63.8033C41.0516 59.2533 40.8116 55.9836 45.5331 56.7839C50.2546 57.5842 50.769 59.5276 50.7919 61.1396C50.8148 62.7401 48.2425 70.2053 46.299 69.9195Z" fill="#E49963"/>
<path d="M39.942 64.112C39.942 64.112 42.3657 58.3158 48.9735 59.9506C52.1974 60.7509 50.1396 55.8465 49.8766 55.0805C49.8766 55.0805 48.5276 54.9662 44.8807 54.3831C37.2212 53.1713 39.5305 62.9687 39.942 64.112Z" fill="#2B478B"/>
<path d="M152.481 20.8408H147.691V24.019V26.4197L143.747 27.2772L141.174 31.7357L142.889 33.6221L140.488 36.7088L137.573 38.4236C137.573 38.4236 133.801 44.254 134.486 44.94C135.172 45.6259 136.887 48.3696 137.402 49.3985C137.916 50.4274 130.371 56.0864 130.371 56.0864C130.371 56.0864 125.398 56.7723 125.398 59.0016C125.398 59.0016 128.142 56.6008 131.743 57.6297L139.116 49.8101L136.373 44.6656L138.934 39.441L141.78 41.5789L140.408 45.6945L143.838 41.2016L140.9 38.4579L145.324 33.5077L142.889 30.6497L148.571 27.563L149.063 31.9415L146.239 36.663L147.119 39.4868L149.828 42.3791L147.805 38.9495L147.496 36.5144L150.777 32.1359L149.828 26.4197L152.481 25.6995V20.8408Z" fill="#80BDCC"/>
<path d="M138.945 27.7346L133.401 29.5523L133.995 33.5765L129.308 35.4857L130.337 40.0814L128.428 43.4997L120.082 42.5851L116.264 38.5495L112.674 42.4708L112.217 46.735L111.805 50.4848L109.519 52.1081L113.12 50.702L113.166 46.7578L113.829 42.4593L116.618 40.7331L118.367 43.3739L115.018 44.883L115.989 47.6381L115.944 45.2145L120.391 43.7512L128.782 44.8487L132.063 40.07L130.84 35.7943L134.795 34.6511L134.956 37.0519L135.996 33.908L135.036 30.0439L138.945 27.7346Z" fill="#80BDCC"/>
<path d="M143.575 53.8572L146.491 58.3157L138.945 64.6606L144.776 67.5758L143.918 72.8918L133.629 81.9805L142.032 72.5489L141.003 67.9188L136.03 64.1462L144.604 58.1443L143.575 53.8572Z" fill="#80BDCC"/>
<path d="M123.443 25.0366L122.7 28.5235L127.159 30.2383L128.302 32.3532L126.816 30.7527L121.614 29.1522L123.443 25.0366Z" fill="#80BDCC"/>
<path d="M143.564 46.3692L146.879 46.0834L150.938 43.2825L152.481 44.8258V46.8836L150.823 44.7115L147.394 47.6839L143.564 46.3692Z" fill="#80BDCC"/>
<path d="M77.8626 158.588L78.3999 154.644L81.8525 150.391L88.4717 146.813L86.0138 140.742L89.7407 136.398V132.659L90.8153 136.546L88.0716 140.353L90.4838 145.715L90.6667 145.624L92.3244 138.719L99.4124 131.688L113.017 140.045L99.4124 134.34L92.5073 146.069L94.7709 145.132L95.9141 148.287L100.876 146.23L101.333 142.8H106.054L102.396 143.714L102.476 147.293L95.4454 150.722L93.9363 147.899L90.6667 149.202L81.8525 154.506L83.3043 158.588H77.8626Z" fill="#80BDCC"/>
<path d="M38.9934 59.4246H57.868C57.9938 59.4246 58.0052 59.2303 57.8795 59.2189L51.4431 58.5101C51.4431 58.5101 51.546 52.7939 45.4984 52.7939C39.4507 52.7939 38.6619 57.0353 38.9934 59.4246Z" fill="#5F9AA8"/>
<path d="M79.7723 33.5423C79.8523 32.2619 79.7151 31.0157 79.4179 29.8382L81.8072 28.4778L78.6633 22.9789L76.274 24.3393C74.9822 23.0475 73.3931 22.0414 71.6211 21.447L71.7811 18.7032L65.4591 18.3374L65.2991 21.0811C63.4585 21.4698 61.7665 22.2815 60.3375 23.4133L58.1196 21.7671L54.3584 26.8658L56.5648 28.5007C56.119 29.6324 55.8446 30.8557 55.776 32.1475C55.696 33.4279 55.8332 34.6741 56.1304 35.8516L53.7411 37.2006L56.885 42.6995L59.2743 41.339C60.5661 42.6309 62.1552 43.6369 63.9272 44.2314L63.7672 46.9751L70.0892 47.341L70.2492 44.5972C72.0898 44.2085 73.7818 43.3968 75.2108 42.2651L77.4287 43.8999L81.1899 38.8011L78.9834 37.1663C79.4293 36.0459 79.7037 34.8227 79.7723 33.5423ZM67.3111 40.7331C62.944 40.4816 59.6172 36.7319 59.8688 32.3647C60.1203 27.9976 63.87 24.6709 68.2372 24.9224C72.6043 25.1739 75.931 28.9236 75.6795 33.2908C75.4166 37.6693 71.6782 40.9961 67.3111 40.7331Z" fill="#163560"/>
<path d="M89.467 6.79074C88.9755 5.87616 88.3696 5.07591 87.6608 4.40141L88.724 2.46936L84.2654 0.0228641L83.2022 1.96634C81.7732 1.62338 80.2641 1.60051 78.7893 1.94348L77.749 0L73.2561 2.40077L74.2965 4.34425C73.199 5.38458 72.3759 6.64212 71.8729 8.02542L69.6664 7.83108L69.2206 12.907L71.427 13.1013C71.5985 14.0616 71.93 15.0219 72.4102 15.9251C72.9018 16.8397 73.5077 17.6399 74.2165 18.3144L73.1533 20.2465L77.6118 22.693L78.675 20.7495C80.1041 21.0925 81.6131 21.1153 83.0879 20.7724L84.1282 22.7158L88.6211 20.3151L87.5807 18.3716C88.6782 17.3313 89.5013 16.0737 90.0044 14.6904L92.2108 14.8848L92.6566 9.80885L90.4502 9.6145C90.2787 8.6542 89.9472 7.70532 89.467 6.79074ZM83.9453 16.9654C80.8471 18.6231 76.9945 17.457 75.3368 14.3474C73.6791 11.2493 74.8452 7.39665 77.9548 5.73898C81.0529 4.0813 84.9056 5.24739 86.5633 8.35696C88.2095 11.4437 87.0434 15.3078 83.9453 16.9654Z" fill="#163560"/>
<path d="M52.3465 27.4144C51.9235 26.6141 51.3862 25.9167 50.7688 25.3108L51.7063 23.6074L47.7965 21.4582L46.859 23.1616C45.6129 22.8643 44.2868 22.8415 42.9949 23.1387L42.0804 21.4353L38.1477 23.5388L39.0622 25.2422C38.1019 26.1568 37.3817 27.2657 36.9359 28.4661L35.0038 28.2946L34.6151 32.7418L36.5472 32.9133C36.6958 33.7592 36.9816 34.5938 37.416 35.3941C37.839 36.1943 38.3763 36.8917 38.9937 37.4976L38.0562 39.201L41.966 41.3502L42.9035 39.6468C44.1496 39.9441 45.4757 39.9669 46.7676 39.6697L47.6821 41.3731L51.6148 39.2696L50.7003 37.5662C51.6606 36.6516 52.3808 35.5427 52.8266 34.3423L54.7587 34.5138L55.1474 30.0666L53.2153 29.8952C53.0553 29.0492 52.7809 28.2146 52.3465 27.4144ZM47.4992 36.3315C44.7784 37.7834 41.3944 36.7545 39.9425 34.045C38.4906 31.3242 39.5195 27.9402 42.229 26.4883C44.9498 25.0365 48.3338 26.0654 49.7857 28.7748C51.249 31.4957 50.2201 34.8796 47.4992 36.3315Z" fill="#163560"/>
<path d="M144.684 111.601L117.715 64.8893C116.584 62.9344 113.771 62.9344 112.64 64.8893L85.671 111.601C84.5392 113.556 85.9568 115.991 88.2089 115.991H142.146C144.398 116.003 145.816 113.556 144.684 111.601ZM119.419 108.926H110.948V101.438H119.419V108.926ZM119.716 85.3301L117.967 99.3231H112.354L110.639 85.3301V78.3564H119.705V85.3301H119.716Z" fill="#B74B42"/>
<path d="M162.667 92.7952C162.667 92.7952 160.06 91.0575 159.214 89.2398C158.357 87.4221 156.047 87.1019 155.167 87.1705C154.287 87.2391 153.418 88.4738 154.356 88.7482C155.785 89.1598 155.705 91.2747 157.797 92.3608C159.9 93.4583 161.855 95.5847 161.855 95.5847L162.667 92.7952Z" fill="#AB7041"/>
<path d="M162.815 177.863L150.606 177.44C150.663 177.108 150.971 176.022 152.618 175.839C154.573 175.622 158.025 174.605 158.745 171.964C159.466 169.323 163.455 173.05 163.455 173.05C163.455 173.05 163.741 177.337 162.815 177.863Z" fill="#233862"/>
<path d="M185.817 126.497C183.634 130.579 178.604 136.203 176.672 140.628C176.214 141.668 175.928 142.651 175.894 143.532C175.505 153.592 163.89 173.061 163.89 173.061C162.827 173.701 158.426 172.192 158.426 172.192C158.426 172.192 159.089 167.802 162.175 152.654C163.879 144.297 166.68 131.871 168.852 122.405C169.412 119.97 169.926 117.729 170.372 115.797C171.333 111.647 171.973 108.96 171.973 108.96L176.203 109.178L187.635 109.761C187.646 109.761 192.242 114.471 185.817 126.497Z" fill="#2B478B"/>
<path d="M185.817 126.497C183.634 130.579 178.603 136.203 176.671 140.628C174.328 135.197 170.784 126.955 168.852 122.393C169.412 119.958 169.926 117.717 170.372 115.785C171.07 112.916 171.298 111.624 171.973 108.949L187.635 109.749C187.646 109.761 192.242 114.471 185.817 126.497Z" fill="#233862"/>
<path d="M206.349 171.827C205.823 173.198 203.823 173.999 203.434 175.702C203.16 176.891 202.531 177.668 201.868 178L196.506 177.817C196.426 177.611 196.083 176.56 197.615 176.354C199.307 176.114 200.096 174.136 200.13 172.25C200.13 172.204 200.13 172.158 200.13 172.112C200.187 170.249 200.622 167.882 200.622 167.882L204.234 167.322L204.806 168.18L204.897 168.317C204.886 168.305 206.875 170.443 206.349 171.827Z" fill="#233862"/>
<path d="M182.959 151.237C184.971 155.216 199.73 172.65 199.73 172.65C199.73 172.65 204.783 171.141 205.778 168.134C205.778 168.134 197.398 153.626 193.363 146.916C192.208 144.995 192.528 116.266 188.355 110.881C183.131 104.136 172.842 116.232 172.842 116.232C172.842 116.232 175.586 126.372 176.432 129.573C178.318 136.661 181.565 148.493 182.959 151.237Z" fill="#2B478B"/>
<path d="M178.421 73.5436C177.769 70.5598 177.666 68.7878 177.666 68.7878L183.245 63.8262C183.348 70.2739 187.623 73.1663 187.623 73.1663C187.623 73.1663 180.078 77.3505 175.528 76.1615C175.528 76.1501 176.557 74.6868 178.421 73.5436Z" fill="#9C5F33"/>
<path d="M176.294 68.7422C176.294 68.7422 183.736 69.611 184.205 64.9581C184.674 60.3052 185.943 57.2985 181.21 56.544C176.477 55.8009 175.368 57.47 174.842 58.9905C174.305 60.4995 174.362 68.3992 176.294 68.7422Z" fill="#AB7041"/>
<path d="M184.171 65.2781C184.171 65.2781 183.714 59.1047 176.934 58.4417C172.293 57.9844 176.694 54.1317 177.197 53.5029C177.197 53.5029 178.958 53.8688 182.593 54.4747C190.253 55.7779 184.926 64.3178 184.171 65.2781Z" fill="#233862"/>
<path d="M172.019 82.0835C171.424 84.2899 170.978 87.7768 170.635 91.698C170.51 93.2185 170.395 94.8076 170.292 96.4081C170.132 99.0032 169.995 101.633 169.926 104.113V104.205C169.904 104.456 169.892 104.719 169.892 104.971C169.824 107.166 169.778 109.201 169.744 110.938C169.698 114.254 169.138 115.923 169.789 116.517C171.093 117.718 177.392 119.021 181.553 118.678C185.051 118.404 191.053 116.049 191.693 114.059C192.437 111.75 191.693 103.805 192.368 95.0477C193.168 84.3471 190.242 74.5954 186.126 71.3944C185.817 71.1657 185.2 71.7716 183.405 72.6062C181.759 73.3836 179.907 73.5894 178.363 73.2464L177.003 74.4353C175.082 76.1616 172.979 78.4938 172.019 82.0835Z" fill="#E2923D"/>
<path d="M170.292 96.4081C170.155 97.9286 170.384 94.8076 170.292 96.4081C170.132 99.0032 169.995 101.633 169.926 104.113V104.205C169.904 104.456 169.892 104.719 169.892 104.971C169.824 107.166 169.778 109.201 169.744 110.938C183.588 101.896 183.062 85.3074 183.062 85.3074L170.292 96.4081Z" fill="#D88029"/>
<path d="M181.245 61.2997C181.245 61.2997 180.902 59.7449 178.889 58.8303C178.889 58.8303 184.971 61.0253 184.594 62.9916C184.217 64.958 184.183 65.2781 184.183 65.2781C184.183 65.2781 180.89 64.3178 181.245 61.2997Z" fill="#233862"/>
<path d="M209.288 126.943L152.23 69.8851C149.68 67.3357 148.491 63.7346 148.971 60.1563C149.68 54.8746 148 49.3186 143.941 45.2601C141.072 42.3906 137.471 40.7101 133.732 40.2185L133.069 40.8816L142.547 50.3589L138.625 64.9921L123.992 68.9134L114.515 59.4361L113.852 60.0991C114.343 63.8375 116.024 67.4386 118.893 70.3081C122.952 74.3666 128.496 76.0471 133.789 75.3383C137.368 74.8581 140.957 76.0471 143.518 78.5965L200.576 135.655C203.126 138.204 204.315 141.805 203.835 145.384C203.126 150.665 204.806 156.221 208.865 160.28C211.734 163.149 215.335 164.83 219.074 165.321L219.737 164.658L210.26 155.181L214.181 140.548L228.814 136.626L238.291 146.104L238.954 145.441C238.463 141.702 236.782 138.101 233.913 135.232C229.854 131.173 224.31 129.493 219.017 130.202C215.438 130.682 211.849 129.493 209.288 126.943Z" fill="#163560"/>
<path d="M161.889 92.7266C161.889 92.7266 159.283 90.9889 158.437 89.1712C157.58 87.3534 155.27 87.0333 154.39 87.1019C153.51 87.1705 153.018 88.188 153.475 89.0568C154.07 90.1658 154.927 91.2061 157.019 92.3036C159.123 93.4011 161.078 95.5275 161.078 95.5275L161.889 92.7266Z" fill="#9E6138"/>
<path d="M189.921 82.9978C189.921 82.9978 176.328 103.279 170.315 102.776C167.354 102.524 161.009 96.5107 158.243 93.6298C158.243 93.6298 157.625 92.6581 160.312 90.8632C160.312 90.8632 169.618 96.0763 170.578 95.8477C172.258 95.459 174.545 79.4424 179.175 77.6933C183.816 75.9556 189.67 77.0645 189.921 82.9978Z" fill="#E2923D"/>
<path d="M186.709 59.985L168.635 54.6004C168.509 54.5661 168.555 54.3717 168.681 54.3946L175.048 55.5607C175.048 55.5607 176.58 50.0618 182.376 51.7881C188.173 53.5143 187.715 57.8014 186.709 59.985Z" fill="#5F9AA8"/>
</svg>
