<svg width="13" height="12" viewBox="0 0 13 12" fill="none" xmlns="http://www.w3.org/2000/svg">
<path d="M9.79112 8.93129H8.95239V6.8925H9.79112C10.3553 6.8925 10.8104 7.34912 10.8104 7.91096C10.8104 8.47468 10.3553 8.93129 9.79112 8.93129Z" fill="#2C9B47"/>
<path d="M9.65945 7.90721C9.65945 8.36946 9.28522 8.7434 8.8226 8.7434H4.59888V7.07291H8.8226C9.28522 7.07291 9.65945 7.44684 9.65945 7.90721Z" fill="#F8F07E"/>
<path d="M8.82291 8.74351H4.41113V8.93142H8.82291C9.38896 8.93142 9.84781 8.47292 9.84781 7.90732C9.84781 7.34172 9.38896 6.88323 8.82291 6.88323H4.41113V7.07114H8.82291C9.93056 7.07302 9.9362 8.74351 8.82291 8.74351Z" fill="#5BB947"/>
<path d="M8.75333 7.30978H4.60107V7.58413H8.75333V7.30978Z" fill="#FCC013"/>
<path d="M8.75333 7.77379H4.60107V8.04813H8.75333V7.77379Z" fill="#FCC013"/>
<path d="M8.75333 8.23984H4.60107V8.51418H8.75333V8.23984Z" fill="#FCC013"/>
<path d="M5.41357 8.42211L5.96458 8.09515L6.51558 8.42211V7.3097H5.41357V8.42211Z" fill="#EE3C24"/>
<path d="M10.8006 9.17934V10.2185C10.8006 10.3556 10.6897 10.4665 10.5524 10.4665H5.25677C5.11949 10.4665 5.11949 8.93318 5.25677 8.93318H10.5524C10.6897 8.9313 10.8006 9.04217 10.8006 9.17934Z" fill="#2855A3"/>
<path d="M8.39928 9.17933V10.2185C8.39928 10.3556 8.28832 10.4665 8.15104 10.4665H2.85541C2.71813 10.4665 2.60718 10.3556 2.60718 10.2185V10.194H8.13224V9.20376H2.60718V9.17933C2.60718 9.04216 2.71813 8.9313 2.85541 8.9313H8.15104C8.28832 8.9313 8.39928 9.04216 8.39928 9.17933Z" fill="#2790CF"/>
<path d="M8.13565 9.20365H2.85693V10.1939H8.13565V9.20365Z" fill="#A5DCE8"/>
<path d="M7.90998 9.35217H2.85693V9.50061H7.90998V9.35217Z" fill="#7AC5D1"/>
<path d="M7.90974 9.62459H2.85669V9.77303H7.90974V9.62459Z" fill="#7AC5D1"/>
<path d="M7.90974 9.89507H2.85669V10.0435H7.90974V9.89507Z" fill="#7AC5D1"/>
<path d="M6.19873 10.0135L6.54475 9.8181L6.89077 10.0135V9.35209H6.19873V10.0135Z" fill="#EE3C24"/>
<path d="M10.9991 10.7129V11.752C10.9991 11.8892 10.8882 12.0001 10.7509 12.0001H5.45526C5.31797 12.0001 5.31797 10.4668 5.45526 10.4668H10.7509C10.8882 10.4649 10.9991 10.5758 10.9991 10.7129Z" fill="#DB2927"/>
<path d="M8.59752 10.7128V11.7519C8.59752 11.8891 8.48657 12 8.34929 12H3.05365C2.91637 12 2.80542 11.8891 2.80542 11.7519V11.7275H8.33048V10.7372H2.80542V10.7128C2.80542 10.5756 2.91637 10.4648 3.05365 10.4648H8.35117C8.48657 10.4648 8.59752 10.5756 8.59752 10.7128Z" fill="#F16839"/>
<path d="M8.33413 10.7372H3.05542V11.7275H8.33413V10.7372Z" fill="#A5DCE8"/>
<path d="M8.10896 10.8858H3.05591V11.0342H8.10896V10.8858Z" fill="#7AC5D1"/>
<path d="M8.10896 11.1581H3.05591V11.3066H8.10896V11.1581Z" fill="#7AC5D1"/>
<path d="M8.10896 11.4306H3.05591V11.579H8.10896V11.4306Z" fill="#7AC5D1"/>
<path d="M6.39722 11.5471L6.74324 11.3536L7.08926 11.5471V10.8857H6.39722V11.5471Z" fill="#EE3C24"/>
<path d="M2.8208 4.05735V5.09647C2.8208 5.23364 2.93176 5.34451 3.06904 5.34451H8.36467C8.50195 5.34451 8.50195 3.81119 8.36467 3.81119H3.06904C2.93176 3.80931 2.8208 3.92017 2.8208 4.05735Z" fill="#2855A3"/>
<path d="M5.22217 4.05724V5.09637C5.22217 5.23354 5.33312 5.3444 5.4704 5.3444H10.766C10.9033 5.3444 11.0143 5.23354 11.0143 5.09637V5.07194H5.48921V4.08167H11.0143V4.05724C11.0143 3.92007 10.9033 3.8092 10.766 3.8092H5.4704C5.33312 3.8092 5.22217 3.92007 5.22217 4.05724Z" fill="#2790CF"/>
<path d="M10.766 4.08173H5.4873V5.072H10.766V4.08173Z" fill="#A5DCE8"/>
<path d="M10.765 4.22999H5.71191V4.37843H10.765V4.22999Z" fill="#7AC5D1"/>
<path d="M10.765 4.50244H5.71191V4.65089H10.765V4.50244Z" fill="#7AC5D1"/>
<path d="M10.765 4.77489H5.71191V4.92334H10.765V4.77489Z" fill="#7AC5D1"/>
<path d="M7.42251 4.89153L7.07649 4.69798L6.73047 4.89153V4.23009H7.42251V4.89153Z" fill="#EE3C24"/>
<path d="M2.62207 5.59027V6.6294C2.62207 6.76657 2.73303 6.87744 2.87031 6.87744H8.16594C8.30322 6.87744 8.30322 5.34412 8.16594 5.34412H2.87031C2.73303 5.34412 2.62207 5.45498 2.62207 5.59027Z" fill="#DB2927"/>
<path d="M5.02344 5.59019V6.62932C5.02344 6.76649 5.13439 6.87735 5.27167 6.87735H10.5673C10.7046 6.87735 10.8155 6.76649 10.8155 6.62932V6.60489H5.29048V5.61462H10.8137V5.59019C10.8137 5.45302 10.7027 5.34216 10.5654 5.34216H5.26979C5.13439 5.34403 5.02344 5.4549 5.02344 5.59019Z" fill="#F16839"/>
<path d="M10.5673 5.61453H5.28857V6.6048H10.5673V5.61453Z" fill="#A5DCE8"/>
<path d="M10.566 5.76298H5.51294V5.91142H10.566V5.76298Z" fill="#7AC5D1"/>
<path d="M10.566 6.03551H5.51294V6.18395H10.566V6.03551Z" fill="#7AC5D1"/>
<path d="M10.566 6.30796H5.51294V6.45641H10.566V6.30796Z" fill="#7AC5D1"/>
<path d="M7.22378 6.4244L6.87776 6.23086L6.53174 6.4244V5.76297H7.22378V6.4244Z" fill="#EE3C24"/>
<path d="M4.28499 3.75819C4.18344 3.36547 3.84118 3.10428 3.46883 3.093C3.23188 2.60257 2.70721 2.38084 2.23519 2.51237C2.11107 2.54619 1.99071 2.60632 1.87788 2.69088C1.18772 2.3395 0.337709 2.84121 0.307621 3.60599C-0.198248 3.93295 0.00861096 4.33319 0.296335 4.33319H4.16651C4.48997 4.33319 4.5934 3.89161 4.28499 3.75819Z" fill="#7AC5D1"/>
<path d="M11.9085 2.19861C11.7336 1.52779 11.1487 1.07869 10.5112 1.05802C10.1069 0.218077 9.20799 -0.161495 8.39936 0.0639935C8.18685 0.124124 7.97999 0.225593 7.78818 0.370282C6.60531 -0.232899 5.15352 0.625835 5.09899 1.93742C4.23205 2.49739 4.5856 3.18137 5.08018 3.18137H11.7072C12.2582 3.18325 12.435 2.42786 11.9085 2.19861Z" fill="#7AC5D1"/>
</svg>
