<svg width="63" height="61" viewBox="0 0 63 61" fill="none" xmlns="http://www.w3.org/2000/svg">
<path d="M53.233 37.9766H47.1311V23.144H53.233C57.3374 23.144 60.6483 26.466 60.6483 30.5535C60.6483 34.6547 57.3374 37.9766 53.233 37.9766Z" fill="#2C9B47"/>
<path d="M52.2748 30.5265C52.2748 33.8895 49.5522 36.6099 46.1865 36.6099H15.4581V24.4568H46.1865C49.5522 24.4568 52.2748 27.1772 52.2748 30.5265Z" fill="#F8F07E"/>
<path d="M46.1877 36.6108H14.0912V37.9778H46.1877C50.3058 37.9778 53.6441 34.6422 53.6441 30.5274C53.6441 26.4125 50.3058 23.0769 46.1877 23.0769H14.0912V24.444H46.1877C54.2461 24.4576 54.2871 36.6108 46.1877 36.6108Z" fill="#5BB947"/>
<path d="M45.6825 26.1799H15.474V28.1758H45.6825V26.1799Z" fill="#FCC013"/>
<path d="M45.6825 29.5557H15.474V31.5516H45.6825V29.5557Z" fill="#FCC013"/>
<path d="M45.6825 32.9463H15.474V34.9422H45.6825V32.9463Z" fill="#FCC013"/>
<path d="M21.3848 34.2724L25.3934 31.8938L29.402 34.2724V26.1794H21.3848V34.2724Z" fill="#EE3C24"/>
<path d="M60.5786 39.782V47.3418C60.5786 48.3398 59.7714 49.1463 58.7727 49.1463H20.2459C19.2471 49.1463 19.2471 37.9911 20.2459 37.9911H58.7727C59.7714 37.9775 60.5786 38.784 60.5786 39.782Z" fill="#2855A3"/>
<path d="M43.1064 39.7813V47.3412C43.1064 48.3391 42.2992 49.1457 41.3005 49.1457H2.77371C1.77497 49.1457 0.967773 48.3391 0.967773 47.3412V47.1634H41.1637V39.959H0.967773V39.7813C0.967773 38.7834 1.77497 37.9768 2.77371 37.9768H41.3005C42.2992 37.9768 43.1064 38.7834 43.1064 39.7813Z" fill="#2790CF"/>
<path d="M41.1905 39.959H2.78687V47.1634H41.1905V39.959Z" fill="#A5DCE8"/>
<path d="M39.5488 41.0391H2.78687V42.119H39.5488V41.0391Z" fill="#7AC5D1"/>
<path d="M39.5485 43.0212H2.78662V44.1012H39.5485V43.0212Z" fill="#7AC5D1"/>
<path d="M39.5485 44.9893H2.78662V46.0692H39.5485V44.9893Z" fill="#7AC5D1"/>
<path d="M27.0986 45.8509L29.616 44.4291L32.1334 45.8509V41.0388H27.0986V45.8509Z" fill="#EE3C24"/>
<path d="M62.0184 50.938V58.4978C62.0184 59.4958 61.2112 60.3023 60.2125 60.3023H21.6857C20.687 60.3023 20.687 49.1471 21.6857 49.1471H60.2125C61.2112 49.1335 62.0184 49.94 62.0184 50.938Z" fill="#DB2927"/>
<path d="M44.5464 50.9373V58.4972C44.5464 59.4951 43.7392 60.3017 42.7404 60.3017H4.21365C3.21491 60.3017 2.40771 59.4951 2.40771 58.4972V58.3194H42.6036V51.115H2.40771V50.9373C2.40771 49.9394 3.21491 49.1328 4.21365 49.1328H42.7541C43.7392 49.1328 44.5464 49.9394 44.5464 50.9373Z" fill="#F16839"/>
<path d="M42.6305 51.115H4.22681V58.3194H42.6305V51.115Z" fill="#A5DCE8"/>
<path d="M40.9887 52.1948H4.22681V53.2748H40.9887V52.1948Z" fill="#7AC5D1"/>
<path d="M40.989 54.1765H4.22705V55.2565H40.989V54.1765Z" fill="#7AC5D1"/>
<path d="M40.989 56.1584H4.22705V57.2384H40.989V56.1584Z" fill="#7AC5D1"/>
<path d="M28.5386 57.0069L31.0559 55.5988L33.5733 57.0069V52.1948H28.5386V57.0069Z" fill="#EE3C24"/>
<path d="M2.5199 2.51758V10.0774C2.5199 11.0754 3.32713 11.8819 4.32587 11.8819H42.8526C43.8514 11.8819 43.8514 0.726734 42.8526 0.726734H4.32587C3.32713 0.713063 2.5199 1.51963 2.5199 2.51758Z" fill="#2855A3"/>
<path d="M19.9908 2.51668V10.0765C19.9908 11.0745 20.798 11.881 21.7968 11.881H60.3235C61.3223 11.881 62.1295 11.0745 62.1295 10.0765V9.89879H21.9336V2.69439H62.1295V2.51668C62.1295 1.51872 61.3223 0.712158 60.3235 0.712158H21.7968C20.798 0.712158 19.9908 1.51872 19.9908 2.51668Z" fill="#2790CF"/>
<path d="M60.323 2.69507H21.9193V9.89946H60.323V2.69507Z" fill="#A5DCE8"/>
<path d="M60.3133 3.77368H23.5514V4.85366H60.3133V3.77368Z" fill="#7AC5D1"/>
<path d="M60.3133 5.75586H23.5514V6.83583H60.3133V5.75586Z" fill="#7AC5D1"/>
<path d="M60.3133 7.73804H23.5514V8.81801H60.3133V7.73804Z" fill="#7AC5D1"/>
<path d="M35.9984 8.58646L33.481 7.17839L30.9636 8.58646V3.77441H35.9984V8.58646Z" fill="#EE3C24"/>
<path d="M1.07959 13.6707V21.2306C1.07959 22.2285 1.88682 23.0351 2.88556 23.0351H41.4123C42.4111 23.0351 42.4111 11.8799 41.4123 11.8799H2.88556C1.88682 11.8799 1.07959 12.6864 1.07959 13.6707Z" fill="#DB2927"/>
<path d="M18.5505 13.6702V21.2301C18.5505 22.228 19.3577 23.0346 20.3565 23.0346H58.8832C59.882 23.0346 60.6892 22.228 60.6892 21.2301V21.0524H20.4933V13.848H60.6755V13.6702C60.6755 12.6723 59.8683 11.8657 58.8696 11.8657H20.3428C19.3577 11.8794 18.5505 12.686 18.5505 13.6702Z" fill="#F16839"/>
<path d="M58.8826 13.8472H20.479V21.0516H58.8826V13.8472Z" fill="#A5DCE8"/>
<path d="M58.8704 14.9277H22.1085V16.0077H58.8704V14.9277Z" fill="#7AC5D1"/>
<path d="M58.8703 16.9104H22.1084V17.9904H58.8703V16.9104Z" fill="#7AC5D1"/>
<path d="M58.8703 18.8926H22.1084V19.9726H58.8703V18.8926Z" fill="#7AC5D1"/>
<path d="M34.5582 19.7393L32.0408 18.3312L29.5234 19.7393V14.9272H34.5582V19.7393Z" fill="#EE3C24"/>
</svg>
