<svg width="13" height="12" viewBox="0 0 13 12" fill="none" xmlns="http://www.w3.org/2000/svg">
<path d="M8.52402 0.650238C6.42595 0.650238 4.72314 2.34971 4.72314 4.44811C4.72314 6.54452 6.42395 8.24599 8.52402 8.24599C10.6221 8.24599 12.3249 6.54652 12.3249 4.44811C12.3229 2.3517 10.6221 0.650238 8.52402 0.650238Z" fill="#D6E8E8"/>
<path d="M8.74546 0.29718H8.30029V1.09705H8.74546V0.29718Z" fill="#467F7A"/>
<path d="M5.16842 4.22672H4.36792V4.67153H5.16842V4.22672Z" fill="#467F7A"/>
<path d="M8.74546 7.80118H8.30029V8.60105H8.74546V7.80118Z" fill="#467F7A"/>
<path d="M12.6782 4.22672H11.8777V4.67153H12.6782V4.22672Z" fill="#467F7A"/>
<path d="M8.52396 0C6.06458 0 4.07031 1.99268 4.07031 4.45013C4.07031 6.90758 6.06458 8.89827 8.52396 8.89827C10.9834 8.89827 12.9756 6.90558 12.9756 4.45013C12.9756 1.99069 10.9814 0 8.52396 0ZM8.52396 8.24601C6.4259 8.24601 4.72309 6.54654 4.72309 4.44814C4.72309 2.34973 6.4239 0.650263 8.52396 0.650263C10.622 0.650263 12.3248 2.34973 12.3248 4.44814C12.3228 6.54654 10.622 8.24601 8.52396 8.24601Z" fill="#7AA004"/>
<path d="M8.71757 4.31447L8.34227 4.57178L6.98682 2.59505L6.95288 2.14426L7.36211 2.33774L8.71757 4.31447Z" fill="#467F7A"/>
<path d="M8.52417 4.74333V4.20078H10.1771L10.6402 4.47205L10.1771 4.74333H8.52417Z" fill="#FC971F"/>
<path d="M8.97922 4.42621C8.9912 4.67754 8.79756 4.89097 8.54603 4.90293C8.29451 4.9149 8.08091 4.72142 8.06693 4.4681C8.05496 4.21677 8.24859 4.00333 8.50012 3.99137C8.75165 3.98139 8.96724 4.17488 8.97922 4.42621Z" fill="#302C2A"/>
<path d="M0 7.2048V11.4874C0 11.7706 0.229569 12 0.513037 12H7.59576L8.34236 11.254V7.2068H0V7.2048Z" fill="#84DCF7"/>
<path d="M8.34036 7.2048H0V7.50002H8.34036V7.2048Z" fill="#00AFD8"/>
<path d="M8.34036 5.70279H0.00199821C0.00199821 5.71675 0 7.20479 0 7.20479H8.34036C8.34036 7.20479 8.34036 5.71476 8.34036 5.70279ZM1.03007 6.64827C0.840426 6.64827 0.684717 6.49468 0.684717 6.30319C0.684717 6.1137 0.83843 5.95811 1.03007 5.95811C1.21972 5.95811 1.37542 6.1117 1.37542 6.30319C1.37542 6.49269 1.21972 6.64827 1.03007 6.64827ZM7.31029 6.64827C7.12065 6.64827 6.96494 6.49468 6.96494 6.30319C6.96494 6.1137 7.11865 5.95811 7.31029 5.95811C7.49994 5.95811 7.65565 6.1117 7.65565 6.30319C7.65565 6.49269 7.50193 6.64827 7.31029 6.64827Z" fill="#F23509"/>
<path d="M1.03013 5.8584C0.784588 5.8584 0.584961 6.05787 0.584961 6.30321C0.584961 6.54856 0.784588 6.74802 1.03013 6.74802C1.27567 6.74802 1.47529 6.54856 1.47529 6.30321C1.47529 6.05787 1.27567 5.8584 1.03013 5.8584ZM1.03013 6.60042C0.864438 6.60042 0.732682 6.46678 0.732682 6.30321C0.732682 6.13765 0.866434 6.006 1.03013 6.006C1.19582 6.006 1.32757 6.13965 1.32757 6.30321C1.32757 6.46678 1.19382 6.60042 1.03013 6.60042Z" fill="#302C2A"/>
<path d="M7.31016 5.8584C7.06462 5.8584 6.86499 6.05787 6.86499 6.30321C6.86499 6.54856 7.06462 6.74802 7.31016 6.74802C7.5557 6.74802 7.75532 6.54856 7.75532 6.30321C7.75532 6.05787 7.5557 5.8584 7.31016 5.8584ZM7.31016 6.60042C7.14447 6.60042 7.01272 6.46678 7.01272 6.30321C7.01272 6.13765 7.14646 6.006 7.31016 6.006C7.47585 6.006 7.6076 6.13965 7.6076 6.30321C7.6096 6.46678 7.47585 6.60042 7.31016 6.60042Z" fill="#302C2A"/>
<path d="M8.34032 5.70278H0.00195312C0.0219157 5.43948 0.243497 5.23004 0.512992 5.23004H7.82927C8.09877 5.23004 8.32035 5.43948 8.34032 5.70278Z" fill="#E22500"/>
<path d="M8.34036 7.2048H0V7.2806H8.34036V7.2048Z" fill="#7F7F7F"/>
<path d="M7.59375 12V11.7646C7.59375 11.4814 7.82332 11.252 8.10679 11.252H8.34235L7.59375 12Z" fill="#00AFD8"/>
<path d="M1.03004 4.47406V6.2972C0.928229 6.2972 0.826416 6.22938 0.826416 6.09574V4.67552C0.826416 4.54188 0.928229 4.47406 1.03004 4.47406Z" fill="#FFD93B"/>
<path d="M1.23365 4.67552V6.09574C1.23365 6.22938 1.13184 6.2972 1.03003 6.2972V4.47406C1.13184 4.47406 1.23365 4.54188 1.23365 4.67552Z" fill="#FC971F"/>
<path d="M7.31031 4.47406V6.2972C7.2085 6.2972 7.10669 6.22938 7.10669 6.09574V4.67552C7.10869 4.54188 7.21049 4.47406 7.31031 4.47406Z" fill="#FFD93B"/>
<path d="M7.51392 4.67552V6.09574C7.51392 6.22938 7.41211 6.2972 7.3103 6.2972V4.47406C7.41211 4.47406 7.51392 4.54188 7.51392 4.67552Z" fill="#FC971F"/>
<path d="M1.59707 8.27591H0.810547V9.06181H1.59707V8.27591Z" fill="#0085D6"/>
<path d="M2.58511 8.27591H1.79858V9.06181H2.58511V8.27591Z" fill="#0085D6"/>
<path d="M3.57535 8.27591H2.78882V9.06181H3.57535V8.27591Z" fill="#0085D6"/>
<path d="M4.56338 8.27591H3.77686V9.06181H4.56338V8.27591Z" fill="#0085D6"/>
<path d="M5.55166 8.27591H4.76514V9.06181H5.55166V8.27591Z" fill="#0085D6"/>
<path d="M2.58511 8.27591H1.79858V9.06181H2.58511V8.27591Z" fill="#0085D6"/>
<path d="M3.57535 8.27591H2.78882V9.06181H3.57535V8.27591Z" fill="#0085D6"/>
<path d="M4.56338 8.27591H3.77686V9.06181H4.56338V8.27591Z" fill="#0085D6"/>
<path d="M5.55166 8.27591H4.76514V9.06181H5.55166V8.27591Z" fill="#0085D6"/>
<path d="M6.54165 8.27591H5.75513V9.06181H6.54165V8.27591Z" fill="#0085D6"/>
<path d="M3.57535 8.27591H2.78882V9.06181H3.57535V8.27591Z" fill="#0085D6"/>
<path d="M4.56338 8.27591H3.77686V9.06181H4.56338V8.27591Z" fill="#0085D6"/>
<path d="M5.55166 8.27591H4.76514V9.06181H5.55166V8.27591Z" fill="#0085D6"/>
<path d="M6.54165 8.27591H5.75513V9.06181H6.54165V8.27591Z" fill="#FC971F"/>
<path d="M7.52993 8.27591H6.74341V9.06181H7.52993V8.27591Z" fill="#0085D6"/>
<path d="M1.59707 9.20944H0.810547V9.99534H1.59707V9.20944Z" fill="#0085D6"/>
<path d="M2.58511 9.20944H1.79858V9.99534H2.58511V9.20944Z" fill="#0085D6"/>
<path d="M3.57535 9.20944H2.78882V9.99534H3.57535V9.20944Z" fill="#0085D6"/>
<path d="M4.56338 9.20944H3.77686V9.99534H4.56338V9.20944Z" fill="#0085D6"/>
<path d="M5.55166 9.20944H4.76514V9.99534H5.55166V9.20944Z" fill="#0085D6"/>
<path d="M2.58511 9.20944H1.79858V9.99534H2.58511V9.20944Z" fill="#F23509"/>
<path d="M3.57535 9.20944H2.78882V9.99534H3.57535V9.20944Z" fill="#0085D6"/>
<path d="M4.56338 9.20944H3.77686V9.99534H4.56338V9.20944Z" fill="#0085D6"/>
<path d="M5.55166 9.20944H4.76514V9.99534H5.55166V9.20944Z" fill="#0085D6"/>
<path d="M6.54165 9.20944H5.75513V9.99534H6.54165V9.20944Z" fill="#0085D6"/>
<path d="M3.57535 9.20944H2.78882V9.99534H3.57535V9.20944Z" fill="#0085D6"/>
<path d="M4.56338 9.20944H3.77686V9.99534H4.56338V9.20944Z" fill="#0085D6"/>
<path d="M5.55166 9.20944H4.76514V9.99534H5.55166V9.20944Z" fill="#0085D6"/>
<path d="M6.54165 9.20944H5.75513V9.99534H6.54165V9.20944Z" fill="#0085D6"/>
<path d="M7.52993 9.20944H6.74341V9.99534H7.52993V9.20944Z" fill="#0085D6"/>
<path d="M1.59707 10.143H0.810547V10.9289H1.59707V10.143Z" fill="#0085D6"/>
<path d="M2.58511 10.143H1.79858V10.9289H2.58511V10.143Z" fill="#0085D6"/>
<path d="M3.57535 10.143H2.78882V10.9289H3.57535V10.143Z" fill="#0085D6"/>
<path d="M4.56338 10.143H3.77686V10.9289H4.56338V10.143Z" fill="#0085D6"/>
<path d="M5.55166 10.143H4.76514V10.9289H5.55166V10.143Z" fill="#0085D6"/>
<path d="M2.58511 10.143H1.79858V10.9289H2.58511V10.143Z" fill="#0085D6"/>
<path d="M3.57535 10.143H2.78882V10.9289H3.57535V10.143Z" fill="#0085D6"/>
<path d="M4.56338 10.143H3.77686V10.9289H4.56338V10.143Z" fill="#0085D6"/>
<path d="M5.55166 10.143H4.76514V10.9289H5.55166V10.143Z" fill="#0085D6"/>
<path d="M6.54165 10.143H5.75513V10.9289H6.54165V10.143Z" fill="#0085D6"/>
<path d="M3.57535 10.143H2.78882V10.9289H3.57535V10.143Z" fill="#0085D6"/>
<path d="M4.56338 10.143H3.77686V10.9289H4.56338V10.143Z" fill="#0085D6"/>
<path d="M5.55166 10.143H4.76514V10.9289H5.55166V10.143Z" fill="#0085D6"/>
<path d="M6.54165 10.143H5.75513V10.9289H6.54165V10.143Z" fill="#0085D6"/>
<path d="M7.52993 10.143H6.74341V10.9289H7.52993V10.143Z" fill="#FFD93B"/>
</svg>
