<svg width="15" height="15" viewBox="0 0 15 15" fill="none" xmlns="http://www.w3.org/2000/svg">
<g id="uil:link">
<path id="Vector" d="M5.91933 10.7158L4.81308 11.7908C4.523 12.0808 4.12957 12.2438 3.71933 12.2438C3.3091 12.2438 2.91566 12.0808 2.62558 11.7908C2.3355 11.5007 2.17254 11.1072 2.17254 10.697C2.17254 10.2868 2.3355 9.89334 2.62558 9.60326L5.46308 6.75951C5.74159 6.4801 6.11685 6.31843 6.51122 6.30796C6.90559 6.29749 7.28889 6.43902 7.58183 6.70326L7.65683 6.76576C7.77535 6.88179 7.93511 6.94599 8.10096 6.94423C8.26681 6.94247 8.42517 6.8749 8.54121 6.75638C8.65724 6.63786 8.72144 6.47811 8.71968 6.31225C8.71792 6.1464 8.65035 5.98804 8.53183 5.87201C8.49656 5.8264 8.45901 5.78259 8.41933 5.74076C7.8858 5.27658 7.19579 5.03254 6.48906 5.05807C5.78233 5.0836 5.11173 5.37679 4.61308 5.87826L1.73808 8.72201C1.24955 9.25375 0.985344 9.95367 1.00063 10.6756C1.01591 11.3975 1.30951 12.0856 1.8201 12.5962C2.3307 13.1068 3.01881 13.4004 3.74074 13.4157C4.46266 13.431 5.16259 13.1668 5.69433 12.6783L6.77558 11.622C6.88234 11.5055 6.94103 11.353 6.93984 11.195C6.93864 11.037 6.87766 10.8853 6.76915 10.7705C6.66064 10.6556 6.51267 10.5861 6.355 10.576C6.19733 10.5658 6.04167 10.6158 5.91933 10.7158ZM12.6006 1.81576C12.0748 1.29326 11.3637 1 10.6225 1C9.88122 1 9.17009 1.29326 8.64433 1.81576L7.56308 2.87201C7.45632 2.98848 7.39763 3.14106 7.39883 3.29905C7.40002 3.45704 7.46101 3.60872 7.56951 3.72356C7.67802 3.8384 7.826 3.90789 7.98367 3.91804C8.14134 3.92819 8.297 3.87824 8.41933 3.77826L9.50058 2.70326C9.79066 2.41318 10.1841 2.25021 10.5943 2.25021C11.0046 2.25021 11.398 2.41318 11.6881 2.70326C11.9782 2.99334 12.1411 3.38677 12.1411 3.79701C12.1411 4.20724 11.9782 4.60068 11.6881 4.89076L8.85058 7.73451C8.57207 8.01392 8.19682 8.17558 7.80245 8.18605C7.40808 8.19652 7.02477 8.055 6.73183 7.79076L6.65683 7.72826C6.53831 7.61223 6.37856 7.54803 6.2127 7.54978C6.04685 7.55154 5.88849 7.61911 5.77246 7.73763C5.65642 7.85615 5.59223 8.01591 5.59398 8.18176C5.59574 8.34761 5.66331 8.50597 5.78183 8.62201C5.82723 8.66844 5.87522 8.71226 5.92558 8.75326C6.45975 9.21604 7.14947 9.45916 7.85577 9.43365C8.56207 9.40813 9.23244 9.11587 9.73183 8.61576L12.5756 5.77201C13.1014 5.24955 13.3992 4.54028 13.4039 3.79904C13.4085 3.0578 13.1198 2.34481 12.6006 1.81576Z" fill="url(#paint0_linear_263_350)"/>
</g>
<defs>
<linearGradient id="paint0_linear_263_350" x1="7.20196" y1="1" x2="7.20196" y2="13.4163" gradientUnits="userSpaceOnUse">
<stop stop-color="#FF6B00"/>
<stop offset="1" stop-color="#FFC700"/>
</linearGradient>
</defs>
</svg>
